# Blender 4.1.1
# www.blender.org
mtllib bottom.mtl
o Tile_3
v 0.408130 -0.011051 0.418542
v 0.408130 -0.011051 -0.394635
v 0.535240 -0.032318 0.543532
v 0.535240 -0.032318 -0.519625
v -0.409325 0.007674 -0.398748
v -0.548453 0.012589 -0.530342
v 0.412078 0.007674 0.422655
v -0.547435 -0.041463 0.546323
v -0.421310 0.042773 -0.402831
v 0.412078 0.007674 -0.398748
v -0.409325 0.007674 0.422655
v -0.536185 -0.039088 -0.527054
v -0.559703 0.010213 0.549610
v -0.540188 -0.022410 -0.545171
v -0.409041 -0.008903 -0.400317
v -0.409041 -0.008903 0.424224
v 0.546287 0.030703 -0.554249
v -0.412861 0.030703 -0.418721
v -0.544599 0.030703 -0.545135
v 0.416774 0.040611 0.421022
v 0.416162 0.003994 0.426739
v 0.543884 0.019345 -0.522867
v 0.416162 0.003994 0.219346
v 0.416774 0.040611 -0.397114
v 0.543884 0.019345 0.546775
v -0.413408 0.003994 -0.195439
v -0.413408 0.003994 -0.402831
v -0.421310 0.042773 0.426739
v 0.416162 0.020079 0.426739
v -0.413409 0.020079 -0.402831
v 0.416162 0.020079 0.219346
v -0.413409 0.020079 -0.195439
v -0.413409 0.021753 -0.402831
v 0.416162 0.021753 0.426739
v 0.416162 0.021753 -0.402831
v -0.413409 0.021753 0.426739
v -0.544086 0.030703 0.554249
v 0.412807 -0.022410 0.426739
v -0.410054 -0.022410 0.426739
v 0.542428 -0.022410 0.554249
v -0.539675 -0.022410 0.554249
v 0.416162 0.030703 0.426739
v 0.546839 0.030703 0.554249
v -0.413409 0.030703 0.426739
v 0.541876 -0.022410 -0.554212
v -0.409507 -0.022410 -0.418749
v 0.413326 -0.022410 -0.425623
v 0.416680 0.030703 -0.425651
v -0.345910 0.060644 0.010256
v 0.487684 -0.022879 -0.244067
v -0.333641 0.008967 0.010256
v 0.215855 0.028804 -0.508904
v -0.466410 -0.022405 0.007937
v 0.351717 -0.001613 -0.194001
v 0.496328 0.028783 -0.245709
v -0.478678 0.029271 0.007937
v 0.360360 0.050050 -0.195258
v 0.214172 -0.024309 -0.508889
v 0.165802 -0.024309 -0.380971
v -0.207558 -0.022410 0.499183
v -0.157503 -0.022410 0.371673
v -0.158799 0.030703 0.371673
v -0.209262 0.030703 0.499183
v 0.167081 0.028804 -0.380981
v -0.000685 0.010526 0.411666
v 0.003943 0.007816 -0.403771
v -0.000685 0.024604 0.415749
v 0.003943 0.021894 -0.407854
v 0.535240 -0.032318 0.543532
v 0.535240 -0.032318 0.543532
v 0.543884 0.019345 0.546775
v 0.543884 0.019345 0.546775
v 0.408130 -0.011051 0.418542
v 0.408130 -0.011051 0.418542
v -0.345910 0.060644 0.010256
v -0.421310 0.042773 0.426739
v -0.421310 0.042773 0.426739
v 0.535240 -0.032318 -0.519625
v 0.535240 -0.032318 -0.519625
v 0.408130 -0.011051 -0.394635
v 0.487684 -0.022879 -0.244067
v -0.333641 0.008967 0.010256
v -0.409041 -0.008903 0.424224
v -0.409041 -0.008903 0.424224
v -0.536185 -0.039088 -0.527054
v -0.536185 -0.039088 -0.527054
v -0.409041 -0.008903 -0.400317
v -0.409041 -0.008903 -0.400317
v 0.215855 0.028804 -0.508904
v -0.544599 0.030703 -0.545135
v -0.544599 0.030703 -0.545135
v -0.540188 -0.022410 -0.545171
v -0.540188 -0.022410 -0.545171
v -0.412861 0.030703 -0.418721
v -0.412861 0.030703 -0.418721
v -0.548453 0.012589 -0.530342
v -0.548453 0.012589 -0.530342
v 0.546287 0.030703 -0.554249
v 0.546287 0.030703 -0.554249
v 0.416680 0.030703 -0.425651
v 0.416680 0.030703 -0.425651
v -0.466410 -0.022405 0.007937
v -0.547435 -0.041463 0.546323
v -0.547435 -0.041463 0.546323
v 0.413326 -0.022410 -0.425623
v 0.413326 -0.022410 -0.425623
v -0.421310 0.042773 -0.402831
v -0.421310 0.042773 -0.402831
v 0.351717 -0.001613 -0.194001
v 0.541876 -0.022410 -0.554212
v 0.541876 -0.022410 -0.554212
v 0.543884 0.019345 -0.522867
v 0.543884 0.019345 -0.522867
v 0.416774 0.040611 -0.397114
v -0.409325 0.007674 -0.398748
v -0.409325 0.007674 -0.398748
v -0.409325 0.007674 0.422655
v -0.409325 0.007674 0.422655
v 0.412078 0.007674 0.422655
v 0.412078 0.007674 0.422655
v 0.412078 0.007674 -0.398748
v 0.412078 0.007674 -0.398748
v -0.000685 0.010526 0.411666
v 0.003943 0.007816 -0.403771
v -0.413408 0.003994 -0.195439
v 0.416162 0.003994 0.426739
v -0.413408 0.003994 -0.402831
v 0.416162 0.003994 0.219346
v 0.416774 0.040611 0.421022
v 0.416774 0.040611 0.421022
v 0.496328 0.028783 -0.245709
v -0.559703 0.010213 0.549610
v -0.559703 0.010213 0.549610
v -0.478678 0.029271 0.007937
v 0.360360 0.050050 -0.195258
v -0.409507 -0.022410 -0.418749
v -0.409507 -0.022410 -0.418749
v 0.214172 -0.024309 -0.508889
v 0.165802 -0.024309 -0.380971
v -0.413409 0.021753 -0.402831
v -0.413409 0.021753 -0.402831
v -0.413409 0.021753 0.426739
v -0.413409 0.021753 0.426739
v 0.416162 0.021753 0.426739
v 0.416162 0.021753 0.426739
v 0.416162 0.021753 -0.402831
v 0.416162 0.021753 -0.402831
v -0.000685 0.024604 0.415749
v 0.003943 0.021894 -0.407854
v -0.544086 0.030703 0.554249
v -0.544086 0.030703 0.554249
v -0.539675 -0.022410 0.554249
v -0.539675 -0.022410 0.554249
v 0.412807 -0.022410 0.426739
v 0.412807 -0.022410 0.426739
v 0.416162 0.030703 0.426739
v 0.416162 0.030703 0.426739
v 0.542428 -0.022410 0.554249
v 0.542428 -0.022410 0.554249
v -0.410054 -0.022410 0.426739
v -0.410054 -0.022410 0.426739
v -0.207558 -0.022410 0.499183
v -0.157503 -0.022410 0.371673
v 0.546839 0.030703 0.554249
v 0.546839 0.030703 0.554249
v -0.413409 0.030703 0.426739
v -0.413409 0.030703 0.426739
v -0.158799 0.030703 0.371673
v -0.209262 0.030703 0.499183
v 0.167081 0.028804 -0.380981
vn 0.9558 0.2281 -0.1856
vn 0.9559 0.2277 -0.1855
vn 0.9743 0.2254 -0.0007
vn 0.2299 -0.9732 -0.0000
vn 0.2242 -0.9746 -0.0008
vn 0.2241 -0.9746 -0.0008
vn 0.6889 0.1184 -0.7151
vn 0.6886 0.1192 -0.7153
vn 0.6850 0.1274 -0.7174
vn -0.1605 -0.9870 0.0029
vn -0.1582 -0.9874 -0.0013
vn -0.1580 -0.9874 -0.0013
vn -0.0027 1.0000 -0.0084
vn 0.0036 1.0000 0.0046
vn 0.0036 1.0000 0.0049
vn -0.6000 -0.0000 0.8000
vn 0.6000 -0.0000 -0.8000
vn -0.0000 -1.0000 -0.0000
vn -0.8503 0.1113 -0.5144
vn -0.6925 0.0797 -0.7170
vn -0.6921 0.0806 -0.7172
vn -0.6921 0.0806 0.7172
vn -0.6925 0.0797 0.7170
vn -0.6952 0.0722 0.7152
vn -0.9748 -0.2229 -0.0100
vn -0.9645 -0.2283 0.1328
vn -0.9644 -0.2285 0.1328
vn -0.9815 0.1671 0.0930
vn -0.9816 0.1669 0.0930
vn -0.9832 0.1560 -0.0945
vn -0.6921 -0.0546 0.7198
vn -0.6936 -0.0484 0.7187
vn -0.6938 -0.0476 0.7186
vn 0.1775 -0.0043 0.9841
vn 0.1774 -0.0047 0.9841
vn 0.0582 -0.0052 0.9983
vn -0.0464 0.0065 -0.9989
vn -0.1369 0.0049 -0.9906
vn -0.1369 0.0046 -0.9906
vn 0.7040 -0.0544 0.7081
vn 0.7042 -0.0536 0.7080
vn 0.7056 -0.0478 0.7070
vn 0.6459 0.1062 0.7560
vn 0.6425 0.1137 0.7578
vn 0.6421 0.1146 0.7580
vn 0.9858 -0.1575 0.0582
vn 0.9842 -0.1662 -0.0614
vn 0.9842 -0.1663 -0.0614
vn -0.0004 -1.0000 0.0086
vn -0.0000 -1.0000 -0.0045
vn -0.0084 -1.0000 -0.0009
vn -0.2299 0.9732 -0.0000
vn -0.2360 0.9717 0.0007
vn -0.2362 0.9717 0.0006
vn 0.1605 0.9870 -0.0030
vn 0.1524 0.9883 -0.0028
vn 0.1512 0.9885 -0.0022
vn 0.0026 -1.0000 0.0084
vn 0.0092 -1.0000 0.0006
vn 0.0095 -1.0000 -0.0002
vn 0.0004 1.0000 -0.0086
vn -0.0000 1.0000 -0.0034
vn 0.0084 1.0000 0.0009
vn -0.0000 -0.2834 -0.9590
vn 0.0116 -0.2792 -0.9602
vn -0.9604 -0.2786 -0.0000
vn 0.9604 -0.2786 -0.0000
vn 0.0001 -0.2711 0.9626
vn 0.0277 -0.2791 0.9599
vn 0.0277 -0.2792 0.9598
vn -0.6983 -0.0534 -0.7138
vn -0.6985 -0.0528 -0.7137
vn -0.6995 -0.0487 -0.7130
vn 0.6995 -0.0487 -0.7130
vn 0.6985 -0.0528 -0.7137
vn 0.6983 -0.0534 -0.7138
vn -0.2127 -0.0068 -0.9771
vn -0.2126 -0.0072 -0.9771
vn -0.0611 -0.0101 -0.9981
vn 0.0476 0.0069 0.9988
vn 0.1635 0.0054 0.9865
vn 0.1636 0.0050 0.9865
vn -0.0000 1.0000 -0.0000
vn 0.9566 0.2259 0.1839
vn 0.9742 0.2255 -0.0007
vn 0.2300 -0.9732 -0.0000
vn 0.2362 -0.9717 -0.0006
vn -0.1602 -0.9871 0.0008
vn -0.1519 -0.9884 0.0025
vn -0.0094 1.0000 0.0002
vn -0.0092 1.0000 -0.0005
vn -0.9747 -0.2231 -0.0099
vn -0.9624 -0.2249 -0.1524
vn -0.8560 0.1121 -0.5047
vn -0.9836 0.1572 -0.0890
vn -0.0654 0.0003 0.9979
vn 0.0540 -0.0076 0.9985
vn -0.0423 0.0095 -0.9991
vn 0.0480 -0.0020 -0.9988
vn 0.9862 -0.1565 0.0537
vn 0.9717 -0.1599 0.1737
vn -0.2241 0.9746 0.0008
vn 0.1580 0.9874 0.0013
vn 0.1582 0.9874 0.0013
vn 0.0004 -1.0000 0.0080
vn -0.0037 -1.0000 -0.0049
vn 0.0960 0.0012 -0.9954
vn -0.0565 -0.0059 -0.9984
vn 0.0428 0.0076 0.9991
vn -0.0732 -0.0020 0.9973
vn 0.0084 -1.0000 -0.0008
vn -0.0000 1.0000 0.0045
vn -0.0085 1.0000 0.0008
vn -0.0116 -0.2766 -0.9609
vn -0.0116 -0.2767 -0.9609
vn -0.0275 -0.2790 0.9599
vn 0.6854 0.1265 -0.7171
vn -0.0004 1.0000 -0.0080
vn -0.6949 0.0730 0.7154
vn -0.6923 -0.0538 0.7196
vn 0.7054 -0.0486 0.7071
vn 0.6455 0.1070 0.7562
vn -0.0001 -1.0000 0.0034
vn -0.2300 0.9732 -0.0000
vn 0.1601 0.9871 -0.0008
vn -0.0000 -0.2833 -0.9590
vn 0.0001 -0.2711 0.9625
vn -0.6993 -0.0494 -0.7131
vn 0.6993 -0.0494 -0.7131
vn 0.9567 0.2257 0.1838
vn 0.2361 -0.9717 -0.0007
vn -0.1530 -0.9882 0.0032
vn -0.9624 -0.2248 -0.1524
vn -0.0654 0.0001 0.9979
vn 0.0480 -0.0018 -0.9988
vn 0.9718 -0.1595 0.1737
vn -0.0037 -1.0000 -0.0046
vn 0.0960 0.0010 -0.9954
vn -0.0732 -0.0019 0.9973
vn 0.0001 -1.0000 0.0034
vn -0.0001 1.0000 -0.0034
vt 0.771302 0.793895
vt 0.772253 0.813994
vt 0.615289 0.813994
vt 0.615289 0.744444
vt 0.819262 0.744444
vt 0.895095 0.607555
vt 0.880634 0.593620
vt 0.929950 0.545521
vt 0.687196 0.391670
vt 0.379902 0.391670
vt 0.427862 0.342219
vt 0.595548 0.980225
vt 0.880691 0.980225
vt 0.831240 0.931972
vt 0.004140 0.873959
vt 0.396551 0.873960
vt 0.396551 0.880047
vt 0.051229 0.942832
vt 0.443640 0.942833
vt 0.443640 0.948919
vt 0.845454 0.061330
vt 0.795948 0.013060
vt 0.810696 -0.000727
vt 0.810545 0.437292
vt 0.795948 0.423494
vt 0.845346 0.375259
vt 0.615289 0.724345
vt 0.820506 0.724345
vt 0.426911 0.322120
vt 0.663384 0.322120
vt 0.893897 0.964981
vt 0.479564 0.839936
vt 0.478295 0.819837
vt 0.575392 0.819836
vt 0.556531 0.908288
vt 0.428843 0.908288
vt 0.430513 0.888188
vt 0.517311 0.931972
vt 0.503911 0.916938
vt 0.454654 0.964981
vt 0.895095 0.921484
vt 0.944547 0.969753
vt 0.929799 0.983541
vt 0.687826 0.411770
vt 0.378658 0.411770
vt 0.565491 0.412638
vt 0.565491 0.723476
vt 0.410072 0.723476
vt 0.944547 0.764536
vt 0.795948 0.114326
vt 0.557168 0.888188
vt 0.535622 0.316396
vt 0.378658 0.316396
vt 0.378658 0.002467
vt 0.707669 0.160195
vt 0.707669 0.317155
vt 0.702122 0.315610
vt 0.737815 0.315654
vt 0.737815 0.001718
vt 0.743362 0.003263
vt 0.719274 0.003220
vt 0.719274 0.317155
vt 0.713727 0.315610
vt 0.725392 0.158693
vt 0.725392 0.001733
vt 0.730940 0.003278
vt 0.296653 0.797517
vt 0.422334 0.797561
vt 0.373266 0.845797
vt 0.826890 0.463166
vt 0.811855 0.449766
vt 0.859898 0.400510
vt 0.859898 0.839752
vt 0.811855 0.790495
vt 0.826890 0.777095
vt 0.374528 0.865896
vt 0.278178 0.865863
vt 0.297305 0.777419
vt 0.424010 0.777462
vt 0.875142 0.413715
vt 0.875142 0.540420
vt 0.459276 0.793895
vt 0.615289 0.793895
vt 0.662902 0.342219
vt 0.739888 0.342219
vt 0.467860 0.980225
vt 0.411316 0.744444
vt 0.790954 0.839936
vt 0.575876 0.839936
vt 0.557168 0.888188
vt 0.840005 0.888188
vt 0.787848 0.391670
vt 0.944547 0.559319
vt 0.277695 0.845764
vt 0.061876 0.845689
vt 0.296653 0.797517
vt 0.012841 0.797420
vt 0.826890 0.559517
vt 0.720910 0.723476
vt 0.535622 0.002467
vt 0.692587 0.002467
vt 0.702122 0.004780
vt 0.707669 0.003235
vt 0.730939 0.314108
vt 0.725392 0.315654
vt 0.614409 0.931972
vt 0.004140 0.880046
vt 0.051229 0.948919
vt 0.859979 0.047405
vt 0.859861 0.389193
vt 0.844640 0.916938
vt 0.880516 0.935408
vt 0.410072 0.412638
vt 0.895095 0.764519
vt 0.845427 0.138785
vt 0.702122 0.160195
vt 0.743362 0.314108
vt 0.713727 0.004765
vt 0.730940 0.158693
vt 0.875142 0.826547
vt 0.458325 0.813994
vt 0.410072 0.724345
vt 0.740839 0.322120
vt 0.792223 0.819836
vt 0.841674 0.908288
vt 0.789092 0.411770
vt 0.060600 0.865788
vt 0.011179 0.777320
vt 0.720910 0.412638
vt 0.692587 0.316396
s 1
usemtl Wood
f 87/1/1 9/2/2 75/3/3
f 53/4/4 12/5/5 15/1/6
f 107/6/7 88/7/8 85/8/9
f 50/9/10 69/10/11 1/11/12
f 52/12/13 19/13/14 18/14/15
f 29/15/16 32/16/16 125/17/16
f 128/18/17 27/19/17 30/20/17
f 26/17/18 127/19/18 23/18/18
f 24/21/19 22/22/20 4/23/21
f 3/24/22 25/25/23 20/26/24
f 134/27/25 96/28/26 86/5/27
f 74/11/28 129/29/29 135/30/30
f 94/14/31 90/13/32 14/31/33
f 47/32/34 100/33/35 170/34/36
f 89/35/37 98/36/38 110/37/39
f 48/38/40 105/39/41 45/40/42
f 76/41/43 13/42/44 103/43/45
f 131/44/46 71/45/47 70/10/48
f 65/46/49 66/47/50 10/48/51
f 56/49/52 132/42/53 28/41/54
f 55/50/55 112/22/56 114/21/57
f 138/51/58 111/37/59 106/32/60
f 67/52/61 34/53/62 35/54/63
f 149/55/64 146/56/65 121/57/65
f 36/58/66 33/59/66 5/60/66
f 147/61/67 144/62/67 119/63/67
f 148/64/68 142/65/69 117/66/70
f 60/67/18 152/68/18 39/69/18
f 44/70/71 160/71/72 41/72/73
f 40/73/74 38/74/75 42/75/76
f 161/69/77 166/76/78 62/77/79
f 63/78/80 150/79/81 153/68/82
f 167/70/83 151/80/83 169/81/83
f 16/82/84 51/83/85 75/3/3
f 53/4/4 82/83/86 84/82/87
f 50/9/10 54/84/88 80/85/89
f 101/38/90 99/86/91 52/12/13
f 134/27/25 102/4/92 104/87/93
f 2/85/94 109/84/95 135/30/30
f 136/88/96 59/89/97 170/34/36
f 89/35/37 58/90/98 92/91/99
f 131/44/46 81/9/100 79/92/101
f 108/6/102 97/93/102 56/49/52
f 130/26/103 72/25/104 55/50/55
f 138/51/58 139/89/105 137/88/106
f 60/67/18 61/94/18 154/95/18
f 155/95/107 163/94/108 62/77/79
f 63/78/80 162/96/109 159/97/110
f 157/75/83 168/98/83 169/81/83
f 115/99/111 66/47/50 65/46/49
f 67/52/61 68/100/112 140/101/113
f 116/102/114 141/103/115 149/55/64
f 120/104/116 145/105/116 148/64/68
f 51/83/85 87/1/1 75/3/3
f 82/83/86 53/4/4 15/1/6
f 6/93/117 107/6/7 85/8/9
f 54/84/88 50/9/10 1/11/12
f 64/106/118 52/12/13 18/14/15
f 21/107/16 29/15/16 125/17/16
f 31/108/17 128/18/17 30/20/17
f 126/107/18 26/17/18 23/18/18
f 2/109/94 24/21/19 4/23/21
f 73/110/119 3/24/22 20/26/24
f 102/4/92 134/27/25 86/5/27
f 109/84/95 74/11/28 135/30/30
f 46/111/120 94/14/31 14/31/33
f 59/89/97 47/32/34 170/34/36
f 58/90/98 89/35/37 110/37/39
f 17/86/121 48/38/40 45/40/42
f 83/112/122 76/41/43 103/43/45
f 81/9/100 131/44/46 70/10/48
f 7/113/123 65/46/49 10/48/51
f 49/114/124 56/49/52 28/41/54
f 57/115/125 55/50/55 114/21/57
f 139/89/105 138/51/58 106/32/60
f 68/100/112 67/52/61 35/54/63
f 124/116/126 149/55/64 121/57/65
f 11/117/66 36/58/66 5/60/66
f 122/118/67 147/61/67 119/63/67
f 123/119/127 148/64/68 117/66/70
f 61/94/18 60/67/18 39/69/18
f 37/80/128 44/70/71 41/72/73
f 43/120/129 40/73/74 42/75/76
f 163/94/108 161/69/77 62/77/79
f 162/96/109 63/78/80 153/68/82
f 168/98/83 167/70/83 169/81/83
f 77/121/130 16/82/84 75/3/3
f 8/87/131 53/4/4 84/82/87
f 78/92/132 50/9/10 80/85/89
f 64/106/118 101/38/90 52/12/13
f 133/122/133 134/27/25 104/87/93
f 24/123/19 2/85/94 135/30/30
f 95/124/134 136/88/96 170/34/36
f 91/125/135 89/35/37 92/91/99
f 113/126/136 131/44/46 79/92/101
f 49/114/124 108/6/102 56/49/52
f 57/115/125 130/26/103 55/50/55
f 93/91/137 138/51/58 137/88/106
f 158/97/18 60/67/18 154/95/18
f 156/127/138 155/95/107 62/77/79
f 164/128/139 63/78/80 159/97/110
f 165/120/83 157/75/83 169/81/83
f 118/129/140 115/99/111 65/46/49
f 143/130/141 67/52/61 140/101/113
f 124/116/126 116/102/114 149/55/64
f 123/119/127 120/104/116 148/64/68
