# Blender 4.1.1
# www.blender.org
mtllib side.mtl
o Tile_1.001
v -0.470784 0.009991 0.490239
v -0.501126 1.061789 0.467100
v -0.501126 1.061789 -0.467100
v -0.530635 1.063793 -0.497288
v -0.530635 1.063793 0.497288
v -0.476025 0.615337 -0.467100
v -0.505533 0.615337 -0.497288
v -0.431135 1.062978 0.006726
v -0.400793 0.011180 0.029866
v -0.460644 1.064982 0.006726
v -0.430302 0.009175 0.029866
v -0.470784 0.009991 -0.443961
v -0.500293 0.007987 -0.474149
v -0.473394 0.615337 0.466238
v -0.405595 0.615337 0.006532
v -0.435101 0.615337 0.006709
v -0.476025 0.615337 -0.467100
v -0.501126 1.061789 -0.467100
v -0.501126 1.061789 -0.467100
v -0.431135 1.062978 0.006726
v -0.400793 0.011180 0.029866
v -0.470784 0.009991 0.490239
v -0.470784 0.009991 0.490239
v -0.505533 0.615337 -0.497288
v -0.530635 1.063793 -0.497288
v -0.530635 1.063793 -0.497288
v -0.460644 1.064982 0.006726
v -0.530635 1.063793 0.497288
v -0.530635 1.063793 0.497288
v -0.501126 1.061789 0.467100
v -0.501126 1.061789 0.467100
v -0.500293 0.007987 -0.474149
v -0.500293 0.007987 -0.474149
v -0.470784 0.009991 -0.443961
v -0.470784 0.009991 -0.443961
v -0.430302 0.009175 0.029866
v -0.473394 0.615337 0.466238
v -0.473394 0.615337 0.466238
vn 0.7186 0.0101 -0.6953
vn 0.7097 0.0401 -0.7034
vn 0.7096 0.0400 -0.7035
vn 0.0737 0.9973 -0.0012
vn 0.0696 0.9975 0.0130
vn 0.0730 0.9973 -0.0129
vn 0.0730 0.9972 -0.0129
vn 0.0777 0.9970 0.0003
vn 0.0709 -0.9975 -0.0002
vn 0.0689 -0.9976 -0.0076
vn -0.9972 -0.0733 0.0114
vn -0.9880 -0.0606 0.1422
vn -0.9905 -0.0274 0.1350
vn 0.9983 0.0579 0.0008
vn 0.9995 0.0327 0.0043
vn 0.9895 0.0260 -0.1419
vn 0.7159 0.0431 0.6969
vn 0.0678 -0.9977 0.0077
vn 0.0715 -0.9974 -0.0002
vn -0.9943 -0.0437 -0.0976
vn -0.9898 -0.0870 -0.1126
vn 0.9880 0.0305 0.1516
vn 0.9999 0.0109 -0.0010
vn 0.9892 0.0025 -0.1465
vn 0.7121 -0.0200 -0.7018
vn 0.7201 0.0088 -0.6938
vn -0.9990 -0.0405 0.0191
vn -0.9904 -0.0029 0.1379
vn 0.9892 0.0132 0.1462
vn -0.9995 -0.0106 0.0298
vn 0.0777 0.9970 0.0001
vn 0.0799 0.9967 0.0139
vn 0.9866 0.0609 -0.1512
vn 0.9877 0.0563 0.1457
vn -0.9964 -0.0101 -0.0844
vt 0.878882 0.735657
vt 0.878882 0.616639
vt 0.890450 0.616639
vt 0.887670 0.197663
vt 0.887670 0.385850
vt 0.876478 0.374426
vt 0.876477 0.020900
vt 0.887670 0.009476
vt 0.861953 0.199552
vt 0.861953 0.011368
vt 0.873146 0.022792
vt 0.189604 0.002467
vt 0.377789 0.002467
vt 0.377790 0.167131
vt 0.001419 0.589399
vt 0.165472 0.589399
vt 0.165472 0.766161
vt 0.775897 0.008218
vt 0.789924 0.007551
vt 0.775896 0.152275
vt 0.861953 0.387736
vt 0.873146 0.199552
vt 0.001419 0.167131
vt 0.001419 0.002467
vt 0.165472 0.412638
vt 0.409204 0.589399
vt 0.409204 0.766161
vt 0.878882 0.912479
vt 0.890450 0.735657
vt 0.189604 0.167131
vt 0.377790 0.411770
vt 0.409204 0.412638
vt 0.189604 0.411770
vt 0.876478 0.197663
vt 0.001419 0.766161
vt 0.001419 0.412638
vt 0.890450 0.912479
vt 0.001419 0.411770
s 1
usemtl Wood.002
f 7/1/1 4/2/2 3/3/3
f 10/4/4 5/5/5 2/6/5
f 18/7/6 25/8/7 10/4/8
f 11/9/9 13/10/10 12/11/10
f 27/12/11 26/13/12 24/14/13
f 20/15/14 15/16/15 17/17/16
f 30/18/17 28/19/17 37/20/17
f 1/21/18 11/9/9 9/22/19
f 38/23/20 29/24/21 27/12/11
f 14/25/22 15/16/15 20/15/14
f 15/16/15 21/26/23 34/27/24
f 32/28/25 7/1/1 6/29/26
f 16/30/27 24/14/13 33/31/28
f 14/25/22 22/32/29 21/26/23
f 38/23/20 16/30/27 36/33/30
f 6/29/26 7/1/1 3/3/3
f 8/34/31 10/4/8 2/6/32
f 8/34/31 18/7/6 10/4/8
f 9/22/19 11/9/9 12/11/10
f 16/30/27 27/12/11 24/14/13
f 19/35/33 20/15/14 17/17/16
f 16/30/27 38/23/20 27/12/11
f 31/36/34 14/25/22 20/15/14
f 17/17/16 15/16/15 34/27/24
f 35/37/25 32/28/25 6/29/26
f 36/33/30 16/30/27 33/31/28
f 15/16/15 14/25/22 21/26/23
f 23/38/35 38/23/20 36/33/30
