# Blender 4.1.1
# www.blender.org
mtllib cornel_box.mtl
o CornellBox-Original
v -2.000000 0.000000 1.950739
v 1.980198 0.000000 1.950739
v 1.980198 -0.000000 -2.049261
v -1.960396 -0.000000 -2.049261
v -2.019802 4.000000 1.950738
v -2.019802 3.999999 -2.049261
v 1.980198 3.999999 -2.049261
v 1.980198 4.000000 1.950738
v -1.960396 -0.000000 -2.049261
v 1.980198 -0.000000 -2.049261
v 1.980198 3.999999 -2.049261
v -2.019802 3.999999 -2.049261
v 1.980198 -0.000000 -2.049261
v 1.980198 0.000000 1.950739
v 1.980198 4.000000 1.950738
v 1.980198 3.999999 -2.049261
v -2.000000 0.000000 1.950739
v -1.960396 -0.000000 -2.049261
v -2.019802 3.999999 -2.049261
v -2.019802 4.000000 1.950738
v 1.049505 1.206030 1.477832
v 1.386139 1.206030 0.334975
v 0.257426 1.206030 -0.000000
v -0.099010 1.206030 1.123152
v -0.099010 0.000000 1.123153
v -0.099010 1.206030 1.123152
v 0.257426 1.206030 -0.000000
v 0.257426 0.000000 0.000000
v 1.049505 0.000000 1.477832
v 1.049505 1.206030 1.477832
v -0.099010 1.206030 1.123152
v -0.099010 0.000000 1.123153
v 1.386139 0.000000 0.334975
v 1.386139 1.206030 0.334975
v 1.049505 1.206030 1.477832
v 1.049505 0.000000 1.477832
v 0.257426 0.000000 0.000000
v 0.257426 1.206030 -0.000000
v 1.386139 1.206030 0.334975
v 1.386139 0.000000 0.334975
v -1.049505 2.412060 0.177340
v 0.079208 2.412060 -0.177340
v -0.277228 2.412060 -1.320197
v -1.405941 2.412060 -0.965517
v -1.049505 0.000000 0.177340
v -1.049505 2.412060 0.177340
v -1.405941 2.412060 -0.965517
v -1.405941 -0.000000 -0.965517
v -1.405941 -0.000000 -0.965517
v -1.405941 2.412060 -0.965517
v -0.277228 2.412060 -1.320197
v -0.277228 -0.000000 -1.320197
v -0.277228 -0.000000 -1.320197
v -0.277228 2.412060 -1.320197
v 0.079208 2.412060 -0.177340
v 0.079208 -0.000000 -0.177340
v 0.079208 -0.000000 -0.177340
v 0.079208 2.412060 -0.177340
v -1.049505 2.412060 0.177340
v -1.049505 0.000000 0.177340
vn -0.0000 1.0000 -0.0000
vn -0.0000 -1.0000 -0.0000
vn -0.0000 -0.0000 1.0000
vn -1.0000 -0.0000 -0.0000
vn 0.9999 0.0099 0.0050
vn -0.9532 -0.0000 -0.3025
vn -0.2951 -0.0000 0.9555
vn 0.9593 -0.0000 0.2826
vn 0.2845 -0.0000 -0.9587
vn -0.9546 -0.0000 0.2977
vn -0.2998 -0.0000 -0.9540
vn 0.9546 -0.0000 -0.2977
vn 0.2998 -0.0000 0.9540
vt 0.578189 0.229824
vt 0.435149 0.229824
vt 0.435149 0.110185
vt 0.576766 0.110185
vt 0.000293 0.220692
vt 0.000293 0.000293
vt 0.222922 0.000293
vt 0.224873 0.218741
vt 0.793801 0.673037
vt 0.793801 0.340302
vt 0.999707 0.340302
vt 0.999707 0.678053
vt 0.699418 0.545253
vt 0.699418 0.693310
vt 0.554278 0.693310
vt 0.554278 0.545253
vt 0.295655 0.721361
vt 0.295639 0.567951
vt 0.451378 0.567958
vt 0.451378 0.721361
vt 0.280968 0.816896
vt 0.382014 0.818493
vt 0.380912 0.917941
vt 0.280968 0.918437
vt 0.000293 0.780649
vt 0.000293 0.680327
vt 0.100238 0.680327
vt 0.100238 0.780649
vt 0.435282 0.801286
vt 0.535604 0.801286
vt 0.535604 0.902827
vt 0.435282 0.902827
vt 0.116677 0.834457
vt 0.217000 0.834457
vt 0.217000 0.935515
vt 0.116677 0.935515
vt 0.200278 0.680327
vt 0.200278 0.780649
vt 0.100823 0.780649
vt 0.100823 0.680327
vt 0.775238 0.229413
vt 0.675294 0.228917
vt 0.675294 0.201523
vt 0.775238 0.202018
vt 0.675294 0.200937
vt 0.675294 0.000293
vt 0.776835 0.000293
vt 0.776835 0.200937
vt 0.766917 0.780102
vt 0.766917 0.879283
vt 0.666972 0.879283
vt 0.666972 0.782053
vt 0.878962 0.000293
vt 0.878962 0.200937
vt 0.777421 0.200937
vt 0.777421 0.000293
vt 0.767503 0.879283
vt 0.767503 0.789858
vt 0.867448 0.789858
vt 0.867448 0.879283
s 0
usemtl Material.001
f 1/1/1 2/2/1 3/3/1 4/4/1
f 5/5/2 6/6/2 7/7/2 8/8/2
f 9/9/3 10/10/3 11/11/3 12/12/3
f 13/13/4 14/14/4 15/15/4 16/16/4
f 17/17/5 18/18/5 19/19/5 20/20/5
f 21/21/1 22/22/1 23/23/1 24/24/1
f 25/25/6 26/26/6 27/27/6 28/28/6
f 29/29/7 30/30/7 31/31/7 32/32/7
f 33/33/8 34/34/8 35/35/8 36/36/8
f 37/37/9 38/38/9 39/39/9 40/40/9
f 41/41/1 42/42/1 43/43/1 44/44/1
f 45/45/10 46/46/10 47/47/10 48/48/10
f 49/49/11 50/50/11 51/51/11 52/52/11
f 53/53/12 54/54/12 55/55/12 56/56/12
f 57/57/13 58/58/13 59/59/13 60/60/13
o Cube
v -5.518710 -2.478802 6.782148
v -5.518710 -0.013418 6.782148
v -5.518710 -2.478802 -6.782148
v -5.518710 -0.013418 -6.782148
v 5.518710 -2.478802 6.782148
v 5.518710 -0.013418 6.782148
v 5.518710 -2.478802 -6.782148
v 5.518710 -0.013418 -6.782148
vn -1.0000 -0.0000 -0.0000
vn -0.0000 -0.0000 -1.0000
vn 1.0000 -0.0000 -0.0000
vn -0.0000 -0.0000 1.0000
vn -0.0000 -1.0000 -0.0000
vn -0.0000 1.0000 -0.0000
vt 0.375000 0.000000
vt 0.625000 0.000000
vt 0.625000 0.250000
vt 0.375000 0.250000
vt 0.625000 0.500000
vt 0.375000 0.500000
vt 0.625000 0.750000
vt 0.375000 0.750000
vt 0.625000 1.000000
vt 0.375000 1.000000
vt 0.125000 0.500000
vt 0.125000 0.750000
vt 0.766357 0.500000
vt 0.875000 0.500000
vt 0.875000 0.750000
vt 0.766357 0.750000
s 0
usemtl Material.002
f 61/61/14 62/62/14 64/63/14 63/64/14
f 63/64/15 64/63/15 68/65/15 67/66/15
f 67/66/16 68/65/16 66/67/16 65/68/16
f 65/68/17 66/67/17 62/69/17 61/70/17
f 63/71/18 67/66/18 65/68/18 61/72/18
f 68/73/19 64/74/19 62/75/19 66/76/19
o Plane
v -2.022527 4.000000 1.944378
v 1.977473 4.000000 1.944378
v -2.022527 0.000000 1.944378
v 1.977473 0.000000 1.944378
vn -0.0000 -0.0000 -1.0000
vt 0.210071 0.169805
vt 0.000100 0.176000
vt 0.000100 0.000100
vt 0.210071 0.000100
s 0
usemtl Material.003
f 69/77/20 70/78/20 72/79/20 71/80/20
