# Blender 4.1.1
# www.blender.org
mtllib fps1.mtl
o Cube
v -10.000000 -0.500000 15.000000
v -9.772669 0.500000 14.659002
v -10.000000 -0.500000 -15.000000
v -9.772669 0.500000 -14.659002
v 10.000000 -0.500000 15.000000
v 9.772669 0.500000 14.659002
v 10.000000 -0.500000 -15.000000
v 9.772669 0.500000 -14.659002
v -10.000000 0.500000 15.000000
v -10.000000 0.500000 -15.000000
v 10.000000 0.500000 -15.000000
v 10.000000 0.500000 15.000000
v -10.000000 4.123400 15.000000
v -10.000000 4.123400 -15.000000
v 10.000000 4.123400 -15.000000
v 10.000000 4.123400 15.000000
v -9.772669 4.123400 14.659002
v -9.772669 4.123400 -14.659002
v 9.772669 4.123400 -14.659002
v 9.772669 4.123400 14.659002
v -6.427920 0.500000 8.243999
v -6.427920 2.500000 8.243999
v -5.336234 0.500000 6.568226
v -5.336234 2.500000 6.568226
v -4.752146 0.500000 9.335687
v -4.752146 2.500000 9.335687
v -3.660459 0.500000 7.659913
v -3.660459 2.500000 7.659913
v -4.155958 0.500000 6.889650
v -4.155958 2.500000 6.889650
v -2.551251 0.500000 5.695951
v -2.551251 2.500000 5.695951
v -2.962259 0.500000 8.494357
v -2.962259 2.500000 8.494357
v -1.357553 0.500000 7.300658
v -1.357553 2.500000 7.300658
v 2.914444 0.500000 10.400579
v 2.914444 4.026654 10.400579
v 2.914444 0.500000 9.900579
v 2.914444 4.026654 9.900579
v 9.801869 0.500000 10.400579
v 9.801869 4.026654 10.400579
v 9.801869 0.500000 9.900579
v 9.801869 4.026654 9.900579
v -5.623423 2.456758 7.549849
v -5.623423 3.456758 7.549849
v -4.821069 2.456758 6.953000
v -4.821069 3.456758 6.953000
v -5.026574 2.456758 8.352202
v -5.026574 3.456758 8.352202
v -4.224220 2.456758 7.755353
v -4.224220 3.456758 7.755353
v -3.441578 2.456758 6.569199
v -3.441578 3.456758 6.569199
v -2.457170 2.456758 6.393303
v -2.457170 3.456758 6.393303
v -3.265682 2.456758 7.553608
v -3.265682 3.456758 7.553608
v -2.281273 2.456758 7.377712
v -2.281273 3.456758 7.377712
v 3.406032 0.500000 1.567400
v 3.406032 2.500000 1.567400
v 4.894292 0.500000 0.231331
v 4.894292 2.500000 0.231331
v 4.742101 0.500000 3.055660
v 4.742101 2.500000 3.055660
v 6.230361 0.500000 1.719591
v 6.230361 2.500000 1.719591
v 5.625375 0.500000 1.447856
v 5.625375 2.500000 1.447856
v 5.759482 0.500000 -0.547643
v 5.759482 2.500000 -0.547643
v 7.620874 0.500000 1.581962
v 7.620874 2.500000 1.581962
v 7.754981 0.500000 -0.413536
v 7.754981 2.500000 -0.413536
v -9.691653 0.500000 0.726346
v -9.691653 4.026654 0.726346
v -9.691653 0.500000 0.226346
v -9.691653 4.026654 0.226346
v -5.194253 0.500000 0.726346
v -5.194253 4.026654 0.726346
v -5.194253 0.500000 0.226346
v -5.194253 4.026654 0.226346
v -9.691653 1.922360 0.726346
v -9.691653 1.922360 0.226346
v -5.194253 1.922360 0.226346
v -5.194253 1.922360 0.726346
v -1.976682 1.922360 0.226346
v -1.976682 0.500000 0.226346
v -1.976682 0.500000 0.726346
v -1.976682 1.922360 0.726346
v -2.964652 0.500000 0.726346
v -2.964652 1.922360 0.726346
v -2.964652 0.500000 0.226346
v -2.964652 1.922360 0.226346
v -1.976682 4.054957 0.226346
v -1.976682 4.054957 0.726346
v -2.964652 4.054957 0.226346
v -2.964652 4.054957 0.726346
v -0.647016 0.500000 4.277571
v -0.647016 2.500000 4.277571
v -0.097630 0.500000 2.354507
v -0.097630 2.500000 2.354507
v 1.276048 0.500000 4.826957
v 1.276048 2.500000 4.826957
v 1.825434 0.500000 2.903893
v 1.825434 2.500000 2.903893
v 2.465360 0.500000 -5.958233
v 2.465360 2.500000 -5.958233
v 4.429403 0.500000 -6.335774
v 4.429403 2.500000 -6.335774
v 2.842901 0.500000 -3.994191
v 2.842901 2.500000 -3.994191
v 4.806944 0.500000 -4.371732
v 4.806944 2.500000 -4.371732
v 0.208015 0.500000 -5.471514
v 0.208015 2.500000 -5.471514
v 1.895140 0.500000 -6.545576
v 1.895140 2.500000 -6.545576
v 1.282077 0.500000 -3.784389
v 1.282077 2.500000 -3.784389
v 2.969202 0.500000 -4.858451
v 2.969202 2.500000 -4.858451
v -4.751345 0.494866 -6.826943
v -4.751345 2.694867 -6.826943
v -3.188703 0.494866 -8.375540
v -3.188703 2.694867 -8.375540
v -3.202748 0.494866 -5.264301
v -3.202748 2.694867 -5.264301
v -1.640106 0.494866 -6.812898
v -1.640106 2.694867 -6.812898
v 5.123388 2.472490 1.330507
v 5.123388 3.472490 1.330507
v 5.867518 2.472490 0.662472
v 5.867518 3.472490 0.662472
v 5.791422 2.472490 2.074637
v 5.791422 3.472490 2.074637
v 6.535553 2.472490 1.406602
v 6.535553 3.472490 1.406602
v 2.914444 0.500000 -9.567524
v 2.914444 4.026654 -9.567524
v 2.914444 0.500000 -10.067524
v 2.914444 4.026654 -10.067524
v 9.801869 0.500000 -9.567524
v 9.801869 4.026654 -9.567524
v 9.801869 0.500000 -10.067524
v 9.801869 4.026654 -10.067524
v -6.559747 0.493290 -6.148301
v -6.559747 2.693290 -6.148301
v -4.997106 0.493290 -7.696898
v -4.997106 2.693290 -7.696898
v -5.011150 0.493290 -4.585659
v -5.011150 2.693290 -4.585659
v -3.448509 0.493290 -6.134255
v -3.448509 2.693290 -6.134255
v -6.984782 0.493290 -1.669268
v -6.984782 2.693290 -1.669268
v -4.977672 0.493290 -2.570106
v -4.977672 2.693290 -2.570106
v -6.083944 0.493290 0.337842
v -6.083944 2.693290 0.337842
v -4.076834 0.493290 -0.562996
v -4.076834 2.693290 -0.562996
v 0.903834 2.455770 -4.988676
v 0.903834 3.455770 -4.988676
v 1.412302 2.455770 -5.849757
v 1.412302 3.455770 -5.849757
v 1.764915 2.455770 -4.480208
v 1.764915 3.455770 -4.480208
v 2.273383 2.455770 -5.341289
v 2.273383 3.455770 -5.341289
v 2.146362 2.466808 -5.415312
v 2.151675 3.466318 -5.384470
v 3.048348 2.475334 -5.846993
v 3.053660 3.474845 -5.816152
v 2.578095 2.436696 -4.513813
v 2.583408 3.436207 -4.482972
v 3.480081 2.445223 -4.945495
v 3.485394 3.444733 -4.914653
v 3.270140 2.466808 -4.993054
v 3.291955 3.466318 -4.970615
v 3.770215 2.475334 -5.858994
v 3.792030 3.474845 -5.836555
v 4.135847 2.436696 -4.493410
v 4.157662 3.436207 -4.470970
v 4.635922 2.445223 -5.359350
v 4.657737 3.444733 -5.336910
v 4.411329 0.428271 -4.993054
v 4.433144 1.427781 -4.970615
v 4.911404 0.436797 -5.858994
v 4.933219 1.436308 -5.836555
v 5.277036 0.398159 -4.493410
v 5.298851 1.397670 -4.470970
v 5.777111 0.406686 -5.359350
v 5.798926 1.406196 -5.336910
vn -1.0000 -0.0000 -0.0000
vn -0.0000 -0.0000 -1.0000
vn 1.0000 -0.0000 -0.0000
vn -0.0000 -0.0000 1.0000
vn -0.0000 -1.0000 -0.0000
vn -0.0000 1.0000 -0.0000
vn -0.8379 -0.0000 -0.5458
vn 0.5458 -0.0000 -0.8379
vn 0.8379 -0.0000 0.5458
vn -0.5458 -0.0000 0.8379
vn -0.5968 -0.0000 -0.8024
vn 0.8024 -0.0000 -0.5968
vn 0.5968 -0.0000 0.8024
vn -0.8024 -0.0000 0.5968
vn -0.1759 -0.0000 -0.9844
vn 0.9844 -0.0000 -0.1759
vn 0.1759 -0.0000 0.9844
vn -0.9844 -0.0000 0.1759
vn -0.6680 -0.0000 -0.7441
vn 0.7441 -0.0000 -0.6680
vn 0.6680 -0.0000 0.7441
vn -0.7441 -0.0000 0.6680
vn -0.9977 -0.0000 -0.0671
vn 0.0671 -0.0000 -0.9977
vn 0.9977 -0.0000 0.0671
vn -0.0671 -0.0000 0.9977
vn -0.9615 -0.0000 -0.2747
vn 0.2747 -0.0000 -0.9615
vn 0.9615 -0.0000 0.2747
vn -0.2747 -0.0000 0.9615
vn -0.1888 -0.0000 -0.9820
vn 0.9820 -0.0000 -0.1888
vn 0.1888 -0.0000 0.9820
vn -0.9820 -0.0000 0.1888
vn -0.5370 -0.0000 -0.8436
vn 0.8436 -0.0000 -0.5370
vn 0.5370 -0.0000 0.8436
vn -0.8436 -0.0000 0.5370
vn -0.7039 -0.0000 -0.7103
vn 0.7103 -0.0000 -0.7039
vn 0.7039 -0.0000 0.7103
vn -0.7103 -0.0000 0.7039
vn -0.4095 -0.0000 -0.9123
vn 0.9123 -0.0000 -0.4095
vn 0.4095 -0.0000 0.9123
vn -0.9123 -0.0000 0.4095
vn -0.8611 -0.0000 -0.5085
vn 0.5085 -0.0000 -0.8611
vn 0.8611 -0.0000 0.5085
vn -0.5085 -0.0000 0.8611
vn -0.4317 0.0301 -0.9015
vn 0.9020 0.0085 -0.4317
vn 0.4317 -0.0301 0.9015
vn -0.9020 -0.0085 0.4317
vn -0.0053 -0.9995 -0.0308
vn 0.0053 0.9995 0.0308
vn -0.8657 0.0301 -0.4996
vn 0.5001 0.0085 -0.8659
vn 0.8657 -0.0301 0.4996
vn -0.5001 -0.0085 0.8659
vn -0.0218 -0.9995 -0.0224
vn 0.0218 0.9995 0.0224
vt 0.040427 0.445226
vt 0.040162 0.445226
vt 0.040162 0.339261
vt 0.040427 0.339261
vt 0.044797 0.409904
vt 0.044532 0.409904
vt 0.044532 0.339261
vt 0.044797 0.339261
vt 0.041652 0.445226
vt 0.041387 0.445226
vt 0.041387 0.339261
vt 0.041652 0.339261
vt 0.046022 0.409904
vt 0.045757 0.409904
vt 0.045757 0.339261
vt 0.046022 0.339261
vt 0.023487 0.339261
vt 0.023487 0.409904
vt 0.015540 0.409904
vt 0.015540 0.339261
vt 0.039202 0.339261
vt 0.039202 0.408298
vt 0.031435 0.408298
vt 0.031435 0.339261
vt 0.042612 0.339261
vt 0.042612 0.442817
vt 0.041652 0.442817
vt 0.043572 0.339261
vt 0.043572 0.442817
vt 0.043572 0.409904
vt 0.023578 0.409101
vt 0.031345 0.409101
vt 0.031435 0.409904
vt 0.031345 0.340064
vt 0.023578 0.340064
vt 0.040427 0.445226
vt 0.046982 0.339261
vt 0.046982 0.408298
vt 0.046022 0.408298
vt 0.047942 0.339261
vt 0.047942 0.408298
vt 0.039202 0.445226
vt 0.530956 0.921875
vt 0.515153 0.921875
vt 0.515153 0.859727
vt 0.530956 0.859727
vt 0.546758 0.921875
vt 0.546758 0.859727
vt 0.562561 0.921875
vt 0.562561 0.859727
vt 0.578364 0.921875
vt 0.578364 0.859727
vt 0.594166 0.859727
vt 0.594166 0.921875
vt 0.578363 0.921875
vt 0.609969 0.859727
vt 0.609969 0.921875
vt 0.524582 0.921875
vt 0.524582 0.859727
vt 0.540385 0.921875
vt 0.540385 0.859727
vt 0.556187 0.921875
vt 0.556187 0.859727
vt 0.571990 0.921875
vt 0.571990 0.859727
vt 0.578364 0.921875
vt 0.405956 0.921875
vt 0.390153 0.921875
vt 0.390153 0.859727
vt 0.405956 0.859727
vt 0.421758 0.921875
vt 0.421758 0.859727
vt 0.437561 0.921875
vt 0.437561 0.859727
vt 0.453364 0.921875
vt 0.453364 0.859727
vt 0.469166 0.859727
vt 0.469166 0.921875
vt 0.453363 0.921875
vt 0.484969 0.859727
vt 0.484969 0.921875
s 0
usemtl Material.021
f 1/1/1 9/2/1 10/3/1 3/4/1
f 3/5/2 10/6/2 11/7/2 7/8/2
f 7/9/3 11/10/3 12/11/3 5/12/3
f 5/13/4 12/14/4 9/15/4 1/16/4
f 3/17/5 7/18/5 5/19/5 1/20/5
f 8/21/6 4/22/6 2/23/6 6/24/6
f 2/25/3 4/26/3 18/27/3 17/12/3
f 8/28/1 6/29/1 20/26/1 19/25/1
f 11/7/2 10/6/2 14/30/2 15/28/2
f 9/15/4 12/14/4 16/5/4 13/8/4
f 17/31/6 18/32/6 14/33/6 13/18/6
f 18/32/6 19/34/6 15/24/6 14/33/6
f 19/34/6 20/35/6 16/17/6 15/24/6
f 20/35/6 17/31/6 13/18/6 16/17/6
f 12/11/3 11/10/3 15/36/3 16/4/3
f 6/37/2 2/38/2 17/39/2 20/16/2
f 4/40/4 8/41/4 19/38/4 18/37/4
f 10/3/1 9/2/1 13/42/1 14/21/1
usemtl Material.001
f 21/43/7 22/44/7 24/45/7 23/46/7
f 23/47/8 24/43/8 28/46/8 27/48/8
f 27/49/9 28/47/9 26/48/9 25/50/9
f 25/51/10 26/49/10 22/50/10 21/52/10
f 23/53/5 27/54/5 25/55/5 21/52/5
f 28/56/6 24/57/6 22/54/6 26/53/6
usemtl Material.002
f 29/43/11 30/44/11 32/45/11 31/46/11
f 31/47/12 32/43/12 36/46/12 35/48/12
f 35/49/13 36/47/13 34/48/13 33/50/13
f 33/51/14 34/49/14 30/50/14 29/52/14
f 31/53/5 35/54/5 33/55/5 29/52/5
f 36/56/6 32/57/6 30/54/6 34/53/6
usemtl Material.003
f 37/43/1 38/44/1 40/45/1 39/46/1
f 39/47/2 40/43/2 44/46/2 43/48/2
f 43/49/3 44/47/3 42/48/3 41/50/3
f 41/51/4 42/49/4 38/50/4 37/52/4
f 39/53/5 43/54/5 41/55/5 37/52/5
f 44/56/6 40/57/6 38/54/6 42/53/6
usemtl Material.004
f 45/43/11 46/44/11 48/45/11 47/46/11
f 47/47/12 48/43/12 52/46/12 51/48/12
f 51/49/13 52/47/13 50/48/13 49/50/13
f 49/51/14 50/49/14 46/50/14 45/52/14
f 47/53/5 51/54/5 49/55/5 45/52/5
f 52/56/6 48/57/6 46/54/6 50/53/6
usemtl Material.005
f 53/43/15 54/44/15 56/45/15 55/46/15
f 55/47/16 56/43/16 60/46/16 59/48/16
f 59/49/17 60/47/17 58/48/17 57/50/17
f 57/51/18 58/49/18 54/50/18 53/52/18
f 55/53/5 59/54/5 57/55/5 53/52/5
f 60/56/6 56/57/6 54/54/6 58/53/6
usemtl Material.006
f 61/43/19 62/44/19 64/45/19 63/46/19
f 63/47/20 64/43/20 68/46/20 67/48/20
f 67/49/21 68/47/21 66/48/21 65/50/21
f 65/51/22 66/49/22 62/50/22 61/52/22
f 63/53/5 67/54/5 65/55/5 61/52/5
f 68/56/6 64/57/6 62/54/6 66/53/6
usemtl Material.007
f 69/43/23 70/44/23 72/45/23 71/46/23
f 71/47/24 72/43/24 76/46/24 75/48/24
f 75/49/25 76/47/25 74/48/25 73/50/25
f 73/51/26 74/49/26 70/50/26 69/52/26
f 71/53/5 75/54/5 73/55/5 69/52/5
f 76/56/6 72/57/6 70/54/6 74/53/6
usemtl Material.008
f 85/58/1 78/44/1 80/45/1 86/59/1
f 86/60/2 80/43/2 84/46/2 87/61/2
f 87/62/3 84/47/3 82/48/3 88/63/3
f 88/64/4 82/49/4 78/50/4 85/65/4
f 79/53/5 83/54/5 81/55/5 77/52/5
f 84/56/6 80/57/6 78/54/6 82/53/6
f 81/51/4 88/64/4 85/65/4 77/52/4
f 94/64/4 93/66/4 91/51/4 92/64/4
f 79/47/2 86/60/2 87/61/2 83/48/2
f 77/43/1 85/58/1 86/59/1 79/46/1
f 90/49/3 89/62/3 92/63/3 91/50/3
f 93/66/5 95/54/5 90/54/5 91/55/5
f 95/48/2 96/61/2 89/61/2 90/48/2
f 94/64/4 92/64/4 98/64/4 100/64/4
f 87/62/6 88/63/6 94/63/6 96/62/6
f 83/48/2 87/61/2 96/61/2 95/48/2
f 81/55/5 83/54/5 95/54/5 93/66/5
f 88/64/4 81/51/4 93/66/4 94/64/4
f 99/62/6 100/63/6 98/63/6 97/62/6
f 89/61/2 96/61/2 99/61/2 97/61/2
f 92/63/3 89/62/3 97/62/3 98/63/3
f 96/62/1 94/63/1 100/63/1 99/62/1
usemtl Material.009
f 101/43/27 102/44/27 104/45/27 103/46/27
f 103/47/28 104/43/28 108/46/28 107/48/28
f 107/49/29 108/47/29 106/48/29 105/50/29
f 105/51/30 106/49/30 102/50/30 101/52/30
f 103/53/5 107/54/5 105/55/5 101/52/5
f 108/56/6 104/57/6 102/54/6 106/53/6
usemtl Material.010
f 109/67/31 110/68/31 112/69/31 111/70/31
f 111/71/32 112/67/32 116/70/32 115/72/32
f 115/73/33 116/71/33 114/72/33 113/74/33
f 113/75/34 114/73/34 110/74/34 109/76/34
f 111/77/5 115/78/5 113/79/5 109/76/5
f 116/80/6 112/81/6 110/78/6 114/77/6
usemtl Material.011
f 117/67/35 118/68/35 120/69/35 119/70/35
f 119/71/36 120/67/36 124/70/36 123/72/36
f 123/73/37 124/71/37 122/72/37 121/74/37
f 121/75/38 122/73/38 118/74/38 117/76/38
f 119/77/5 123/78/5 121/79/5 117/76/5
f 124/80/6 120/81/6 118/78/6 122/77/6
usemtl Material.012
f 125/67/39 126/68/39 128/69/39 127/70/39
f 127/71/40 128/67/40 132/70/40 131/72/40
f 131/73/41 132/71/41 130/72/41 129/74/41
f 129/75/42 130/73/42 126/74/42 125/76/42
f 127/77/5 131/78/5 129/79/5 125/76/5
f 132/80/6 128/81/6 126/78/6 130/77/6
usemtl Material.013
f 133/43/19 134/44/19 136/45/19 135/46/19
f 135/47/20 136/43/20 140/46/20 139/48/20
f 139/49/21 140/47/21 138/48/21 137/50/21
f 137/51/22 138/49/22 134/50/22 133/52/22
f 135/53/5 139/54/5 137/55/5 133/52/5
f 140/56/6 136/57/6 134/54/6 138/53/6
usemtl Material.014
f 141/67/1 142/68/1 144/69/1 143/70/1
f 143/71/2 144/67/2 148/70/2 147/72/2
f 147/73/3 148/71/3 146/72/3 145/74/3
f 145/75/4 146/73/4 142/74/4 141/76/4
f 143/77/5 147/78/5 145/79/5 141/76/5
f 148/80/6 144/81/6 142/78/6 146/77/6
usemtl Material.015
f 149/67/39 150/68/39 152/69/39 151/70/39
f 151/71/40 152/67/40 156/70/40 155/72/40
f 155/73/41 156/71/41 154/72/41 153/74/41
f 153/75/42 154/73/42 150/74/42 149/76/42
f 151/77/5 155/78/5 153/79/5 149/76/5
f 156/80/6 152/81/6 150/78/6 154/77/6
usemtl Material.016
f 157/67/43 158/68/43 160/69/43 159/70/43
f 159/71/44 160/67/44 164/70/44 163/72/44
f 163/73/45 164/71/45 162/72/45 161/74/45
f 161/75/46 162/73/46 158/74/46 157/76/46
f 159/77/5 163/78/5 161/79/5 157/76/5
f 164/80/6 160/81/6 158/78/6 162/77/6
usemtl Material.017
f 165/67/47 166/68/47 168/69/47 167/70/47
f 167/71/48 168/67/48 172/70/48 171/72/48
f 171/73/49 172/71/49 170/72/49 169/74/49
f 169/75/50 170/73/50 166/74/50 165/76/50
f 167/77/5 171/78/5 169/79/5 165/76/5
f 172/80/6 168/81/6 166/78/6 170/77/6
usemtl Material.018
f 173/67/51 174/68/51 176/69/51 175/70/51
f 175/71/52 176/67/52 180/70/52 179/72/52
f 179/73/53 180/71/53 178/72/53 177/74/53
f 177/75/54 178/73/54 174/74/54 173/76/54
f 175/77/55 179/78/55 177/79/55 173/76/55
f 180/80/56 176/81/56 174/78/56 178/77/56
usemtl Material.019
f 181/67/57 182/68/57 184/69/57 183/70/57
f 183/71/58 184/67/58 188/70/58 187/72/58
f 187/73/59 188/71/59 186/72/59 185/74/59
f 185/75/60 186/73/60 182/74/60 181/76/60
f 183/77/61 187/78/61 185/79/61 181/76/61
f 188/80/62 184/81/62 182/78/62 186/77/62
usemtl Material.020
f 189/67/57 190/68/57 192/69/57 191/70/57
f 191/71/58 192/67/58 196/70/58 195/72/58
f 195/73/59 196/71/59 194/72/59 193/74/59
f 193/75/60 194/73/60 190/74/60 189/76/60
f 191/77/61 195/78/61 193/79/61 189/76/61
f 196/80/62 192/81/62 190/78/62 194/77/62
