# Blender 4.1.1
# www.blender.org
mtllib indirect_light_01.mtl
o Cube
v 6.000000 1.000000 -7.328027
v 6.000000 -1.000000 -7.328027
v 6.000000 1.000000 7.495748
v 6.000000 -1.000000 7.495748
v -7.408354 1.000000 -7.328027
v -7.408354 -1.000000 -7.328027
v -7.408354 1.000000 7.495748
v -7.408354 -1.000000 7.495748
v -7.408354 -1.000000 4.800000
v 6.000000 1.000000 4.800000
v -7.408354 1.000000 4.800000
v 6.000000 -1.000000 4.800000
v -4.800000 -1.000000 -7.328027
v -4.800000 1.000000 7.495748
v -4.800000 -1.000000 7.495748
v -4.800000 1.000000 -7.328027
v -4.800000 -1.000000 4.800000
v -4.800000 1.000000 4.800000
v -7.408354 1.000000 -4.800000
v 6.000000 -1.000000 -4.800000
v -7.408354 -1.000000 -4.800000
v 6.000000 1.000000 -4.800000
v -4.800000 1.000000 -4.800000
v -4.800000 -1.000000 -4.800000
v 4.800000 -1.000000 7.495748
v 4.800000 1.000000 -7.328027
v 4.800000 1.000000 4.800000
v 4.800000 -1.000000 -7.328027
v 4.800000 1.000000 7.495748
v 4.800000 -1.000000 4.800000
v 4.800000 1.000000 -4.800000
v 4.800000 -1.000000 -4.800000
v -7.408354 -1.000000 2.700000
v 6.000000 1.000000 2.700000
v -4.800000 1.000000 2.700000
v -4.800000 -1.000000 2.700000
v -7.408354 1.000000 2.700000
v 6.000000 -1.000000 2.700000
v 4.800000 1.000000 2.700000
v 4.800000 -1.000000 2.700000
v -7.408354 1.000000 -2.700000
v 6.000000 -1.000000 -2.700000
v -7.408354 -1.000000 -2.700000
v 6.000000 1.000000 -2.700000
v -4.800000 1.000000 -2.700000
v -4.800000 -1.000000 -2.700000
v 4.800000 1.000000 -2.700000
v 4.800000 -1.000000 -2.700000
v -4.800000 7.099676 7.495747
v -7.408354 7.099676 7.495747
v 6.000000 7.099676 4.800000
v 6.000000 7.099676 7.495747
v -7.408354 7.099675 -4.800001
v -7.408354 7.099675 -7.328027
v 4.800000 7.099675 -7.328027
v 6.000000 7.099675 -7.328027
v 6.000000 7.099675 2.700000
v -7.408354 7.099676 4.800000
v 4.800000 7.099676 4.800000
v 4.800000 7.099676 7.495747
v -4.800000 7.099675 -7.328027
v -4.800000 7.099676 4.800000
v -4.800000 7.099675 2.700000
v -7.408354 7.099675 -2.700001
v 6.000000 7.099675 -4.800001
v -4.800000 7.099675 -4.800001
v 4.800000 7.099675 -4.800001
v 4.800000 7.099675 2.700000
v -4.800000 7.099675 -2.700001
v -7.408354 7.099675 2.700000
v 6.000000 7.099675 -2.700001
v 4.800000 7.099675 -2.700001
v 6.000000 4.967287 -2.700001
v 6.000000 4.967287 -4.800001
v -7.408354 4.967287 2.700000
v -7.408354 4.967288 4.800000
v 4.800000 4.967287 2.700000
v 4.800000 4.967288 4.800000
v -4.800000 4.967288 4.800000
v -4.800000 4.967287 2.700000
v 4.800000 4.967288 7.495747
v 6.000000 4.967288 7.495747
v 6.000000 4.967287 -7.328027
v 4.800000 4.967287 -4.800001
v -4.800000 4.967287 -4.800001
v 6.000000 4.967287 2.700000
v 6.000000 4.967288 4.800000
v -4.800000 4.967287 -2.700001
v -4.800000 4.967288 7.495747
v -7.408354 4.967288 7.495747
v 4.800000 4.967287 -2.700001
v -4.800000 4.967287 -7.328027
v 4.800000 4.967287 -7.328027
v -7.408354 4.967287 -7.328027
v -7.408354 4.967287 -4.800001
v -7.408354 4.967287 -2.700001
v 5.994001 4.967287 2.700000
v 5.994001 7.099675 2.700000
v 5.994001 7.099676 4.800000
v 5.994001 7.099675 -2.700001
v 5.994001 7.099675 -4.800001
v 5.994001 4.967288 4.800000
v 5.994001 4.967287 -4.800001
v 5.994001 4.967287 -2.700001
v 16.199999 1.000000 -7.328027
v 16.199999 -1.000000 -7.328027
v 16.199999 1.000000 7.495748
v 16.199999 -1.000000 7.495748
v 16.199999 1.000000 4.800000
v 16.199999 -1.000000 -4.800000
v 16.199999 1.000000 2.700000
v 16.199999 -1.000000 4.800000
v 16.199999 -1.000000 -2.700000
v 16.199999 1.000000 -4.800000
v 16.199999 1.000000 -2.700000
v 16.199999 -1.000000 2.700000
vn -0.0000 -0.0000 1.0000
vn -1.0000 -0.0000 -0.0000
vn -0.0000 -1.0000 -0.0000
vn -0.0000 1.0000 -0.0000
vn -0.0000 -0.0000 -1.0000
vn 1.0000 -0.0000 -0.0000
vt 0.625000 0.972346
vt 0.625000 0.769038
vt 0.375000 0.972346
vt 0.625000 1.000000
vt 0.375000 1.000000
vt 0.375000 0.225352
vt 0.625000 0.225352
vt 0.625000 0.250000
vt 0.375000 0.250000
vt 0.355962 0.735510
vt 0.375000 0.735510
vt 0.375000 0.750000
vt 0.355962 0.750000
vt 0.625000 0.524648
vt 0.625000 0.578564
vt 0.375000 0.480962
vt 0.625000 0.480962
vt 0.625000 0.500000
vt 0.375000 0.500000
vt 0.625000 0.750000
vt 0.355962 0.688991
vt 0.375000 0.688991
vt 0.375000 0.000000
vt 0.625000 0.000000
vt 0.625000 0.014490
vt 0.375000 0.014490
vt 0.644038 0.688991
vt 0.847346 0.688991
vt 0.847346 0.735510
vt 0.644038 0.735510
vt 0.125000 0.688991
vt 0.152654 0.688991
vt 0.152654 0.735510
vt 0.125000 0.735510
vt 0.625000 0.277654
vt 0.375000 0.277654
vt 0.152654 0.750000
vt 0.125000 0.750000
vt 0.375000 0.769038
vt 0.847346 0.524648
vt 0.847346 0.578564
vt 0.125000 0.500000
vt 0.152654 0.500000
vt 0.152654 0.524648
vt 0.125000 0.524648
vt 0.625000 0.735510
vt 0.625000 0.688991
vt 0.644038 0.524648
vt 0.355962 0.500000
vt 0.375000 0.524648
vt 0.355962 0.524648
vt 0.375000 0.171436
vt 0.625000 0.171436
vt 0.625000 0.061009
vt 0.152654 0.578564
vt 0.355962 0.578564
vt 0.644038 0.578564
vt 0.375000 0.061009
vt 0.125000 0.578564
vt 0.375000 0.578564
vt 0.875000 0.735510
vt 0.875000 0.750000
vt 0.847346 0.750000
vt 0.875000 0.688991
vt 0.644038 0.750000
vt 0.644038 0.500000
vt 0.847346 0.500000
vt 0.875000 0.500000
vt 0.875000 0.524648
vt 0.875000 0.578564
s 0
usemtl Material.001
f 89/1/1 81/2/1 60/2/1 49/1/1
f 15/3/1 14/1/1 7/4/1 8/5/1
f 21/6/2 19/7/2 5/8/2 6/9/2
f 30/10/3 12/11/3 4/12/3 25/13/3
f 22/14/4 44/15/4 115/15/4 114/14/4
f 28/16/5 26/17/5 1/18/5 2/19/5
f 3/20/1 4/12/1 108/12/1 107/20/1
f 40/21/3 38/22/3 12/11/3 30/10/3
f 8/23/2 7/24/2 11/25/2 9/26/2
f 90/4/1 89/1/1 49/1/1 50/4/1
f 39/27/4 35/28/4 18/29/4 27/30/4
f 33/31/3 36/32/3 17/33/3 9/34/3
f 6/9/5 5/8/5 16/35/5 13/36/5
f 9/34/3 17/33/3 15/37/3 8/38/3
f 25/39/1 29/2/1 14/1/1 15/3/1
f 66/40/4 69/41/4 100/41/4 101/40/4
f 6/42/3 13/43/3 24/44/3 21/45/3
f 87/46/6 86/47/6 57/47/6 51/46/6
f 85/40/1 84/48/1 67/48/1 66/40/1
f 28/49/3 2/19/3 20/50/3 32/51/3
f 12/11/3 38/22/3 116/22/3 112/11/3
f 43/52/2 41/53/2 19/7/2 21/6/2
f 13/43/3 28/49/3 32/51/3 24/44/3
f 74/14/6 83/18/6 56/18/6 65/14/6
f 73/15/6 74/14/6 65/14/6 71/15/6
f 4/12/1 3/20/1 29/2/1 25/39/1
f 75/54/2 76/25/2 58/25/2 70/54/2
f 36/32/3 40/21/3 30/10/3 17/33/3
f 13/36/5 16/35/5 26/17/5 28/16/5
f 17/33/3 30/10/3 25/13/3 15/37/3
f 46/55/3 48/56/3 40/21/3 36/32/3
f 44/15/4 47/57/4 39/27/4 34/47/4
f 9/26/2 11/25/2 37/54/2 33/58/2
f 43/59/3 46/55/3 36/32/3 33/31/3
f 47/57/4 45/41/4 35/28/4 39/27/4
f 77/27/2 78/30/2 59/30/2 68/27/2
f 48/56/3 42/60/3 38/22/3 40/21/3
f 10/46/4 3/20/4 107/20/4 109/46/4
f 44/15/4 34/47/4 111/47/4 115/15/4
f 32/51/3 20/50/3 42/60/3 48/56/3
f 62/29/1 79/29/1 102/29/1 99/29/1
f 31/48/4 23/40/4 45/41/4 47/57/4
f 21/45/3 24/44/3 46/55/3 43/59/3
f 81/2/1 82/20/1 52/20/1 60/2/1
f 24/44/3 32/51/3 48/56/3 46/55/3
f 33/58/2 37/54/2 41/53/2 43/52/2
f 62/29/4 58/61/4 50/62/4 49/63/4
f 63/28/4 70/64/4 58/61/4 62/29/4
f 59/30/4 62/29/4 49/63/4 60/65/4
f 55/66/4 61/67/4 66/40/4 67/48/4
f 61/67/4 54/68/4 53/69/4 66/40/4
f 56/18/4 55/66/4 67/48/4 65/14/4
f 51/46/4 59/30/4 60/65/4 52/20/4
f 57/47/4 68/27/4 59/30/4 51/46/4
f 69/41/4 64/70/4 70/64/4 63/28/4
f 66/40/4 53/69/4 64/70/4 69/41/4
f 65/14/4 67/48/4 72/57/4 71/15/4
f 76/25/2 90/24/2 50/24/2 58/25/2
f 82/20/6 87/46/6 51/46/6 52/20/6
f 91/57/1 73/15/1 71/15/1 72/57/1
f 84/48/2 91/57/2 72/57/2 67/48/2
f 93/17/5 92/35/5 61/35/5 55/17/5
f 92/35/5 94/8/5 54/8/5 61/35/5
f 94/8/2 95/7/2 53/7/2 54/8/2
f 78/30/5 79/29/5 62/29/5 59/30/5
f 96/53/2 75/54/2 70/54/2 64/53/2
f 86/47/5 77/27/5 68/27/5 57/47/5
f 95/7/2 96/53/2 64/53/2 53/7/2
f 83/18/5 93/17/5 55/17/5 56/18/5
f 63/28/4 62/29/4 99/29/4 98/28/4
f 35/28/6 45/41/6 88/41/6 80/28/6
f 1/18/5 26/17/5 93/17/5 83/18/5
f 19/7/2 41/53/2 96/53/2 95/7/2
f 34/47/5 39/27/5 77/27/5 86/47/5
f 41/53/2 37/54/2 75/54/2 96/53/2
f 27/30/5 18/29/5 79/29/5 78/30/5
f 5/8/2 19/7/2 95/7/2 94/8/2
f 16/35/5 5/8/5 94/8/5 92/35/5
f 26/17/5 16/35/5 92/35/5 93/17/5
f 31/48/2 47/57/2 91/57/2 84/48/2
f 47/57/1 44/15/1 73/15/1 91/57/1
f 3/20/6 10/46/6 87/46/6 82/20/6
f 11/25/2 7/24/2 90/24/2 76/25/2
f 29/2/1 3/20/1 82/20/1 81/2/1
f 18/29/6 35/28/6 80/28/6 79/29/6
f 39/27/2 27/30/2 78/30/2 77/27/2
f 37/54/2 11/25/2 76/25/2 75/54/2
f 44/15/6 22/14/6 74/14/6 73/15/6
f 22/14/6 1/18/6 83/18/6 74/14/6
f 23/40/1 31/48/1 84/48/1 85/40/1
f 10/46/6 34/47/6 86/47/6 87/46/6
f 45/41/6 23/40/6 85/40/6 88/41/6
f 7/4/1 14/1/1 89/1/1 90/4/1
f 14/1/1 29/2/1 81/2/1 89/1/1
f 104/41/6 103/40/6 101/40/6 100/41/6
f 102/29/6 97/28/6 98/28/6 99/29/6
f 97/28/6 104/41/6 100/41/6 98/28/6
f 80/28/3 88/41/3 104/41/3 97/28/3
f 69/41/4 63/28/4 98/28/4 100/41/4
f 79/29/3 80/28/3 97/28/3 102/29/3
f 88/41/3 85/40/3 103/40/3 104/41/3
f 85/40/5 66/40/5 101/40/5 103/40/5
f 112/11/6 109/46/6 107/20/6 108/12/6
f 116/22/6 111/47/6 109/46/6 112/11/6
f 106/19/6 105/18/6 114/14/6 110/50/6
f 113/60/6 115/15/6 111/47/6 116/22/6
f 110/50/6 114/14/6 115/15/6 113/60/6
f 20/50/3 2/19/3 106/19/3 110/50/3
f 1/18/4 22/14/4 114/14/4 105/18/4
f 4/12/3 12/11/3 112/11/3 108/12/3
f 2/19/5 1/18/5 105/18/5 106/19/5
f 38/22/3 42/60/3 113/60/3 116/22/3
f 42/60/3 20/50/3 110/50/3 113/60/3
f 34/47/4 10/46/4 109/46/4 111/47/4
