# Blender 4.1.1
# www.blender.org
mtllib lightingTest.mtl
o Cube
v 6.000000 -0.500000 -5.000000
v 6.000000 -1.000000 -5.000000
v 6.000000 -0.500000 5.000000
v 6.000000 -1.000000 5.000000
v -6.000000 -0.500000 -5.000000
v -6.000000 -1.000000 -5.000000
v -6.000000 -0.500000 5.000000
v -6.000000 -1.000000 5.000000
v -6.000000 -1.000000 -4.500000
v 6.000000 -0.500000 -4.500000
v -6.000000 -0.500000 -4.500000
v 6.000000 -1.000000 -4.500000
v -6.000000 -1.000000 4.500000
v 6.000000 -0.500000 4.500000
v -6.000000 -0.500000 4.500000
v 6.000000 -1.000000 4.500000
v -5.500000 -1.000000 -5.000000
v -5.500000 -0.500000 5.000000
v -5.500000 -1.000000 5.000000
v -5.500000 -0.500000 -5.000000
v -5.500000 -1.000000 -4.500000
v -5.500000 -0.500000 -4.500000
v -5.500000 -1.000000 4.500000
v -5.500000 -0.500000 4.500000
v 5.500000 -1.000000 5.000000
v 5.500000 -0.500000 -5.000000
v 5.500000 -0.500000 -4.500000
v 5.500000 -0.500000 4.500000
v 5.500000 -1.000000 -5.000000
v 5.500000 -0.500000 5.000000
v 5.500000 -1.000000 -4.500000
v 5.500000 -1.000000 4.500000
v -6.000000 -0.500000 -2.500000
v 6.000000 -1.000000 -2.500000
v -6.000000 -1.000000 -2.500000
v 6.000000 -0.500000 -2.500000
v -5.500000 -0.500000 -2.500000
v -5.500000 -1.000000 -2.500000
v 5.500000 -0.500000 -2.500000
v 5.500000 -1.000000 -2.500000
v -6.000000 -1.000000 -1.000000
v 6.000000 -0.500000 -1.000000
v -5.500000 -0.500000 -1.000000
v -5.500000 -1.000000 -1.000000
v 5.500000 -0.500000 -1.000000
v 5.500000 -1.000000 -1.000000
v -6.000000 -0.500000 -1.000000
v 6.000000 -1.000000 -1.000000
v -4.000000 -1.000000 -5.000000
v -4.000000 -0.500000 5.000000
v -4.000000 -1.000000 -4.500000
v -4.000000 -1.000000 4.500000
v -4.000000 -1.000000 5.000000
v -4.000000 -0.500000 -5.000000
v -4.000000 -0.500000 -4.500000
v -4.000000 -0.500000 4.500000
v -4.000000 -1.000000 -2.500000
v -4.000000 -0.500000 -2.500000
v -4.000000 -1.000000 -1.000000
v -4.000000 -0.500000 -1.000000
v 4.000000 -1.000000 5.000000
v 4.000000 -0.500000 -5.000000
v 4.000000 -0.500000 -4.500000
v 4.000000 -0.500000 4.500000
v 4.000000 -0.500000 -2.500000
v 4.000000 -0.500000 -1.000000
v 4.000000 -1.000000 -5.000000
v 4.000000 -0.500000 5.000000
v 4.000000 -1.000000 -4.500000
v 4.000000 -1.000000 4.500000
v 4.000000 -1.000000 -2.500000
v 4.000000 -1.000000 -1.000000
v 2.500000 -1.000000 -5.000000
v 2.500000 -0.500000 5.000000
v 2.500000 -1.000000 -4.500000
v 2.500000 -1.000000 4.500000
v 2.500000 -1.000000 -2.500000
v 2.500000 -1.000000 -1.000000
v 2.500000 -1.000000 5.000000
v 2.500000 -0.500000 -5.000000
v 2.500000 -0.500000 -4.500000
v 2.500000 -0.500000 4.500000
v 2.500000 -0.500000 -2.500000
v 2.500000 -0.500000 -1.000000
v -2.500000 -1.000000 -5.000000
v -2.500000 -0.500000 5.000000
v -2.500000 -1.000000 -4.500000
v -2.500000 -1.000000 4.500000
v -2.500000 -1.000000 -2.500000
v -2.500000 -1.000000 -1.000000
v -2.500000 -1.000000 5.000000
v -2.500000 -0.500000 -5.000000
v -2.500000 -0.500000 -4.500000
v -2.500000 -0.500000 4.500000
v -2.500000 -0.500000 -2.500000
v -2.500000 -0.500000 -1.000000
v -6.000000 -1.000000 1.500000
v 6.000000 -0.500000 1.500000
v -5.500000 -0.500000 1.500000
v -5.500000 -1.000000 1.500000
v 5.500000 -0.500000 1.500000
v 5.500000 -1.000000 1.500000
v -6.000000 -0.500000 1.500000
v 6.000000 -1.000000 1.500000
v -4.000000 -1.000000 1.500000
v -4.000000 -0.500000 1.500000
v 4.000000 -0.500000 1.500000
v 4.000000 -1.000000 1.500000
v 2.500000 -1.000000 1.500000
v 2.500000 -0.500000 1.500000
v -2.500000 -1.000000 1.500000
v -2.500000 -0.500000 1.500000
v -6.000000 -1.000000 2.250000
v 6.000000 -0.500000 2.250000
v -5.500000 -0.500000 2.250000
v -5.500000 -1.000000 2.250000
v 5.500000 -0.500000 2.250000
v 5.500000 -1.000000 2.250000
v -4.000000 -1.000000 2.250000
v -4.000000 -0.500000 2.250000
v 4.000000 -0.500000 2.250000
v 4.000000 -1.000000 2.250000
v 2.500000 -1.000000 2.250000
v 2.500000 -0.500000 2.250000
v -2.500000 -1.000000 2.250000
v -2.500000 -0.500000 2.250000
v -6.000000 -0.500000 2.250000
v 6.000000 -1.000000 2.250000
v -4.000000 0.500000 -2.500000
v -4.000000 0.500000 -1.000000
v 2.500000 0.500000 -2.500000
v 4.000000 0.500000 -2.500000
v 2.500000 0.500000 -1.000000
v 4.000000 0.500000 -1.000000
v -2.500000 0.500000 -2.500000
v -2.500000 0.500000 -1.000000
v -5.500000 2.999999 5.000000
v -6.000000 2.999999 5.000000
v 6.000000 2.999999 4.500000
v 6.000000 2.999999 5.000000
v -6.000000 2.999999 -4.500000
v -6.000000 2.999999 -5.000000
v 5.500000 2.999999 -5.000000
v 6.000000 2.999999 -5.000000
v 6.000000 2.999999 -4.500000
v -6.000000 2.999999 -2.500000
v 5.500000 2.999999 -4.500000
v 6.000000 2.999999 2.250000
v -6.000000 2.999999 4.500000
v 5.500000 2.999999 4.500000
v -4.000000 2.999999 5.000000
v -5.500000 2.999999 -5.000000
v -5.500000 2.999999 -4.500000
v -5.500000 2.999999 4.500000
v -5.500000 2.999999 2.250000
v 4.000000 2.999999 -5.000000
v 4.000000 2.999999 -4.500000
v 4.000000 2.999999 4.500000
v 5.500000 2.999999 5.000000
v 5.500000 2.999999 2.250000
v -6.000000 2.999999 -1.000000
v 6.000000 2.999999 -2.500000
v -5.500000 2.999999 -2.500000
v 5.500000 2.999999 -2.500000
v 6.000000 2.999999 -1.000000
v -5.500000 2.999999 -1.000000
v 5.500000 2.999999 -1.000000
v -6.000000 2.999999 1.500000
v -2.500000 2.999999 5.000000
v -4.000000 2.999999 -5.000000
v -4.000000 2.999999 -4.500000
v -4.000000 2.999999 4.500000
v 2.500000 2.999999 -5.000000
v 2.500000 2.999999 -4.500000
v 2.500000 2.999999 4.500000
v 4.000000 2.999999 5.000000
v 2.500000 2.999999 5.000000
v -2.500000 2.999999 -5.000000
v -2.500000 2.999999 -4.500000
v -2.500000 2.999999 4.500000
v 6.000000 2.999999 1.500000
v -5.500000 2.999999 1.500000
v 5.500000 2.999999 1.500000
v -6.000000 2.999999 2.250000
v -4.000000 3.000000 1.500000
v -2.500000 3.000000 1.500000
v -5.500000 3.000000 1.500000
v -5.500000 3.000000 2.250000
v -4.000000 3.000000 2.250000
v -2.500000 3.000000 2.250000
vn -1.0000 -0.0000 -0.0000
vn -0.0000 -0.0000 1.0000
vn -0.0000 -1.0000 -0.0000
vn 1.0000 -0.0000 -0.0000
vn -0.0000 -0.0000 -1.0000
vn -0.0000 1.0000 -0.0000
vt 0.639507 0.670152
vt 0.639507 0.649385
vt 0.625000 0.994118
vt 0.375000 1.000000
vt 0.375000 0.994118
vt 0.625000 0.243627
vt 0.375000 0.250000
vt 0.375000 0.243627
vt 0.375000 0.732455
vt 0.360493 0.750000
vt 0.360493 0.732455
vt 0.625000 0.732455
vt 0.375000 0.750000
vt 0.625000 0.485493
vt 0.375000 0.500000
vt 0.375000 0.485493
vt 0.625000 0.500000
vt 0.375000 0.506373
vt 0.360493 0.506373
vt 0.360493 0.500000
vt 0.625000 0.195097
vt 0.375000 0.195097
vt 0.625000 0.506373
vt 0.625000 0.554903
vt 0.625000 0.000000
vt 0.375000 0.017545
vt 0.375000 0.000000
vt 0.625000 0.670152
vt 0.375000 0.670153
vt 0.360493 0.670153
vt 0.869118 0.670153
vt 0.869118 0.732455
vt 0.836105 0.732455
vt 0.836105 0.670153
vt 0.130882 0.670152
vt 0.125000 0.732455
vt 0.125000 0.670153
vt 0.625000 0.250000
vt 0.130882 0.500000
vt 0.125000 0.506373
vt 0.125000 0.500000
vt 0.375000 0.255882
vt 0.130882 0.732455
vt 0.125000 0.750000
vt 0.625000 0.961105
vt 0.375000 0.961105
vt 0.625000 0.750000
vt 0.625000 0.764507
vt 0.625000 0.017545
vt 0.375000 0.764507
vt 0.869118 0.649385
vt 0.331150 0.732455
vt 0.331150 0.670153
vt 0.331150 0.506373
vt 0.331150 0.500000
vt 0.625000 0.456150
vt 0.375000 0.456150
vt 0.331150 0.750000
vt 0.331150 0.554903
vt 0.130882 0.506373
vt 0.125000 0.554903
vt 0.869118 0.506373
vt 0.836105 0.554903
vt 0.836105 0.506373
vt 0.625000 0.793850
vt 0.625000 0.834188
vt 0.360493 0.554903
vt 0.375000 0.554903
vt 0.625000 0.151603
vt 0.375000 0.151603
vt 0.625000 0.100615
vt 0.375000 0.100615
vt 0.331150 0.598397
vt 0.668850 0.732455
vt 0.639507 0.732455
vt 0.130882 0.554903
vt 0.125000 0.598397
vt 0.869118 0.554903
vt 0.836105 0.598397
vt 0.625000 0.649385
vt 0.360493 0.598397
vt 0.375000 0.598397
vt 0.668850 0.598397
vt 0.709188 0.598397
vt 0.163895 0.554903
vt 0.130882 0.598397
vt 0.801157 0.554903
vt 0.801157 0.506373
vt 0.163895 0.506373
vt 0.163895 0.732455
vt 0.130882 0.750000
vt 0.625000 0.255882
vt 0.375000 0.288895
vt 0.163895 0.500000
vt 0.163895 0.670152
vt 0.625000 0.926157
vt 0.375000 0.926157
vt 0.625000 0.079847
vt 0.801157 0.732455
vt 0.801157 0.670153
vt 0.668850 0.670152
vt 0.375000 0.793850
vt 0.625000 1.000000
vt 0.668850 0.506373
vt 0.639507 0.554903
vt 0.639507 0.506373
vt 0.668850 0.554903
vt 0.639507 0.598397
vt 0.290812 0.598397
vt 0.290812 0.554903
vt 0.290812 0.506373
vt 0.290812 0.750000
vt 0.290812 0.732455
vt 0.375000 0.415812
vt 0.290812 0.500000
vt 0.290812 0.670153
vt 0.198843 0.732455
vt 0.198843 0.670152
vt 0.198843 0.506373
vt 0.198843 0.500000
vt 0.625000 0.323843
vt 0.375000 0.323843
vt 0.198843 0.750000
vt 0.198843 0.554903
vt 0.198843 0.598397
vt 0.709188 0.670152
vt 0.375000 0.834188
vt 0.709188 0.506373
vt 0.801157 0.598397
vt 0.163895 0.598397
vt 0.163895 0.750000
vt 0.625000 0.288895
vt 0.709188 0.732455
vt 0.709188 0.554903
vt 0.709188 0.649385
vt 0.163895 0.649385
vt 0.668850 0.649385
vt 0.198843 0.649385
vt 0.290812 0.649385
vt 0.801157 0.649385
vt 0.130882 0.649385
vt 0.375000 0.079847
vt 0.331150 0.649385
vt 0.125000 0.649385
vt 0.869118 0.598397
vt 0.836105 0.649385
vt 0.360493 0.649385
vt 0.625000 0.598397
vt 0.375000 0.649385
vt 0.875000 0.732455
vt 0.869118 0.750000
vt 0.875000 0.500000
vt 0.869118 0.500000
vt 0.875000 0.670153
vt 0.836105 0.500000
vt 0.836105 0.750000
vt 0.639507 0.500000
vt 0.875000 0.506373
vt 0.875000 0.554903
vt 0.801157 0.750000
vt 0.801157 0.500000
vt 0.668850 0.500000
vt 0.639507 0.750000
vt 0.709188 0.500000
vt 0.668850 0.750000
vt 0.709188 0.750000
vt 0.875000 0.598397
vt 0.875000 0.649385
vt 0.625000 0.415812
vt 0.875000 0.750000
s 0
usemtl Material
f 117/1/1 183/2/1 101/2/1
f 18/3/2 8/4/2 19/5/2
f 11/6/1 6/7/1 9/8/1
f 16/9/3 25/10/3 32/11/3
f 14/12/4 4/13/4 16/9/4
f 26/14/5 2/15/5 29/16/5
f 1/17/4 12/18/4 2/15/4
f 2/15/3 31/19/3 29/20/3
f 33/21/1 9/8/1 35/22/1
f 10/23/4 162/24/4 36/24/4
f 7/25/1 13/26/1 8/27/1
f 114/28/4 16/9/4 128/29/4
f 128/29/3 32/11/3 118/30/3
f 115/31/4 154/32/4 24/32/4
f 115/31/6 56/33/6 120/34/6
f 116/35/3 13/36/3 113/37/3
f 11/6/1 142/38/1 5/38/1
f 17/39/3 9/40/3 6/41/3
f 5/38/5 17/42/5 6/7/5
f 23/43/3 8/44/3 13/36/3
f 50/45/2 19/5/2 53/46/2
f 3/47/2 159/48/2 30/48/2
f 7/25/1 149/49/1 15/49/1
f 3/47/2 25/50/2 4/13/2
f 114/28/4 139/12/4 14/12/4
f 99/51/4 155/31/4 115/31/4
f 118/30/3 70/52/3 122/53/3
f 29/20/3 69/54/3 67/55/3
f 62/56/5 29/16/5 67/57/5
f 32/11/3 61/58/3 70/52/3
f 31/19/3 71/59/3 69/54/3
f 14/12/4 140/47/4 3/47/4
f 21/60/3 35/61/3 9/40/3
f 22/62/6 58/63/6 55/64/6
f 68/65/2 177/66/2 74/66/2
f 12/18/3 40/67/3 31/19/3
f 10/23/4 34/68/4 12/18/4
f 47/69/1 35/22/1 41/70/1
f 103/71/1 41/70/1 97/72/1
f 40/67/3 72/73/3 71/59/3
f 64/74/5 150/75/5 28/75/5
f 38/76/3 41/77/3 35/61/3
f 37/78/6 60/79/6 58/63/6
f 98/80/4 148/28/4 114/28/4
f 34/68/3 46/81/3 40/67/3
f 36/24/4 48/82/4 34/68/4
f 66/83/2 133/84/2 84/84/2
f 57/85/3 44/86/3 38/76/3
f 55/64/6 95/87/6 93/88/6
f 51/89/3 38/76/3 21/60/3
f 52/90/3 19/91/3 23/43/3
f 20/92/5 49/93/5 17/42/5
f 49/94/3 21/60/3 17/39/3
f 119/95/3 23/43/3 116/35/3
f 47/69/1 146/21/1 33/21/1
f 86/96/2 53/46/2 91/97/2
f 127/98/1 168/71/1 103/71/1
f 120/34/6 94/99/6 126/100/6
f 121/101/6 28/75/6 117/1/6
f 15/49/1 184/98/1 127/98/1
f 30/48/2 61/102/2 25/50/2
f 18/3/2 138/103/2 7/103/2
f 63/104/6 39/105/6 27/106/6
f 65/107/6 45/108/6 39/105/6
f 71/59/3 78/109/3 77/110/3
f 69/54/3 77/110/3 75/111/3
f 70/52/3 79/112/3 76/113/3
f 73/114/5 62/56/5 67/57/5
f 67/55/3 75/111/3 73/115/3
f 122/53/3 76/113/3 123/116/3
f 123/116/3 88/117/3 125/118/3
f 73/115/3 87/119/3 85/120/3
f 92/121/5 73/114/5 85/122/5
f 76/113/3 91/123/3 88/117/3
f 75/111/3 89/124/3 87/119/3
f 77/110/3 90/125/3 89/124/3
f 124/126/6 64/74/6 121/101/6
f 27/106/2 157/104/2 63/104/2
f 61/102/2 74/66/2 79/127/2
f 24/32/5 172/33/5 56/33/5
f 81/128/6 65/107/6 63/104/6
f 95/87/4 136/129/4 96/129/4
f 89/124/3 59/130/3 57/85/3
f 87/119/3 57/85/3 51/89/3
f 88/117/3 53/131/3 52/90/3
f 54/132/5 85/122/5 49/93/5
f 85/120/3 51/89/3 49/94/3
f 125/118/3 52/90/3 119/95/3
f 126/100/6 82/133/6 124/126/6
f 62/56/5 143/14/5 26/14/5
f 74/66/2 91/97/2 79/127/2
f 101/2/1 167/108/1 45/108/1
f 93/88/6 83/134/6 81/128/6
f 95/87/6 84/84/6 83/134/6
f 96/129/6 110/135/6 84/84/6
f 90/125/3 105/136/3 59/130/3
f 84/84/6 107/137/6 66/83/6
f 78/109/3 111/138/3 90/125/3
f 72/73/3 109/139/3 78/109/3
f 66/83/6 101/2/6 45/108/6
f 60/79/6 112/140/6 96/129/6
f 59/130/3 100/141/3 44/86/3
f 127/98/1 97/72/1 113/142/1
f 46/81/3 108/143/3 72/73/3
f 5/38/5 152/92/5 20/92/5
f 44/86/3 97/144/3 41/77/3
f 43/145/6 106/146/6 60/79/6
f 55/64/2 153/62/2 22/62/2
f 48/82/3 102/147/3 46/81/3
f 42/148/4 104/149/4 48/82/4
f 15/49/1 113/142/1 13/26/1
f 112/140/6 124/126/6 110/135/6
f 111/138/3 119/95/3 105/136/3
f 110/135/6 121/101/6 107/137/6
f 109/139/3 125/118/3 111/138/3
f 108/143/3 123/116/3 109/139/3
f 107/137/6 117/1/6 101/2/6
f 112/140/4 190/100/4 126/100/4
f 105/136/3 116/35/3 100/141/3
f 102/147/3 122/53/3 108/143/3
f 74/66/2 169/96/2 86/96/2
f 100/141/3 113/37/3 97/144/3
f 115/31/1 187/51/1 99/51/1
f 20/92/5 170/132/5 54/132/5
f 104/149/3 118/30/3 102/147/3
f 98/80/4 128/29/4 104/149/4
f 129/63/6 136/129/6 135/87/6
f 131/134/6 134/83/6 132/107/6
f 58/63/5 135/87/5 95/87/5
f 84/84/1 131/134/1 83/134/1
f 60/79/1 129/63/1 58/63/1
f 65/107/4 134/83/4 66/83/4
f 96/129/2 130/79/2 60/79/2
f 83/134/5 132/107/5 65/107/5
f 149/150/6 137/151/6 154/32/6
f 142/152/6 153/62/6 152/153/6
f 184/154/6 154/32/6 155/31/6
f 152/153/6 171/64/6 170/155/6
f 154/32/6 151/156/6 172/33/6
f 150/75/6 140/47/6 139/12/6
f 143/157/6 145/23/6 144/17/6
f 160/1/6 139/12/6 148/28/6
f 147/106/6 162/24/6 145/23/6
f 141/158/6 163/78/6 153/62/6
f 164/105/6 165/148/6 162/24/6
f 146/159/6 166/145/6 163/78/6
f 172/33/6 169/160/6 180/99/6
f 170/155/6 179/88/6 178/161/6
f 156/162/6 147/106/6 143/157/6
f 158/74/6 159/163/6 150/75/6
f 173/164/6 157/104/6 156/162/6
f 175/133/6 176/165/6 158/74/6
f 178/161/6 174/128/6 173/164/6
f 180/99/6 177/166/6 175/133/6
f 167/108/6 181/80/6 165/148/6
f 161/167/6 182/51/6 166/145/6
f 183/2/6 148/28/6 181/80/6
f 168/168/6 155/31/6 182/51/6
f 80/169/5 156/56/5 62/56/5
f 36/24/4 165/148/4 42/148/4
f 26/14/5 144/17/5 1/17/5
f 54/132/5 178/121/5 92/121/5
f 22/62/4 163/78/4 37/78/4
f 63/104/2 174/128/2 81/128/2
f 37/78/4 166/145/4 43/145/4
f 93/88/2 171/64/2 55/64/2
f 82/133/5 158/74/5 64/74/5
f 56/33/5 180/99/5 94/99/5
f 39/105/1 147/106/1 27/106/1
f 86/96/2 151/45/2 50/45/2
f 92/121/5 173/169/5 80/169/5
f 45/108/1 164/105/1 39/105/1
f 1/17/4 145/23/4 10/23/4
f 81/128/2 179/88/2 93/88/2
f 33/21/1 141/6/1 11/6/1
f 42/148/4 181/80/4 98/80/4
f 28/75/1 160/1/1 117/1/1
f 94/99/5 175/133/5 82/133/5
f 103/71/1 161/69/1 47/69/1
f 50/45/2 137/3/2 18/3/2
f 43/145/4 182/51/4 99/51/4
f 30/48/2 176/65/2 68/65/2
f 185/146/6 190/100/6 186/140/6
f 187/51/6 189/34/6 185/146/6
f 99/51/5 185/146/5 106/146/5
f 126/100/2 189/34/2 120/34/2
f 106/146/5 186/140/5 112/140/5
f 120/34/2 188/31/2 115/31/2
f 117/1/1 160/1/1 183/2/1
f 18/3/2 7/103/2 8/4/2
f 11/6/1 5/38/1 6/7/1
f 16/9/3 4/13/3 25/10/3
f 14/12/4 3/47/4 4/13/4
f 26/14/5 1/17/5 2/15/5
f 1/17/4 10/23/4 12/18/4
f 2/15/3 12/18/3 31/19/3
f 33/21/1 11/6/1 9/8/1
f 10/23/4 145/23/4 162/24/4
f 7/25/1 15/49/1 13/26/1
f 114/28/4 14/12/4 16/9/4
f 128/29/3 16/9/3 32/11/3
f 115/31/4 155/31/4 154/32/4
f 115/31/6 24/32/6 56/33/6
f 116/35/3 23/43/3 13/36/3
f 11/6/1 141/6/1 142/38/1
f 17/39/3 21/60/3 9/40/3
f 5/38/5 20/92/5 17/42/5
f 23/43/3 19/91/3 8/44/3
f 50/45/2 18/3/2 19/5/2
f 3/47/2 140/47/2 159/48/2
f 7/25/1 138/25/1 149/49/1
f 3/47/2 30/48/2 25/50/2
f 114/28/4 148/28/4 139/12/4
f 99/51/4 182/51/4 155/31/4
f 118/30/3 32/11/3 70/52/3
f 29/20/3 31/19/3 69/54/3
f 62/56/5 26/14/5 29/16/5
f 32/11/3 25/10/3 61/58/3
f 31/19/3 40/67/3 71/59/3
f 14/12/4 139/12/4 140/47/4
f 21/60/3 38/76/3 35/61/3
f 22/62/6 37/78/6 58/63/6
f 68/65/2 176/65/2 177/66/2
f 12/18/3 34/68/3 40/67/3
f 10/23/4 36/24/4 34/68/4
f 47/69/1 33/21/1 35/22/1
f 103/71/1 47/69/1 41/70/1
f 40/67/3 46/81/3 72/73/3
f 64/74/5 158/74/5 150/75/5
f 38/76/3 44/86/3 41/77/3
f 37/78/6 43/145/6 60/79/6
f 98/80/4 181/80/4 148/28/4
f 34/68/3 48/82/3 46/81/3
f 36/24/4 42/148/4 48/82/4
f 66/83/2 134/83/2 133/84/2
f 57/85/3 59/130/3 44/86/3
f 55/64/6 58/63/6 95/87/6
f 51/89/3 57/85/3 38/76/3
f 52/90/3 53/131/3 19/91/3
f 20/92/5 54/132/5 49/93/5
f 49/94/3 51/89/3 21/60/3
f 119/95/3 52/90/3 23/43/3
f 47/69/1 161/69/1 146/21/1
f 86/96/2 50/45/2 53/46/2
f 127/98/1 184/98/1 168/71/1
f 120/34/6 56/33/6 94/99/6
f 121/101/6 64/74/6 28/75/6
f 15/49/1 149/49/1 184/98/1
f 30/48/2 68/65/2 61/102/2
f 18/3/2 137/3/2 138/103/2
f 63/104/6 65/107/6 39/105/6
f 65/107/6 66/83/6 45/108/6
f 71/59/3 72/73/3 78/109/3
f 69/54/3 71/59/3 77/110/3
f 70/52/3 61/58/3 79/112/3
f 73/114/5 80/169/5 62/56/5
f 67/55/3 69/54/3 75/111/3
f 122/53/3 70/52/3 76/113/3
f 123/116/3 76/113/3 88/117/3
f 73/115/3 75/111/3 87/119/3
f 92/121/5 80/169/5 73/114/5
f 76/113/3 79/112/3 91/123/3
f 75/111/3 77/110/3 89/124/3
f 77/110/3 78/109/3 90/125/3
f 124/126/6 82/133/6 64/74/6
f 27/106/2 147/106/2 157/104/2
f 61/102/2 68/65/2 74/66/2
f 24/32/5 154/32/5 172/33/5
f 81/128/6 83/134/6 65/107/6
f 95/87/4 135/87/4 136/129/4
f 89/124/3 90/125/3 59/130/3
f 87/119/3 89/124/3 57/85/3
f 88/117/3 91/123/3 53/131/3
f 54/132/5 92/121/5 85/122/5
f 85/120/3 87/119/3 51/89/3
f 125/118/3 88/117/3 52/90/3
f 126/100/6 94/99/6 82/133/6
f 62/56/5 156/56/5 143/14/5
f 74/66/2 86/96/2 91/97/2
f 101/2/1 183/2/1 167/108/1
f 93/88/6 95/87/6 83/134/6
f 95/87/6 96/129/6 84/84/6
f 96/129/6 112/140/6 110/135/6
f 90/125/3 111/138/3 105/136/3
f 84/84/6 110/135/6 107/137/6
f 78/109/3 109/139/3 111/138/3
f 72/73/3 108/143/3 109/139/3
f 66/83/6 107/137/6 101/2/6
f 60/79/6 106/146/6 112/140/6
f 59/130/3 105/136/3 100/141/3
f 127/98/1 103/71/1 97/72/1
f 46/81/3 102/147/3 108/143/3
f 5/38/5 142/38/5 152/92/5
f 44/86/3 100/141/3 97/144/3
f 43/145/6 99/51/6 106/146/6
f 55/64/2 171/64/2 153/62/2
f 48/82/3 104/149/3 102/147/3
f 42/148/4 98/80/4 104/149/4
f 15/49/1 127/98/1 113/142/1
f 112/140/6 126/100/6 124/126/6
f 111/138/3 125/118/3 119/95/3
f 110/135/6 124/126/6 121/101/6
f 109/139/3 123/116/3 125/118/3
f 108/143/3 122/53/3 123/116/3
f 107/137/6 121/101/6 117/1/6
f 112/140/4 186/140/4 190/100/4
f 105/136/3 119/95/3 116/35/3
f 102/147/3 118/30/3 122/53/3
f 74/66/2 177/66/2 169/96/2
f 100/141/3 116/35/3 113/37/3
f 115/31/1 188/31/1 187/51/1
f 20/92/5 152/92/5 170/132/5
f 104/149/3 128/29/3 118/30/3
f 98/80/4 114/28/4 128/29/4
f 129/63/6 130/79/6 136/129/6
f 131/134/6 133/84/6 134/83/6
f 58/63/5 129/63/5 135/87/5
f 84/84/1 133/84/1 131/134/1
f 60/79/1 130/79/1 129/63/1
f 65/107/4 132/107/4 134/83/4
f 96/129/2 136/129/2 130/79/2
f 83/134/5 131/134/5 132/107/5
f 149/150/6 138/170/6 137/151/6
f 142/152/6 141/158/6 153/62/6
f 184/154/6 149/150/6 154/32/6
f 152/153/6 153/62/6 171/64/6
f 154/32/6 137/151/6 151/156/6
f 150/75/6 159/163/6 140/47/6
f 143/157/6 147/106/6 145/23/6
f 160/1/6 150/75/6 139/12/6
f 147/106/6 164/105/6 162/24/6
f 141/158/6 146/159/6 163/78/6
f 164/105/6 167/108/6 165/148/6
f 146/159/6 161/167/6 166/145/6
f 172/33/6 151/156/6 169/160/6
f 170/155/6 171/64/6 179/88/6
f 156/162/6 157/104/6 147/106/6
f 158/74/6 176/165/6 159/163/6
f 173/164/6 174/128/6 157/104/6
f 175/133/6 177/166/6 176/165/6
f 178/161/6 179/88/6 174/128/6
f 180/99/6 169/160/6 177/166/6
f 167/108/6 183/2/6 181/80/6
f 161/167/6 168/168/6 182/51/6
f 183/2/6 160/1/6 148/28/6
f 168/168/6 184/154/6 155/31/6
f 80/169/5 173/169/5 156/56/5
f 36/24/4 162/24/4 165/148/4
f 26/14/5 143/14/5 144/17/5
f 54/132/5 170/132/5 178/121/5
f 22/62/4 153/62/4 163/78/4
f 63/104/2 157/104/2 174/128/2
f 37/78/4 163/78/4 166/145/4
f 93/88/2 179/88/2 171/64/2
f 82/133/5 175/133/5 158/74/5
f 56/33/5 172/33/5 180/99/5
f 39/105/1 164/105/1 147/106/1
f 86/96/2 169/96/2 151/45/2
f 92/121/5 178/121/5 173/169/5
f 45/108/1 167/108/1 164/105/1
f 1/17/4 144/17/4 145/23/4
f 81/128/2 174/128/2 179/88/2
f 33/21/1 146/21/1 141/6/1
f 42/148/4 165/148/4 181/80/4
f 28/75/1 150/75/1 160/1/1
f 94/99/5 180/99/5 175/133/5
f 103/71/1 168/71/1 161/69/1
f 50/45/2 151/45/2 137/3/2
f 43/145/4 166/145/4 182/51/4
f 30/48/2 159/48/2 176/65/2
f 185/146/6 189/34/6 190/100/6
f 187/51/6 188/31/6 189/34/6
f 99/51/5 187/51/5 185/146/5
f 126/100/2 190/100/2 189/34/2
f 106/146/5 185/146/5 186/140/5
f 120/34/2 189/34/2 188/31/2
o Cube.001
v -6.000000 3.000000 5.000000
v -6.000000 3.250000 5.000000
v -6.000000 3.000000 -1.000000
v -6.000000 3.250000 -1.000000
v 6.000000 3.000000 5.000000
v 6.000000 3.250000 5.000000
v 6.000000 3.000000 -1.000000
v 6.000000 3.250000 -1.000000
v 1.000000 3.000000 -1.000000
v 1.000000 3.250000 -1.000000
v 1.000000 3.000000 5.000000
v 1.000000 3.250000 5.000000
v -1.000000 3.000000 -1.000000
v -1.000000 3.250000 5.000000
v -1.000000 3.250000 -1.000000
v -1.000000 3.000000 5.000000
v -6.000000 3.250000 -5.000000
v -6.000000 3.000000 -5.000000
v -1.000000 3.000000 -5.000000
v 1.000000 3.250000 -5.000000
v 6.000000 3.250000 -5.000000
v 6.000000 3.000000 -5.000000
v 1.000000 3.000000 -5.000000
v -1.000000 3.250000 -5.000000
v 6.000000 3.250000 -2.989878
v 1.000000 3.250000 -2.989878
v 1.000000 3.000000 -2.989878
v 6.000000 3.000000 -2.989878
v -1.000000 3.250000 -5.000000
v -1.000000 3.000000 -5.000000
v -1.000000 3.000000 -2.989878
v -1.000000 3.250000 -2.989878
vn -1.0000 -0.0000 -0.0000
vn 1.0000 -0.0000 -0.0000
vn -0.0000 -0.0000 1.0000
vn -0.0000 -1.0000 -0.0000
vn -0.0000 1.0000 -0.0000
vn -0.0000 -0.0000 -1.0000
vt 0.625000 0.000000
vt 0.375000 0.250000
vt 0.375000 0.000000
vt 0.375000 0.359044
vt 0.625000 0.359044
vt 0.625000 0.500000
vt 0.375000 0.750000
vt 0.375000 0.500000
vt 0.625000 0.890956
vt 0.375000 1.000000
vt 0.375000 0.890956
vt 0.289481 0.750000
vt 0.289481 0.500000
vt 0.875000 0.500000
vt 0.765956 0.750000
vt 0.765956 0.500000
vt 0.710519 0.500000
vt 0.625000 0.750000
vt 0.234044 0.750000
vt 0.234044 0.500000
vt 0.375000 0.835519
vt 0.375000 0.414481
vt 0.125000 0.500000
vt 0.125000 0.750000
vt 0.710519 0.750000
vt 0.625000 0.835519
vt 0.625000 0.414481
vt 0.625000 0.250000
vt 0.625000 1.000000
vt 0.875000 0.750000
s 0
f 192/171/7 193/172/7 191/173/7
f 203/174/8 214/175/8 205/175/8
f 198/176/8 195/177/8 197/178/8
f 204/179/9 191/180/9 206/181/9
f 197/178/10 201/182/10 199/183/10
f 194/184/11 204/185/11 205/186/11
f 200/187/11 196/188/11 198/176/11
f 199/183/10 206/189/10 203/190/10
f 196/188/9 201/191/9 195/177/9
f 205/175/12 199/192/12 203/174/12
f 193/193/10 209/190/10 203/190/10
f 203/190/10 191/194/10 193/193/10
f 205/186/11 202/195/11 200/187/11
f 202/196/9 206/181/9 201/191/9
f 210/197/12 212/178/12 213/192/12
f 207/198/12 209/174/12 208/172/12
f 205/186/11 207/184/11 194/184/11
f 215/176/11 210/187/11 216/187/11
f 194/198/7 208/172/7 193/172/7
f 217/183/10 212/178/10 218/178/10
f 213/192/12 219/197/12 210/197/12
f 218/178/8 211/176/8 215/176/8
f 197/178/8 215/176/8 198/176/8
f 200/197/7 217/192/7 199/192/7
f 199/183/10 218/178/10 197/178/10
f 198/176/11 216/187/11 200/187/11
f 222/197/7 220/192/7 221/192/7
f 217/183/10 220/183/10 213/183/10
f 216/197/9 221/192/9 217/192/9
f 210/187/11 222/187/11 216/187/11
f 192/171/7 194/198/7 193/172/7
f 203/174/8 209/174/8 214/175/8
f 198/176/8 196/188/8 195/177/8
f 204/179/9 192/199/9 191/180/9
f 197/178/10 195/177/10 201/182/10
f 194/184/11 192/200/11 204/185/11
f 200/187/11 202/195/11 196/188/11
f 199/183/10 201/182/10 206/189/10
f 196/188/9 202/196/9 201/191/9
f 205/175/12 200/197/12 199/192/12
f 193/193/10 208/193/10 209/190/10
f 203/190/10 206/189/10 191/194/10
f 205/186/11 204/185/11 202/195/11
f 202/196/9 204/179/9 206/181/9
f 210/197/12 211/176/12 212/178/12
f 207/198/12 214/175/12 209/174/12
f 205/186/11 214/186/11 207/184/11
f 215/176/11 211/176/11 210/187/11
f 194/198/7 207/198/7 208/172/7
f 217/183/10 213/183/10 212/178/10
f 213/192/12 220/192/12 219/197/12
f 218/178/8 212/178/8 211/176/8
f 197/178/8 218/178/8 215/176/8
f 200/197/7 216/197/7 217/192/7
f 199/183/10 217/183/10 218/178/10
f 198/176/11 215/176/11 216/187/11
f 222/197/7 219/197/7 220/192/7
f 217/183/10 221/183/10 220/183/10
f 216/197/9 222/197/9 221/192/9
f 210/187/11 219/187/11 222/187/11
