# Blender 4.1.1
# www.blender.org
mtllib other_map1.mtl
o Cube
v 5.278786 -0.111735 -4.974004
v 5.278786 -0.111735 4.974004
v -5.278786 -0.111735 -4.974004
v -5.278786 -0.111735 4.974004
v 5.278786 0.111735 4.974004
v -5.278786 0.111735 4.974004
v 5.278786 0.111735 -4.974004
v -5.278786 0.111735 -4.974004
v 5.278786 0.111735 -4.974004
v 4.805309 0.111735 -4.500526
v 5.278786 0.111735 4.974004
v 4.805309 0.111735 4.500526
v -4.805309 0.111735 -4.500526
v -5.278786 0.111735 -4.974004
v -4.805309 0.111735 4.500526
v -5.278786 0.111735 4.974004
v -5.278786 -0.111735 -1.025064
v 5.278786 0.111735 -1.025064
v -5.278786 0.111735 -1.025064
v 5.278786 -0.111735 -1.025064
v 4.805309 0.111735 -0.924809
v 5.278786 0.111735 -1.025064
v -4.800067 0.111735 -0.976746
v -5.284028 0.111735 -0.973127
v -5.278786 -0.111735 1.021066
v 5.278786 0.111735 1.021066
v 4.805309 0.111735 0.936802
v -5.282492 0.111735 0.981528
v -5.278786 0.111735 1.021066
v 5.278786 -0.111735 1.021066
v 5.278786 0.111735 1.021066
v -4.801603 0.111735 0.976340
v 5.278786 3.628206 4.974003
v 4.805309 3.628205 4.500525
v -4.805309 3.628205 4.500525
v -5.278786 3.628206 4.974003
v 5.278786 3.628205 -4.974004
v 4.805309 3.628205 -4.500526
v 4.805309 3.628205 0.936802
v 5.278786 3.628205 -1.025064
v -4.800067 3.628205 -0.976746
v -4.805309 3.628205 -4.500526
v -5.278786 3.628205 -4.974004
v -5.282492 3.628205 0.981528
v 4.805309 3.628205 -0.924809
v 5.278786 3.628205 1.021066
v -5.284028 3.628205 -0.973127
v -4.801603 3.628205 0.976340
v -9.501853 0.111735 0.985422
v -9.498147 0.111735 4.977898
v -9.501853 3.628205 0.985422
v -9.498147 3.628206 4.977898
v -9.502622 0.111735 -0.977451
v -9.502622 3.628205 -0.977451
v -9.497379 0.111735 -4.978328
v -9.497379 3.628205 -4.978329
v -9.500000 0.111735 1.021066
v -9.500000 0.111735 -1.025064
v -9.500000 -0.111735 -1.025064
v -9.500000 -0.111735 1.021066
v -13.998148 0.111735 4.977315
v -14.001854 0.111735 0.984840
v -9.500000 3.626126 1.021066
v -9.500000 3.626126 -1.025064
v -5.278786 0.111735 1.021066
v -9.469044 3.626126 1.021066
v -5.627975 0.111735 1.021066
v -5.627975 0.431225 1.021066
v -5.977162 0.431225 1.021066
v -5.977162 0.750715 1.021066
v -6.326351 0.750715 1.021066
v -6.326351 1.070206 1.021066
v -6.675539 1.070206 1.021066
v -6.675539 1.389696 1.021066
v -7.024727 1.389696 1.021066
v -7.024727 1.709186 1.021066
v -7.373915 1.709186 1.021066
v -7.373915 2.028676 1.021066
v -7.723103 2.028676 1.021066
v -7.723103 2.348166 1.021066
v -8.072291 2.348166 1.021066
v -8.072291 2.667656 1.021066
v -8.421479 2.667656 1.021066
v -8.421479 2.987146 1.021066
v -8.770667 2.987146 1.021066
v -8.770667 3.306636 1.021066
v -9.119856 3.306636 1.021066
v -9.119856 3.626126 1.021066
v -9.469044 3.626126 -1.025064
v -5.278786 0.111735 -1.025064
v -9.119856 3.626126 -1.025064
v -9.119856 3.306636 -1.025064
v -8.770667 3.306636 -1.025064
v -8.770667 2.987146 -1.025064
v -8.421479 2.987146 -1.025064
v -8.421479 2.667656 -1.025064
v -8.072291 2.667656 -1.025064
v -8.072291 2.348166 -1.025064
v -7.723103 2.348166 -1.025064
v -7.723103 2.028676 -1.025064
v -7.373915 2.028676 -1.025064
v -7.373915 1.709186 -1.025064
v -7.024727 1.709186 -1.025064
v -7.024727 1.389696 -1.025064
v -6.675539 1.389696 -1.025064
v -6.675539 1.070206 -1.025064
v -6.326351 1.070206 -1.025064
v -6.326351 0.750715 -1.025064
v -5.977162 0.750715 -1.025064
v -5.977162 0.431225 -1.025064
v -5.627975 0.431225 -1.025064
v -5.627975 0.111735 -1.025064
v -14.001854 3.628205 0.984840
v -13.998148 3.628206 4.977314
v -14.002623 0.111735 -0.978033
v -14.002623 3.628205 -0.978033
v -13.997379 0.111735 -4.978910
v -13.997379 3.628205 -4.978910
v -14.000000 0.111735 1.020484
v -14.000000 0.111735 -1.025646
v -14.000000 3.626126 1.020484
v -14.000000 3.626126 -1.025646
v -5.284028 3.196538 -0.973127
v -4.800067 3.196538 -0.976746
v -4.805309 3.196538 -4.500526
v 5.278786 3.196538 1.021066
v 5.278786 3.196538 -1.025064
v 5.278786 3.196537 -4.974004
v -5.278786 3.196537 -4.974004
v 5.278786 3.196538 4.974003
v -4.805309 3.196538 4.500525
v 4.805309 3.196538 4.500525
v -5.278786 3.196538 4.974003
v -5.282492 3.196538 0.981528
v -4.801603 3.196538 0.976340
v 4.805309 3.196538 -4.500526
v 4.805309 3.196538 0.936802
v 4.805309 3.196538 -0.924809
v -9.498147 3.196538 4.977898
v -9.501853 3.196538 0.985422
v -9.502622 3.196538 -0.977451
v -9.497379 3.196537 -4.978329
v -14.002623 3.196538 -0.978033
v -14.001854 3.196538 0.984840
v -13.998148 3.196538 4.977314
v -13.997379 3.196537 -4.978910
v -5.267207 3.628205 0.936802
v -5.267207 3.628205 4.500525
v -5.267207 3.628205 -4.500526
v -5.267207 3.628205 -0.924809
v -5.267207 3.196538 -4.500526
v -5.267207 3.196538 0.936802
v -5.267207 3.196538 4.500525
v -5.267207 3.196538 -0.924809
v 5.278786 3.628206 4.974003
v 4.805309 3.628205 4.500525
v -4.805309 3.628205 4.500525
v -5.278786 3.628206 4.974003
v 5.278786 3.628205 -4.974004
v 4.805309 3.628205 -4.500526
v 4.805309 3.628205 0.936802
v 5.278786 3.628205 -1.025064
v -4.800067 3.628205 -0.976746
v -4.805309 3.628205 -4.500526
v -5.278786 3.628205 -4.974004
v -5.282492 3.628205 0.981528
v 4.805309 3.628205 -0.924809
v 5.278786 3.628205 1.021066
v -5.284028 3.628205 -0.973127
v -4.801603 3.628205 0.976340
v -5.278786 -0.111735 1.021066
v 5.278786 0.111735 1.021066
v 4.805309 0.111735 0.936802
v -5.282492 0.111735 0.981528
v -5.278786 0.111735 1.021066
v 5.278786 -0.111735 1.021066
v 5.278786 0.111735 1.021066
v -4.801603 0.111735 0.976340
v 4.805309 3.628205 0.936802
v -5.282492 3.628205 0.981528
v 5.278786 3.628205 1.021066
v -4.801603 3.628205 0.976340
v -9.501853 0.111735 0.985422
v -9.501853 3.628205 0.985422
v -14.001854 3.628205 0.984840
v -14.001854 0.111735 0.984840
v -14.001854 3.196538 0.984840
v 4.805309 3.196538 0.936802
v -4.801603 3.196538 0.976340
v 5.278786 3.196538 1.021066
v -5.267207 3.628205 0.936802
v -5.267207 3.196538 0.936802
v 4.805309 3.628205 0.936802
v -5.282492 3.628205 0.981528
v 5.278786 3.628205 1.021066
v -4.801603 3.628205 0.976340
v -5.278786 0.111735 -1.025064
v 5.278786 -0.111735 -1.025064
v 5.278786 0.111735 -1.025064
v -4.800067 0.111735 -0.976746
v -5.278786 -0.111735 -1.025064
v 5.278786 0.111735 -1.025064
v 4.805309 0.111735 -0.924809
v -5.284028 0.111735 -0.973127
v 5.278786 3.628205 -1.025064
v -4.800067 3.628205 -0.976746
v 4.805309 3.628205 -0.924809
v -5.284028 3.628205 -0.973127
v -9.502622 0.111735 -0.977451
v -9.502622 3.628205 -0.977451
v -14.002623 0.111735 -0.978033
v -14.002623 3.628205 -0.978033
v -14.002623 3.196538 -0.978033
v 4.805309 3.196538 -0.924809
v 5.278786 3.196538 -1.025064
v -4.800067 3.196538 -0.976746
v -5.267207 3.628205 -0.924809
v -5.267207 3.196538 -0.924809
v 5.278786 3.628205 -1.025064
v -4.800067 3.628205 -0.976746
v 4.805309 3.628205 -0.924809
v -5.284028 3.628205 -0.973127
v -4.788161 3.628205 -4.500526
v -4.788161 3.196538 -4.500526
v -4.788161 3.628205 0.936802
v -4.788161 3.628205 4.500525
v -4.788161 3.196538 -0.924809
v -4.788161 3.196538 4.500525
v -4.788161 3.628205 -0.924809
v -4.788161 3.196538 0.936802
v -4.788161 3.196538 0.936802
v -4.788161 3.628205 0.936802
v -4.788161 3.628205 -0.924809
v -4.788161 3.196538 -0.924809
v -5.267207 6.500000 -0.924809
v -5.267207 6.500000 0.936802
v -4.788161 6.500000 0.936802
v 5.278786 6.500000 4.974003
v 4.805309 6.500000 4.500525
v -4.805309 6.500000 4.500525
v -5.278786 6.500000 4.974003
v 5.278786 6.500000 -4.974004
v 4.805309 6.500000 -4.500526
v 4.805309 6.500000 0.936802
v 5.278786 6.500000 -1.025064
v -4.805309 6.500000 -4.500526
v -5.278786 6.500000 -4.974004
v 5.278786 6.500000 1.021065
v 5.278786 6.500000 -1.025064
v 4.805309 6.500000 -0.924809
v 4.805309 6.500000 0.936802
v 5.278786 6.500000 1.021065
v 4.805309 6.500000 -0.924809
v -4.788161 6.500000 -0.924809
v 5.278786 7.403913 4.974003
v 4.805309 7.403913 4.500525
v -4.805309 7.403913 4.500525
v -5.278786 7.403913 4.974003
v 5.278786 7.403913 -4.974004
v 4.805309 7.403913 -4.500526
v 4.805309 7.403913 0.936801
v 5.278786 7.403913 -1.025065
v -4.805309 7.403913 -4.500526
v -5.278786 7.403913 -4.974004
v 5.278786 7.403913 1.021065
v 5.278786 7.403913 -1.025065
v 4.805309 7.403913 -0.924810
v 4.805309 7.403913 0.936801
v 5.278786 7.403913 1.021065
v 4.805309 7.403913 -0.924810
v 5.278786 6.951957 -1.025064
v 5.278786 6.951957 -4.974004
v -4.805309 6.951957 -4.500526
v -5.278786 6.951957 -4.974004
v 4.805309 6.951957 -4.500526
v 4.805309 6.951957 -0.924810
v 5.278786 6.993044 -1.025064
v 5.278786 6.993044 1.021065
v 4.805309 6.993044 -0.924810
v 4.805309 6.993044 0.936801
v 5.278786 6.951957 1.021065
v 5.278786 6.951958 4.974003
v 4.805309 6.951957 0.936801
v -4.805309 6.951958 4.500525
v 4.805309 6.951958 4.500525
v -5.278786 6.951958 4.974003
v -4.742548 7.403913 0.936801
v -4.742548 7.403913 4.500525
v -4.742548 7.403913 -0.924810
v -4.742548 7.403913 0.936801
v -4.742548 7.403913 -4.500526
v -4.742548 7.403913 -0.924810
v -4.742548 6.951957 0.936801
v -4.742548 6.951957 -4.500526
v -4.742548 6.951957 -0.924810
v -4.742548 6.993044 -0.924810
v -4.742548 6.993044 0.936801
v -4.742548 6.951958 4.500525
v -5.267207 7.402538 -0.924810
v -5.267207 7.402538 0.936801
v -4.788161 7.402538 0.936801
v -4.788161 7.402538 -0.924810
vn -0.0000 1.0000 -0.0000
vn -0.0000 -0.0000 1.0000
vn -1.0000 -0.0000 -0.0000
vn -0.0000 -1.0000 -0.0000
vn 1.0000 -0.0000 -0.0000
vn -0.0000 -0.0000 -1.0000
vn 0.0005 -0.0000 1.0000
vn 0.0004 -0.0000 1.0000
vn -1.0000 -0.0000 -0.0001
vn -0.0000 -0.0000 -0.0000
vn 1.0000 -0.0000 -0.0015
vn 0.0032 -0.0000 1.0000
vn 0.0075 -0.0000 1.0000
vn 0.0005 -0.0000 -1.0000
vn -0.0108 -0.0000 -0.9999
vn -0.0059 -0.0000 -1.0000
vn -0.0004 -0.0000 -1.0000
vn 0.0001 -0.0000 -1.0000
vn 0.0006 -0.0000 -1.0000
vn -0.0006 -0.0000 1.0000
vn -1.0000 -0.0000 0.0009
vn -0.0001 -0.0000 1.0000
vn -1.0000 -0.0000 0.0001
vn -0.0000 1.0000 0.0001
vn 1.0000 -0.0000 0.0001
vn 1.0000 -0.0000 0.0011
vn -1.0000 -0.0000 -0.0013
vn -0.7071 0.7071 -0.0000
vn 0.1752 -0.0000 -0.9845
vn -0.7071 -0.0000 0.7071
vn -0.1752 -0.0000 0.9845
vn -0.2071 -0.0000 -0.9783
vn 0.2071 -0.0000 0.9783
vn -0.7071 -0.0000 -0.7071
vt 0.875000 0.500000
vt 0.625000 0.500000
vt 0.375000 0.750000
vt 0.625000 0.750000
vt 0.625000 1.000000
vt 0.375000 1.000000
vt 0.375000 0.151468
vt 0.625000 0.151468
vt 0.625000 0.250000
vt 0.375000 0.250000
vt 0.125000 0.647246
vt 0.375000 0.647246
vt 0.125000 0.750000
vt 0.625000 0.647246
vt 0.375000 0.500000
vt 0.875000 0.598532
vt 0.636218 0.645056
vt 0.863788 0.645128
vt 0.863788 0.738101
vt 0.636212 0.738101
vt 0.875000 0.750000
vt 0.625000 0.598532
vt 0.863788 0.601052
vt 0.875000 0.647246
vt 0.863788 0.511899
vt 0.636212 0.601052
vt 0.875000 0.647241
vt 0.375000 0.598532
vt 0.125000 0.598532
vt 0.375000 0.102754
vt 0.625000 0.102754
vt 0.636212 0.645129
vt 0.636212 0.511899
vt 0.875056 0.599101
vt 0.375000 0.000000
vt 0.625000 0.000000
vt 0.125000 0.500000
s 1
usemtl Material.002
f 14/1/1 9/2/2 7/2/1 8/1/2
f 2/3/2 5/4/2 6/5/2 4/6/2
f 201/7/3 197/8/3 8/9/3 3/10/3
f 171/11/4 176/12/4 2/3/4 4/13/4
f 176/12/5 172/14/5 5/4/5 2/3/5
f 3/10/6 8/9/6 7/2/6 1/15/6
f 204/16/4 14/1/4 8/1/4 197/16/4
f 173/17/1 178/18/1 15/19/1 12/20/1
f 11/4/1 16/21/2 6/21/1 5/4/2
f 133/21/7 36/21/7 52/21/8 139/21/8
f 132/20/6 131/19/6 35/19/6 34/20/6
f 190/14/2 126/14/1 46/14/2 181/14/1
f 204/16/2 24/16/3 53/16/6 209/16/9
f 177/14/10 11/4/10 5/4/10 172/14/10
f 199/22/2 22/22/2 18/22/2 202/22/2
f 32/18/1 23/23/1 24/16/1 28/24/1
f 216/23/11 125/25/11 42/25/11 206/23/11
f 203/26/1 200/23/6 23/23/1 21/26/6
f 28/24/4 24/16/4 19/16/4 29/27/4
f 198/28/1 202/22/2 18/22/1 20/28/2
f 201/29/1 198/28/2 20/28/1 17/29/2
f 17/29/4 25/11/4 60/11/4 59/29/4
f 171/30/1 175/31/2 29/31/1 25/30/2
f 174/24/2 28/24/1 29/27/6 175/27/1
f 126/14/5 127/22/5 40/22/5 46/14/5
f 22/22/10 31/14/10 26/14/10 18/22/10
f 215/22/5 128/2/5 37/2/5 205/22/5
f 21/26/1 23/23/1 32/18/1 27/32/1
f 20/28/5 18/22/5 26/14/5 30/12/5
f 17/29/4 20/28/4 30/12/4 25/11/4
f 207/26/2 45/26/2 167/26/2 221/26/2
f 182/18/2 48/18/2 170/18/2 196/18/2
f 37/2/1 43/1/2 165/1/1 159/2/2
f 181/14/2 46/14/2 168/14/2 195/14/2
f 36/21/1 33/4/2 155/4/1 158/21/2
f 42/25/1 38/33/2 160/33/1 164/25/2
f 45/26/10 39/32/10 161/32/10 167/26/10
f 189/18/2 135/18/3 48/18/2 182/18/3
f 125/25/2 136/33/2 38/33/2 42/25/2
f 123/16/12 124/23/13 41/23/13 47/16/12
f 133/21/7 130/4/2 33/4/2 36/21/7
f 128/2/6 129/1/14 43/1/14 37/2/6
f 234/26/2 227/26/4 154/26/2 218/26/4
f 135/18/15 134/24/16 44/24/16 48/18/15
f 232/32/2 225/32/1 147/32/2 191/32/1
f 223/33/6 224/33/6 151/33/6 149/33/6
f 210/16/1 56/1/1 118/1/1 212/16/1
f 180/24/2 44/24/5 51/24/2 184/24/5
f 174/24/4 16/21/4 50/21/4 183/24/4
f 134/24/16 28/24/16 49/24/17 140/24/17
f 140/24/17 49/24/17 62/24/18 144/24/18
f 129/1/14 14/1/14 55/1/19 142/1/19
f 123/16/12 47/16/12 54/16/20 141/16/20
f 208/16/1 43/1/1 56/1/1 210/16/1
f 60/30/3 57/31/3 58/8/3 59/7/3
f 19/8/6 17/7/6 59/7/6 58/8/6
f 187/24/21 145/21/21 114/21/21 185/24/21
f 25/30/2 29/31/2 57/31/2 60/30/2
f 57/31/2 29/31/2 65/31/2 67/31/2 68/31/2 69/31/2 70/31/2 71/31/2 72/31/2 73/31/2 74/31/2 75/31/2 76/31/2 77/31/2 78/31/2 79/31/2 80/31/2 81/31/2 82/31/2 83/31/2 84/31/2 85/31/2 86/31/2 87/31/2 88/31/2 66/31/2 63/31/22
f 57/31/2 63/31/22 121/31/22 119/31/22
f 19/8/6 58/8/6 64/8/18 89/8/6 91/8/6 92/8/6 93/8/6 94/8/6 95/8/6 96/8/6 97/8/6 98/8/6 99/8/6 100/8/6 101/8/6 102/8/6 103/8/6 104/8/6 105/8/6 106/8/6 107/8/6 108/8/6 109/8/6 110/8/6 111/8/6 112/8/6 90/8/6
f 66/27/1 89/16/1 64/16/1 63/27/1
f 65/27/1 90/16/1 112/16/1 67/27/1
f 67/27/5 112/16/5 111/16/5 68/27/5
f 68/27/1 111/16/1 110/16/1 69/27/1
f 69/27/5 110/16/5 109/16/5 70/27/5
f 70/27/1 109/16/1 108/16/1 71/27/1
f 71/27/5 108/16/5 107/16/5 72/27/5
f 72/27/1 107/16/1 106/16/1 73/27/1
f 73/27/5 106/16/5 105/16/5 74/27/5
f 74/27/1 105/16/1 104/16/1 75/27/1
f 75/27/5 104/16/5 103/16/5 76/27/5
f 76/27/1 103/16/1 102/16/1 77/27/1
f 77/27/5 102/16/5 101/16/5 78/27/5
f 78/27/1 101/16/1 100/16/1 79/27/1
f 79/27/5 100/16/5 99/16/5 80/27/5
f 80/27/1 99/16/1 98/16/1 81/27/1
f 81/27/5 98/16/5 97/16/5 82/27/5
f 82/27/1 97/16/1 96/16/1 83/27/1
f 83/27/5 96/16/5 95/16/5 84/27/5
f 84/27/1 95/16/1 94/16/1 85/27/1
f 85/27/5 94/16/5 93/16/5 86/27/5
f 86/27/1 93/16/1 92/16/1 87/27/1
f 87/27/5 92/16/5 91/16/5 88/27/5
f 88/27/1 91/16/1 89/16/1 66/27/1
f 29/27/10 19/16/10 90/16/10 65/27/10
f 213/16/2 143/16/1 116/16/2 212/16/1
f 120/8/3 119/31/3 121/31/3 122/8/3
f 183/24/4 50/21/4 61/21/4 186/24/4
f 64/8/18 58/8/6 120/8/18 122/8/18
f 142/1/19 55/1/19 117/1/18 146/1/18
f 184/24/6 51/24/3 113/24/2 185/24/23
f 63/27/1 64/16/1 122/16/1 121/27/1
f 141/16/20 54/16/20 116/16/22 143/16/22
f 139/21/8 52/21/8 114/21/22 145/21/22
f 209/16/6 53/16/1 115/16/2 211/16/24
f 58/8/4 57/31/4 119/31/4 120/8/4
f 50/21/8 139/21/8 145/21/22 61/21/22
f 53/16/20 141/16/20 143/16/22 115/16/22
f 56/1/19 142/1/19 146/1/18 118/1/18
f 211/16/2 115/16/1 143/16/2 213/16/1
f 186/24/21 61/21/21 145/21/21 187/24/21
f 24/16/12 123/16/12 141/16/20 53/16/20
f 43/1/14 129/1/14 142/1/19 56/1/19
f 51/24/17 140/24/17 144/24/18 113/24/18
f 44/24/16 134/24/16 140/24/17 51/24/17
f 203/26/2 21/26/3 138/26/2 214/26/3
f 173/17/3 12/20/3 132/20/3 188/32/3
f 32/18/15 28/24/16 134/24/16 135/18/15
f 21/26/3 27/32/3 137/32/3 138/26/3
f 9/2/6 14/1/14 129/1/14 128/2/6
f 16/21/7 11/4/2 130/4/2 133/21/7
f 24/16/12 23/23/13 124/23/13 123/16/12
f 13/25/2 10/33/2 136/33/2 125/25/2
f 178/18/2 32/18/3 135/18/2 189/18/3
f 199/22/5 9/2/5 128/2/5 215/22/5
f 31/14/5 22/22/5 127/22/5 126/14/5
f 200/23/11 13/25/11 125/25/11 216/23/11
f 177/14/2 31/14/1 126/14/2 190/14/1
f 12/20/6 15/19/6 131/19/6 132/20/6
f 16/21/7 133/21/7 139/21/8 50/21/8
f 154/26/3 152/32/3 147/32/3 150/26/3
f 192/32/3 153/20/3 148/20/3 191/32/3
f 218/26/2 154/26/3 150/26/2 217/26/3
f 228/20/2 226/20/2 148/20/2 153/20/2
f 233/26/1 223/33/1 149/33/1 217/26/1
f 227/26/4 230/32/4 152/32/4 154/26/4
f 193/32/3 156/20/3 239/20/3 244/32/3
f 231/32/4 228/20/4 153/20/4 192/32/4
f 225/32/5 229/26/5 254/26/5 237/32/5
f 160/33/3 221/26/3 253/26/3 243/33/3
f 220/23/1 164/25/1 165/1/1 222/34/1
f 155/4/5 195/14/5 252/14/5 238/4/5
f 221/26/2 167/26/1 162/22/6 219/22/1
f 196/18/2 170/18/25 166/24/6 194/24/5
f 159/2/6 165/1/6 247/1/6 242/2/6
f 179/32/10 34/20/10 156/20/10 193/32/10
f 48/18/24 44/24/6 166/24/1 170/18/2
f 46/14/10 40/22/10 162/22/10 168/14/10
f 205/22/10 37/2/10 159/2/10 219/22/10
f 208/16/2 47/16/2 169/16/2 222/34/2
f 206/23/10 42/25/10 164/25/10 220/23/10
f 47/16/1 41/23/6 163/23/1 169/16/2
f 34/20/1 35/19/2 157/19/1 156/20/2
f 180/24/10 36/21/10 158/21/10 194/24/10
f 44/24/2 180/24/2 194/24/2 166/24/2
f 39/32/2 179/32/2 193/32/2 161/32/2
f 157/19/1 196/18/1 194/24/1 158/21/1
f 161/32/2 193/32/1 195/14/6 168/14/1
f 230/32/2 231/32/1 192/32/2 152/32/1
f 152/32/2 192/32/1 191/32/2 147/32/1
f 11/4/5 177/14/5 190/14/5 130/4/5
f 15/19/26 178/18/26 189/18/26 131/19/26
f 27/32/2 173/17/1 188/32/2 137/32/1
f 62/24/2 186/24/3 187/24/2 144/24/3
f 52/21/1 184/24/1 185/24/1 114/21/1
f 49/24/6 183/24/3 186/24/2 62/24/23
f 144/24/2 187/24/3 185/24/2 113/24/3
f 28/24/2 174/24/3 183/24/2 49/24/3
f 36/21/1 180/24/1 184/24/1 52/21/1
f 226/20/1 232/32/1 191/32/1 148/20/1
f 131/19/26 189/18/26 182/18/26 35/19/26
f 33/4/10 181/14/10 195/14/10 155/4/10
f 35/19/10 182/18/10 196/18/10 157/19/10
f 16/21/4 174/24/4 175/27/4 6/21/4
f 4/35/3 6/36/3 175/31/3 171/30/3
f 31/14/2 177/14/2 172/14/2 26/14/2
f 130/4/5 190/14/5 181/14/5 33/4/5
f 27/32/4 32/18/2 178/18/4 173/17/2
f 30/12/1 26/14/2 172/14/1 176/12/2
f 25/11/1 30/12/2 176/12/1 171/11/2
f 41/23/2 206/23/2 220/23/2 163/23/2
f 43/1/10 208/16/10 222/34/10 165/1/10
f 40/22/2 205/22/2 219/22/2 162/22/2
f 158/21/2 155/4/2 238/4/2 241/21/2
f 163/23/6 220/23/5 222/34/2 169/16/5
f 229/26/2 233/26/1 217/26/2 150/26/1
f 151/33/3 218/26/3 217/26/3 149/33/3
f 23/23/2 200/23/1 216/23/2 124/23/1
f 22/22/2 199/22/1 215/22/2 127/22/1
f 10/33/3 203/26/3 214/26/3 136/33/3
f 117/1/27 211/16/27 213/16/27 146/1/27
f 55/1/4 209/16/4 211/16/4 117/1/4
f 146/1/27 213/16/27 212/16/27 118/1/27
f 47/16/2 208/16/3 210/16/6 54/16/9
f 54/16/6 210/16/5 212/16/2 116/16/25
f 224/33/4 234/26/4 218/26/4 151/33/4
f 38/33/10 207/26/10 221/26/10 160/33/10
f 127/22/2 215/22/1 205/22/2 40/22/1
f 3/37/4 1/15/4 198/28/4 201/29/4
f 1/15/5 7/2/5 202/22/5 198/28/5
f 10/33/1 13/25/1 200/23/1 203/26/1
f 124/23/2 216/23/1 206/23/2 41/23/1
f 9/2/10 199/22/10 202/22/10 7/2/10
f 14/1/4 204/16/4 209/16/4 55/1/4
f 24/16/6 204/16/28 197/16/6 19/16/28
f 17/7/1 19/8/2 197/8/1 201/7/2
f 136/33/4 214/26/4 234/26/4 224/33/4
f 45/26/2 207/26/1 233/26/2 229/26/1
f 34/20/1 179/32/1 232/32/1 226/20/1
f 137/32/2 188/32/1 231/32/2 230/32/1
f 188/32/4 132/20/4 228/20/4 231/32/4
f 39/32/1 45/26/1 229/26/1 225/32/1
f 138/26/4 137/32/4 230/32/4 227/26/4
f 207/26/1 38/33/1 223/33/1 233/26/1
f 132/20/2 34/20/2 226/20/2 228/20/2
f 38/33/6 136/33/6 224/33/6 223/33/6
f 179/32/2 39/32/1 225/32/2 232/32/1
f 214/26/2 138/26/4 227/26/2 234/26/4
f 235/26/3 236/32/3 300/32/3 299/26/3
f 273/25/2 275/33/2 260/33/2 263/25/2
f 281/14/29 283/32/29 261/32/29 269/14/29
f 274/1/30 273/25/30 263/25/30 264/1/30
f 282/4/5 281/14/5 269/14/5 255/4/5
f 271/22/5 272/2/5 259/2/5 262/22/5
f 168/14/5 162/22/5 249/22/5 248/14/5
f 219/22/5 159/2/5 242/2/5 245/22/5
f 161/32/31 168/14/31 248/14/31 251/32/31
f 165/1/30 164/25/30 246/25/30 247/1/30
f 150/26/3 147/32/3 236/32/3 235/26/3
f 156/20/6 157/19/6 240/19/6 239/20/6
f 162/22/32 167/26/32 250/26/32 249/22/32
f 229/26/6 150/26/6 235/26/6 254/26/6
f 147/32/2 225/32/2 237/32/2 236/32/2
f 195/14/29 193/32/29 244/32/29 252/14/29
f 221/26/33 219/22/33 245/22/33 253/26/33
f 157/19/34 158/21/34 241/21/34 240/19/34
f 167/26/3 161/32/3 251/32/3 250/26/3
f 164/25/2 160/33/2 243/33/2 246/25/2
f 256/20/1 257/19/1 258/21/1 255/4/1
f 261/32/1 256/20/1 255/4/1 269/14/1
f 263/25/1 260/33/1 259/2/1 264/1/1
f 267/26/1 268/32/1 265/14/1 266/22/1
f 260/33/1 270/26/1 262/22/1 259/2/1
f 285/20/6 284/19/6 257/19/6 256/20/6
f 261/32/6 283/32/6 293/32/6 287/32/6
f 272/2/6 274/1/6 264/1/6 259/2/6
f 284/19/34 286/21/34 258/21/34 257/19/34
f 276/26/33 271/22/33 262/22/33 270/26/33
f 278/14/5 277/22/5 266/22/5 265/14/5
f 286/21/2 282/4/2 255/4/2 258/21/2
f 277/22/32 279/26/32 267/26/32 266/22/32
f 285/20/2 256/20/2 288/20/2 298/20/2
f 279/26/4 280/32/4 297/32/4 296/26/4
f 280/32/31 278/14/31 265/14/31 268/32/31
f 253/26/33 245/22/33 271/22/33 276/26/33
f 242/2/6 247/1/6 274/1/6 272/2/6
f 243/33/3 253/26/3 276/26/3 275/33/3
f 245/22/5 242/2/5 272/2/5 271/22/5
f 247/1/30 246/25/30 273/25/30 274/1/30
f 246/25/2 243/33/2 275/33/2 273/25/2
f 251/32/31 248/14/31 278/14/31 280/32/31
f 250/26/3 251/32/3 280/32/3 279/26/3
f 249/22/32 250/26/32 279/26/32 277/22/32
f 248/14/5 249/22/5 277/22/5 278/14/5
f 244/32/3 239/20/3 285/20/3 283/32/3
f 241/21/2 238/4/2 282/4/2 286/21/2
f 240/19/34 241/21/34 286/21/34 284/19/34
f 239/20/6 240/19/6 284/19/6 285/20/6
f 238/4/5 252/14/5 281/14/5 282/4/5
f 252/14/29 244/32/29 283/32/29 281/14/29
f 294/33/3 295/26/3 292/26/3 291/33/3
f 296/26/3 297/32/3 290/32/3 289/26/3
f 293/32/3 298/20/3 288/20/3 287/32/3
f 256/20/1 261/32/1 287/32/1 288/20/1
f 268/32/1 267/26/1 289/26/1 290/32/1
f 276/26/2 270/26/2 292/26/2 295/26/2
f 270/26/1 260/33/1 291/33/1 292/26/1
f 275/33/4 276/26/4 295/26/4 294/33/4
f 260/33/6 275/33/6 294/33/6 291/33/6
f 267/26/6 279/26/6 296/26/6 289/26/6
f 283/32/4 285/20/4 298/20/4 293/32/4
f 280/32/2 268/32/2 290/32/2 297/32/2
f 301/32/1 302/26/1 299/26/1 300/32/1
f 254/26/6 235/26/6 299/26/6 302/26/6
f 236/32/2 237/32/2 301/32/2 300/32/2
f 237/32/5 254/26/5 302/26/5 301/32/5
o Cube.001
v -15.000000 0.000000 5.000000
v -15.000000 7.499999 5.000000
v -15.000000 0.000000 -5.000000
v -15.000000 7.499999 -5.000000
v -14.000000 0.000000 5.000000
v -14.000000 7.499999 5.000000
v -14.000000 0.000000 -5.000000
v -14.000000 7.499999 -5.000000
v -15.000000 0.000000 4.500000
v -15.000000 7.499999 4.500000
v -14.000000 0.000000 4.500000
v -14.000000 7.499999 4.500000
v -15.000000 7.499999 -4.500000
v -14.000000 0.000000 -4.500000
v -15.000000 0.000000 -4.500000
v -14.000000 7.499999 -4.500000
v -4.537697 7.499999 4.500000
v -4.537697 7.499999 5.000000
v -4.537697 0.000000 5.000000
v -4.537697 0.000000 4.500000
v -4.524955 7.499999 -5.000000
v -4.524955 0.000000 -5.000000
v -4.524955 0.000000 -4.500000
v -4.524955 7.499999 -4.500000
vn -1.0000 -0.0000 -0.0000
vn -0.0000 -0.0000 -1.0000
vn -0.0000 -1.0000 -0.0000
vn -0.0000 -0.0000 1.0000
vn -0.0000 1.0000 -0.0000
vn 1.0000 -0.0000 -0.0000
vt 0.375000 0.233998
vt 0.625000 0.233998
vt 0.625000 0.250000
vt 0.375000 0.250000
vt 0.625000 0.500000
vt 0.375000 0.500000
vt 0.375000 0.750000
vt 0.375000 0.737686
vt 0.625000 0.750000
vt 0.625000 1.000000
vt 0.375000 1.000000
vt 0.125000 0.737686
vt 0.125000 0.750000
vt 0.625000 0.737687
vt 0.875000 0.737686
vt 0.875000 0.750000
vt 0.625000 0.516002
vt 0.875000 0.516002
vt 0.125000 0.516002
vt 0.375000 0.516002
vt 0.375000 0.000000
vt 0.625000 0.000000
vt 0.625000 0.012313
vt 0.375000 0.012314
vt 0.125000 0.500000
vt 0.875000 0.500000
s 0
f 317/38/35 315/39/35 306/40/35 305/41/35
f 305/41/36 306/40/36 310/42/36 309/43/36
f 307/44/37 313/45/37 322/45/37 321/44/37
f 307/44/38 308/46/38 304/47/38 303/48/38
f 311/49/37 313/45/37 307/44/37 303/50/37
f 314/51/39 312/52/39 304/53/39 308/46/39
f 318/54/39 315/55/39 312/52/39 314/51/39
f 317/56/37 316/57/37 313/45/37 311/49/37
f 316/57/40 318/54/40 314/51/40 313/45/40
f 303/58/35 304/59/35 312/60/35 311/61/35
f 310/42/39 318/54/39 326/54/39 323/42/39
f 305/62/37 309/43/37 316/57/37 317/56/37
f 310/42/39 306/63/39 315/55/39 318/54/39
f 311/61/35 312/60/35 315/39/35 317/38/35
f 322/45/40 319/51/40 320/46/40 321/44/40
f 314/51/39 308/46/39 320/46/39 319/51/39
f 308/46/38 307/44/38 321/44/38 320/46/38
f 313/45/36 314/51/36 319/51/36 322/45/36
f 324/43/40 323/42/40 326/54/40 325/57/40
f 309/43/36 310/42/36 323/42/36 324/43/36
f 318/54/38 316/57/38 325/57/38 326/54/38
f 316/57/37 309/43/37 324/43/37 325/57/37
