# Blender 4.1.1
# www.blender.org
mtllib othermap.mtl
o Cube
v 5.278786 -0.111735 -4.974004
v 5.278786 -0.111735 4.974004
v -5.278786 -0.111735 -4.974004
v -5.278786 -0.111735 4.974004
v 5.278786 0.111735 4.974004
v -5.278786 0.111735 4.974004
v 5.278786 0.111735 -4.974004
v -5.278786 0.111735 -4.974004
v 5.278786 0.111735 -4.974004
v 4.805309 0.111735 -4.500526
v 5.278786 0.111735 4.974004
v 4.805309 0.111735 4.500526
v -4.805309 0.111735 -4.500526
v -5.278786 0.111735 -4.974004
v -4.805309 0.111735 4.500526
v -5.278786 0.111735 4.974004
v -5.278786 -0.111735 -1.025064
v 5.278786 0.111735 -1.025064
v -5.278786 0.111735 -1.025064
v 5.278786 -0.111735 -1.025064
v 4.805309 0.111735 -0.924809
v 5.278786 0.111735 -1.025064
v -4.800067 0.111735 -0.976746
v -5.284028 0.111735 -0.973127
v -5.278786 -0.111735 1.021066
v 5.278786 0.111735 1.021066
v 4.805309 0.111735 0.936802
v -5.282492 0.111735 0.981528
v -5.278786 0.111735 1.021066
v 5.278786 -0.111735 1.021066
v 5.278786 0.111735 1.021066
v -4.801603 0.111735 0.976340
v 5.278786 3.628205 4.974004
v 4.805309 3.628205 4.500526
v -4.805309 3.628205 4.500526
v -5.278786 3.628205 4.974004
v 5.278786 3.628205 -4.974004
v 4.805309 3.628205 -4.500526
v 4.805309 3.628205 0.936802
v 5.278786 3.628205 -1.025064
v -4.800067 3.628205 -0.976746
v -4.805309 3.628205 -4.500526
v -5.278786 3.628205 -4.974004
v -5.282492 3.628205 0.981528
v 4.805309 3.628205 -0.924809
v 5.278786 3.628205 1.021066
v -5.284028 3.628205 -0.973127
v -4.801603 3.628205 0.976340
v -9.501853 0.111735 0.985422
v -9.498147 0.111735 4.977898
v -9.501853 3.628205 0.985422
v -9.498147 3.628205 4.977898
v -9.502622 0.111735 -0.977451
v -9.502622 3.628205 -0.977451
v -9.497379 0.111735 -4.978328
v -9.497379 3.628205 -4.978328
v -9.500000 0.111735 1.021066
v -9.500000 0.111735 -1.025064
v -9.500000 -0.111735 -1.025064
v -9.500000 -0.111735 1.021066
v -13.998148 0.111735 4.977315
v -14.001854 0.111735 0.984840
v -9.500000 3.626126 1.021066
v -9.500000 3.626126 -1.025064
v -5.278786 0.111735 1.021066
v -9.469044 3.626126 1.021066
v -5.627975 0.111735 1.021066
v -5.627975 0.431225 1.021066
v -5.977162 0.431225 1.021066
v -5.977162 0.750715 1.021066
v -6.326351 0.750715 1.021066
v -6.326351 1.070206 1.021066
v -6.675539 1.070206 1.021066
v -6.675539 1.389696 1.021066
v -7.024727 1.389696 1.021066
v -7.024727 1.709186 1.021066
v -7.373915 1.709186 1.021066
v -7.373915 2.028676 1.021066
v -7.723103 2.028676 1.021066
v -7.723103 2.348166 1.021066
v -8.072291 2.348166 1.021066
v -8.072291 2.667656 1.021066
v -8.421479 2.667656 1.021066
v -8.421479 2.987146 1.021066
v -8.770667 2.987146 1.021066
v -8.770667 3.306636 1.021066
v -9.119856 3.306636 1.021066
v -9.119856 3.626126 1.021066
v -9.469044 3.626126 -1.025064
v -5.278786 0.111735 -1.025064
v -9.119856 3.626126 -1.025064
v -9.119856 3.306636 -1.025064
v -8.770667 3.306636 -1.025064
v -8.770667 2.987146 -1.025064
v -8.421479 2.987146 -1.025064
v -8.421479 2.667656 -1.025064
v -8.072291 2.667656 -1.025064
v -8.072291 2.348166 -1.025064
v -7.723103 2.348166 -1.025064
v -7.723103 2.028676 -1.025064
v -7.373915 2.028676 -1.025064
v -7.373915 1.709186 -1.025064
v -7.024727 1.709186 -1.025064
v -7.024727 1.389696 -1.025064
v -6.675539 1.389696 -1.025064
v -6.675539 1.070206 -1.025064
v -6.326351 1.070206 -1.025064
v -6.326351 0.750715 -1.025064
v -5.977162 0.750715 -1.025064
v -5.977162 0.431225 -1.025064
v -5.627975 0.431225 -1.025064
v -5.627975 0.111735 -1.025064
v -14.001854 3.628205 0.984840
v -13.998148 3.628205 4.977315
v -14.002623 0.111735 -0.978033
v -14.002623 3.628205 -0.978033
v -13.997379 0.111735 -4.978910
v -13.997379 3.628205 -4.978910
v -14.000000 0.111735 1.020484
v -14.000000 0.111735 -1.025646
v -14.000000 3.626126 1.020484
v -14.000000 3.626126 -1.025646
v -5.284028 3.196538 -0.973127
v -4.800067 3.196538 -0.976746
v -4.805309 3.196538 -4.500526
v 5.278786 3.196538 1.021066
v 5.278786 3.196538 -1.025064
v 5.278786 3.196538 -4.974004
v -5.278786 3.196538 -4.974004
v 5.278786 3.196538 4.974004
v -4.805309 3.196538 4.500526
v 4.805309 3.196538 4.500526
v -5.278786 3.196538 4.974004
v -5.282492 3.196538 0.981528
v -4.801603 3.196538 0.976340
v 4.805309 3.196538 -4.500526
v 4.805309 3.196538 0.936802
v 4.805309 3.196538 -0.924809
v -9.498147 3.196538 4.977898
v -9.501853 3.196538 0.985422
v -9.502622 3.196538 -0.977451
v -9.497379 3.196538 -4.978328
v -14.002623 3.196538 -0.978033
v -14.001854 3.196538 0.984840
v -13.998148 3.196538 4.977315
v -13.997379 3.196538 -4.978910
v -5.267207 3.628205 0.936802
v -5.267207 3.628205 4.500526
v -5.267207 3.628205 -4.500526
v -5.267207 3.628205 -0.924809
v -5.267207 3.196538 -4.500526
v -5.267207 3.196538 0.936802
v -5.267207 3.196538 4.500526
v -5.267207 3.196538 -0.924809
v 5.278786 3.628205 4.974004
v 4.805309 3.628205 4.500526
v -4.805309 3.628205 4.500526
v -5.278786 3.628205 4.974004
v 5.278786 3.628205 -4.974004
v 4.805309 3.628205 -4.500526
v 4.805309 3.628205 0.936802
v 5.278786 3.628205 -1.025064
v -4.800067 3.628205 -0.976746
v -4.805309 3.628205 -4.500526
v -5.278786 3.628205 -4.974004
v -5.282492 3.628205 0.981528
v 4.805309 3.628205 -0.924809
v 5.278786 3.628205 1.021066
v -5.284028 3.628205 -0.973127
v -4.801603 3.628205 0.976340
v -5.278786 -0.111735 1.021066
v 5.278786 0.111735 1.021066
v 4.805309 0.111735 0.936802
v -5.282492 0.111735 0.981528
v -5.278786 0.111735 1.021066
v 5.278786 -0.111735 1.021066
v 5.278786 0.111735 1.021066
v -4.801603 0.111735 0.976340
v 4.805309 3.628205 0.936802
v -5.282492 3.628205 0.981528
v 5.278786 3.628205 1.021066
v -4.801603 3.628205 0.976340
v -9.501853 0.111735 0.985422
v -9.501853 3.628205 0.985422
v -14.001854 3.628205 0.984840
v -14.001854 0.111735 0.984840
v -14.001854 3.196538 0.984840
v 4.805309 3.196538 0.936802
v -4.801603 3.196538 0.976340
v 5.278786 3.196538 1.021066
v -5.267207 3.628205 0.936802
v -5.267207 3.196538 0.936802
v 4.805309 3.628205 0.936802
v -5.282492 3.628205 0.981528
v 5.278786 3.628205 1.021066
v -4.801603 3.628205 0.976340
v -5.278786 0.111735 -1.025064
v 5.278786 -0.111735 -1.025064
v 5.278786 0.111735 -1.025064
v -4.800067 0.111735 -0.976746
v -5.278786 -0.111735 -1.025064
v 5.278786 0.111735 -1.025064
v 4.805309 0.111735 -0.924809
v -5.284028 0.111735 -0.973127
v 5.278786 3.628205 -1.025064
v -4.800067 3.628205 -0.976746
v 4.805309 3.628205 -0.924809
v -5.284028 3.628205 -0.973127
v -9.502622 0.111735 -0.977451
v -9.502622 3.628205 -0.977451
v -14.002623 0.111735 -0.978033
v -14.002623 3.628205 -0.978033
v -14.002623 3.196538 -0.978033
v 4.805309 3.196538 -0.924809
v 5.278786 3.196538 -1.025064
v -4.800067 3.196538 -0.976746
v -5.267207 3.628205 -0.924809
v -5.267207 3.196538 -0.924809
v 5.278786 3.628205 -1.025064
v -4.800067 3.628205 -0.976746
v 4.805309 3.628205 -0.924809
v -5.284028 3.628205 -0.973127
v -4.788161 3.628205 -4.500526
v -4.788161 3.196538 -4.500526
v -4.788161 3.628205 0.936802
v -4.788161 3.628205 4.500526
v -4.788161 3.196538 -0.924809
v -4.788161 3.196538 4.500526
v -4.788161 3.628205 -0.924809
v -4.788161 3.196538 0.936802
v -4.788161 3.196538 0.936802
v -4.788161 3.628205 0.936802
v -4.788161 3.628205 -0.924809
v -4.788161 3.196538 -0.924809
v -5.267207 6.500000 -0.924809
v -5.267207 6.500000 0.936802
v -4.788161 6.500000 0.936802
v 5.278786 6.500000 4.974004
v 4.805309 6.500000 4.500526
v -4.805309 6.500000 4.500526
v -5.278786 6.500000 4.974004
v 5.278786 6.500000 -4.974004
v 4.805309 6.500000 -4.500526
v 4.805309 6.500000 0.936802
v 5.278786 6.500000 -1.025064
v -4.805309 6.500000 -4.500526
v -5.278786 6.500000 -4.974004
v 5.278786 6.500000 1.021066
v 5.278786 6.500000 -1.025064
v 4.805309 6.500000 -0.924809
v 4.805309 6.500000 0.936802
v 5.278786 6.500000 1.021066
v 4.805309 6.500000 -0.924809
v -4.788161 6.500000 -0.924809
v 5.278786 7.403913 4.974004
v 4.805309 7.403913 4.500526
v -4.805309 7.403913 4.500526
v -5.278786 7.403913 4.974004
v 5.278786 7.403913 -4.974004
v 4.805309 7.403913 -4.500526
v 4.805309 7.403913 0.936802
v 5.278786 7.403913 -1.025064
v -4.805309 7.403913 -4.500526
v -5.278786 7.403913 -4.974004
v 5.278786 7.403913 1.021066
v 5.278786 7.403913 -1.025064
v 4.805309 7.403913 -0.924809
v 4.805309 7.403913 0.936802
v 5.278786 7.403913 1.021066
v 4.805309 7.403913 -0.924809
v 5.278786 6.951957 -1.025064
v 5.278786 6.951957 -4.974004
v -4.805309 6.951957 -4.500526
v -5.278786 6.951957 -4.974004
v 4.805309 6.951957 -4.500526
v 4.805309 6.951957 -0.924809
v 5.278786 6.993044 -1.025064
v 5.278786 6.993044 1.021066
v 4.805309 6.993044 -0.924809
v 4.805309 6.993044 0.936802
v 5.278786 6.951957 1.021066
v 5.278786 6.951957 4.974004
v 4.805309 6.951957 0.936802
v -4.805309 6.951957 4.500526
v 4.805309 6.951957 4.500526
v -5.278786 6.951957 4.974004
v -4.742548 7.403913 0.936802
v -4.742548 7.403913 4.500526
v -4.742548 7.403913 -0.924809
v -4.742548 7.403913 0.936802
v -4.742548 7.403913 -4.500526
v -4.742548 7.403913 -0.924809
v -4.742548 6.951957 0.936802
v -4.742548 6.951957 -4.500526
v -4.742548 6.951957 -0.924809
v -4.742548 6.993044 -0.924809
v -4.742548 6.993044 0.936802
v -4.742548 6.951957 4.500526
v -5.267207 7.402538 -0.924809
v -5.267207 7.402538 0.936802
v -4.788161 7.402538 0.936802
v -4.788161 7.402538 -0.924809
vn -0.0000 1.0000 -0.0000
vn -0.0000 -0.0000 1.0000
vn -1.0000 -0.0000 -0.0000
vn -0.0000 -1.0000 -0.0000
vn 1.0000 -0.0000 -0.0000
vn -0.0000 -0.0000 -1.0000
vn 0.0009 -0.0000 1.0000
vn 1.0000 -0.0000 -0.0015
vn 0.0075 -0.0000 1.0000
vn -0.0108 -0.0000 -0.9999
vn -0.0009 -0.0000 -1.0000
vn 0.0001 -0.0000 -1.0000
vn 0.0010 -0.0000 -1.0000
vn -0.0010 -0.0000 1.0000
vn -1.0000 -0.0000 0.0009
vn -0.0001 -0.0000 1.0000
vn 1.0000 -0.0000 0.0011
vn -1.0000 -0.0000 -0.0013
vn -0.7071 0.7071 -0.0000
vn 0.1752 -0.0000 -0.9845
vn -0.7071 -0.0000 0.7071
vn -0.1752 -0.0000 0.9845
vn -0.2071 -0.0000 -0.9783
vn 0.2071 -0.0000 0.9783
vn -0.7071 -0.0000 -0.7071
vt 0.875000 0.500000
vt 0.625000 0.500000
vt 0.375000 0.750000
vt 0.625000 0.750000
vt 0.625000 1.000000
vt 0.375000 1.000000
vt 0.375000 0.151468
vt 0.625000 0.151468
vt 0.625000 0.250000
vt 0.375000 0.250000
vt 0.125000 0.647246
vt 0.375000 0.647246
vt 0.125000 0.750000
vt 0.625000 0.647246
vt 0.375000 0.500000
vt 0.875000 0.598532
vt 0.636218 0.645056
vt 0.863788 0.645128
vt 0.863788 0.738101
vt 0.636212 0.738101
vt 0.875000 0.750000
vt 0.875000 0.750000
vt 0.636212 0.738101
vt 0.863788 0.738101
vt 0.625000 0.647246
vt 0.625000 0.598532
vt 0.863788 0.645128
vt 0.863788 0.601052
vt 0.875000 0.647246
vt 0.863788 0.601052
vt 0.863788 0.511899
vt 0.863788 0.511899
vt 0.636212 0.601052
vt 0.863788 0.601052
vt 0.636212 0.601052
vt 0.875000 0.647241
vt 0.375000 0.598532
vt 0.375000 0.598532
vt 0.125000 0.598532
vt 0.375000 0.102754
vt 0.625000 0.102754
vt 0.875000 0.647246
vt 0.636212 0.645129
vt 0.636212 0.511899
vt 0.863788 0.645128
vt 0.625000 0.750000
vt 0.636212 0.601052
vt 0.636212 0.645129
vt 0.636212 0.511899
vt 0.875000 0.598532
vt 0.875000 0.647246
vt 0.875000 0.647246
vt 0.875000 0.598532
vt 0.375000 0.151468
vt 0.875000 0.750000
vt 0.625000 0.102754
vt 0.625000 0.102754
vt 0.625000 0.102754
vt 0.625000 0.102754
vt 0.625000 0.102754
vt 0.625000 0.102754
vt 0.625000 0.151468
vt 0.625000 0.151468
vt 0.625000 0.151468
vt 0.625000 0.151468
vt 0.625000 0.151468
vt 0.875000 0.647241
vt 0.875000 0.598532
vt 0.636212 0.738101
vt 0.636212 0.738101
vt 0.875056 0.599101
vt 0.375000 0.000000
vt 0.625000 0.000000
vt 0.125000 0.500000
s 0
usemtl Material
f 14/1/1 9/2/1 7/2/1 8/1/1
f 2/3/2 5/4/2 6/5/2 4/6/2
f 201/7/3 197/8/3 8/9/3 3/10/3
f 171/11/4 176/12/4 2/3/4 4/13/4
f 176/12/5 172/14/5 5/4/5 2/3/5
f 3/10/6 8/9/6 7/2/6 1/15/6
f 204/16/4 14/1/4 8/1/4 197/16/4
f 173/17/1 178/18/1 15/19/1 12/20/1
f 11/4/1 16/21/1 6/21/1 5/4/1
f 133/22/7 36/21/7 52/21/7 139/21/7
f 132/23/6 131/24/6 35/19/6 34/20/6
f 190/25/1 126/25/1 46/25/1 181/25/1
f 204/16/3 24/16/3 53/16/3 209/16/3
f 177/25/1 11/4/1 5/4/1 172/14/1
f 199/26/1 22/26/1 18/26/1 202/26/1
f 32/27/1 23/28/1 24/16/1 28/29/1
f 216/30/8 125/31/8 42/32/8 206/28/8
f 203/33/1 200/34/1 23/28/1 21/35/1
f 28/29/4 24/16/4 19/16/4 29/36/4
f 198/37/1 202/26/1 18/26/1 20/38/1
f 201/39/1 198/37/1 20/38/1 17/39/1
f 17/39/4 25/11/4 60/11/4 59/39/4
f 171/40/1 175/41/1 29/41/1 25/40/1
f 174/42/1 28/29/1 29/36/1 175/36/1
f 126/25/5 127/26/5 40/26/5 46/25/5
f 22/26/3 31/25/3 26/14/3 18/26/3
f 215/26/5 128/2/5 37/2/5 205/26/5
f 21/35/1 23/28/1 32/27/1 27/43/1
f 20/38/5 18/26/5 26/14/5 30/12/5
f 17/39/4 20/38/4 30/12/4 25/11/4
f 207/35/1 45/35/1 167/35/1 221/35/1
f 182/27/1 48/27/1 170/27/1 196/27/1
f 37/2/1 43/1/1 165/1/1 159/2/1
f 181/25/1 46/25/1 168/25/1 195/25/1
f 36/21/1 33/4/1 155/4/1 158/21/1
f 42/32/1 38/44/1 160/44/1 164/32/1
f 45/35/1 39/43/1 161/43/1 167/35/1
f 189/45/3 135/45/3 48/27/3 182/27/3
f 125/31/2 136/44/2 38/44/2 42/32/2
f 123/16/9 124/30/9 41/28/9 47/16/9
f 133/22/2 130/46/2 33/4/2 36/21/2
f 128/2/6 129/1/6 43/1/6 37/2/6
f 234/33/4 227/47/4 154/35/4 218/33/4
f 135/45/10 134/29/10 44/29/10 48/27/10
f 232/43/1 225/48/1 147/43/1 191/43/1
f 223/44/6 224/49/6 151/44/6 149/44/6
f 210/16/1 56/1/1 118/1/1 212/50/1
f 180/51/5 44/29/5 51/29/5 184/52/5
f 174/42/4 16/21/4 50/21/4 183/29/4
f 134/29/11 28/29/11 49/29/11 140/29/11
f 140/29/12 49/29/12 62/29/12 144/29/12
f 129/1/13 14/1/13 55/1/13 142/1/13
f 123/16/14 47/16/14 54/16/14 141/53/14
f 208/16/1 43/1/1 56/1/1 210/16/1
f 60/40/3 57/41/3 58/8/3 59/54/3
f 19/8/6 17/54/6 59/54/6 58/8/6
f 187/29/15 145/55/15 114/21/15 185/42/15
f 25/40/2 29/41/2 57/41/2 60/40/2
f 57/41/2 29/41/2 65/41/2 67/41/2 68/56/2 69/57/2 70/41/2 71/41/2 72/57/2 73/58/2 74/58/2 75/59/2 76/59/2 77/59/2 78/59/2 79/41/2 80/41/2 81/58/2 82/60/2 83/60/2 84/58/2 85/58/2 86/59/2 87/61/2 88/41/2 66/41/2 63/41/2
f 57/41/16 63/41/16 121/41/16 119/41/16
f 19/8/6 58/8/6 64/8/6 89/62/6 91/8/6 92/8/6 93/63/6 94/63/6 95/64/6 96/62/6 97/8/6 98/8/6 99/63/6 100/8/6 101/65/6 102/64/6 103/8/6 104/8/6 105/8/6 106/62/6 107/8/6 108/65/6 109/8/6 110/8/6 111/66/6 112/8/6 90/8/6
f 66/36/1 89/16/1 64/16/1 63/36/1
f 65/36/1 90/16/1 112/16/1 67/36/1
f 67/36/5 112/16/5 111/16/5 68/36/5
f 68/36/1 111/16/1 110/16/1 69/36/1
f 69/36/5 110/16/5 109/16/5 70/36/5
f 70/36/1 109/16/1 108/16/1 71/36/1
f 71/36/5 108/16/5 107/16/5 72/36/5
f 72/36/1 107/16/1 106/16/1 73/36/1
f 73/36/5 106/16/5 105/16/5 74/36/5
f 74/36/1 105/16/1 104/16/1 75/36/1
f 75/36/5 104/16/5 103/16/5 76/36/5
f 76/36/1 103/16/1 102/16/1 77/36/1
f 77/36/5 102/16/5 101/16/5 78/36/5
f 78/36/1 101/16/1 100/16/1 79/36/1
f 79/36/5 100/16/5 99/16/5 80/36/5
f 80/36/1 99/16/1 98/16/1 81/67/1
f 81/67/5 98/16/5 97/16/5 82/67/5
f 82/67/1 97/16/1 96/16/1 83/36/1
f 83/36/5 96/16/5 95/16/5 84/36/5
f 84/36/1 95/16/1 94/16/1 85/36/1
f 85/36/5 94/16/5 93/16/5 86/36/5
f 86/36/1 93/16/1 92/16/1 87/36/1
f 87/36/5 92/16/5 91/16/5 88/36/5
f 88/36/1 91/16/1 89/16/1 66/36/1
f 29/36/1 19/16/1 90/16/1 65/36/1
f 213/68/1 143/16/1 116/16/1 212/50/1
f 120/8/3 119/41/3 121/41/3 122/8/3
f 183/29/4 50/21/4 61/21/4 186/29/4
f 64/8/12 58/8/12 120/8/12 122/8/12
f 142/1/12 55/1/12 117/1/12 146/1/12
f 184/52/3 51/29/3 113/29/3 185/42/3
f 63/36/1 64/16/1 122/16/1 121/36/1
f 141/53/16 54/16/16 116/16/16 143/16/16
f 139/21/16 52/21/16 114/21/16 145/55/16
f 209/16/1 53/16/1 115/16/1 211/16/1
f 58/8/4 57/41/4 119/41/4 120/8/4
f 50/21/16 139/21/16 145/55/16 61/21/16
f 53/16/16 141/53/16 143/16/16 115/16/16
f 56/1/12 142/1/12 146/1/12 118/1/12
f 211/16/1 115/16/1 143/16/1 213/68/1
f 186/29/15 61/21/15 145/55/15 187/29/15
f 24/16/14 123/16/14 141/53/14 53/16/14
f 43/1/13 129/1/13 142/1/13 56/1/13
f 51/29/12 140/29/12 144/29/12 113/29/12
f 44/29/11 134/29/11 140/29/11 51/29/11
f 203/33/3 21/35/3 138/35/3 214/35/3
f 173/17/3 12/20/3 132/23/3 188/43/3
f 32/27/10 28/29/10 134/29/10 135/45/10
f 21/35/3 27/43/3 137/43/3 138/35/3
f 9/2/6 14/1/6 129/1/6 128/2/6
f 16/21/2 11/4/2 130/46/2 133/22/2
f 24/16/9 23/28/9 124/30/9 123/16/9
f 13/32/2 10/44/2 136/44/2 125/31/2
f 178/18/3 32/27/3 135/45/3 189/45/3
f 199/26/5 9/2/5 128/2/5 215/26/5
f 31/25/5 22/26/5 127/26/5 126/25/5
f 200/34/8 13/32/8 125/31/8 216/30/8
f 177/25/1 31/25/1 126/25/1 190/25/1
f 12/20/6 15/19/6 131/24/6 132/23/6
f 16/21/7 133/22/7 139/21/7 50/21/7
f 154/35/3 152/43/3 147/43/3 150/35/3
f 192/43/3 153/23/3 148/20/3 191/43/3
f 218/33/3 154/35/3 150/35/3 217/35/3
f 228/69/2 226/70/2 148/20/2 153/23/2
f 233/47/1 223/44/1 149/44/1 217/35/1
f 227/47/4 230/43/4 152/43/4 154/35/4
f 193/43/3 156/20/3 239/20/3 244/43/3
f 231/48/4 228/69/4 153/23/4 192/43/4
f 225/48/5 229/35/5 254/35/5 237/48/5
f 160/44/3 221/35/3 253/35/3 243/44/3
f 220/28/1 164/32/1 165/1/1 222/71/1
f 155/4/5 195/25/5 252/25/5 238/4/5
f 221/35/1 167/35/1 162/26/1 219/26/1
f 196/27/5 170/27/5 166/29/5 194/29/5
f 159/2/6 165/1/6 247/1/6 242/2/6
f 179/43/1 34/20/1 156/20/1 193/43/1
f 48/27/1 44/29/1 166/29/1 170/27/1
f 46/25/1 40/26/1 162/26/1 168/25/1
f 205/26/1 37/2/1 159/2/1 219/26/1
f 208/16/1 47/16/1 169/16/1 222/71/1
f 206/28/1 42/32/1 164/32/1 220/28/1
f 47/16/1 41/28/1 163/28/1 169/16/1
f 34/20/1 35/19/1 157/19/1 156/20/1
f 180/51/1 36/21/1 158/21/1 194/29/1
f 44/29/1 180/51/1 194/29/1 166/29/1
f 39/43/1 179/43/1 193/43/1 161/43/1
f 157/19/1 196/27/1 194/29/1 158/21/1
f 161/43/1 193/43/1 195/25/1 168/25/1
f 230/43/1 231/48/1 192/43/1 152/43/1
f 152/43/1 192/43/1 191/43/1 147/43/1
f 11/4/5 177/25/5 190/25/5 130/46/5
f 15/19/17 178/18/17 189/45/17 131/24/17
f 27/43/1 173/17/1 188/43/1 137/43/1
f 62/29/3 186/29/3 187/29/3 144/29/3
f 52/21/1 184/52/1 185/42/1 114/21/1
f 49/29/3 183/29/3 186/29/3 62/29/3
f 144/29/3 187/29/3 185/42/3 113/29/3
f 28/29/3 174/42/3 183/29/3 49/29/3
f 36/21/1 180/51/1 184/52/1 52/21/1
f 226/70/1 232/43/1 191/43/1 148/20/1
f 131/24/17 189/45/17 182/27/17 35/19/17
f 33/4/1 181/25/1 195/25/1 155/4/1
f 35/19/1 182/27/1 196/27/1 157/19/1
f 16/21/4 174/42/4 175/36/4 6/21/4
f 4/72/3 6/73/3 175/41/3 171/40/3
f 31/25/1 177/25/1 172/14/1 26/25/1
f 130/46/5 190/25/5 181/25/5 33/4/5
f 27/43/4 32/27/4 178/18/4 173/17/4
f 30/12/1 26/14/1 172/14/1 176/12/1
f 25/11/1 30/12/1 176/12/1 171/11/1
f 41/28/1 206/28/1 220/28/1 163/28/1
f 43/1/1 208/16/1 222/71/1 165/1/1
f 40/26/1 205/26/1 219/26/1 162/26/1
f 158/21/2 155/4/2 238/4/2 241/21/2
f 163/28/5 220/28/5 222/71/5 169/16/5
f 229/35/1 233/47/1 217/35/1 150/35/1
f 151/44/3 218/33/3 217/35/3 149/44/3
f 23/28/1 200/34/1 216/30/1 124/30/1
f 22/26/1 199/26/1 215/26/1 127/26/1
f 10/44/3 203/33/3 214/35/3 136/44/3
f 117/1/18 211/16/18 213/68/18 146/1/18
f 55/1/4 209/16/4 211/16/4 117/1/4
f 146/1/18 213/68/18 212/50/18 118/1/18
f 47/16/3 208/16/3 210/16/3 54/16/3
f 54/16/5 210/16/5 212/50/5 116/16/5
f 224/49/4 234/33/4 218/33/4 151/44/4
f 38/44/1 207/35/1 221/35/1 160/44/1
f 127/26/1 215/26/1 205/26/1 40/26/1
f 3/74/4 1/15/4 198/37/4 201/39/4
f 1/15/5 7/2/5 202/26/5 198/37/5
f 10/44/1 13/32/1 200/34/1 203/33/1
f 124/30/1 216/30/1 206/28/1 41/28/1
f 9/2/1 199/26/1 202/26/1 7/2/1
f 14/1/4 204/16/4 209/16/4 55/1/4
f 24/16/19 204/16/19 197/16/19 19/16/19
f 17/54/1 19/8/1 197/8/1 201/7/1
f 136/44/4 214/35/4 234/33/4 224/49/4
f 45/35/1 207/35/1 233/47/1 229/35/1
f 34/20/1 179/43/1 232/43/1 226/70/1
f 137/43/1 188/43/1 231/48/1 230/43/1
f 188/43/4 132/23/4 228/69/4 231/48/4
f 39/43/1 45/35/1 229/35/1 225/48/1
f 138/35/4 137/43/4 230/43/4 227/47/4
f 207/35/1 38/44/1 223/44/1 233/47/1
f 132/23/2 34/20/2 226/70/2 228/69/2
f 38/44/6 136/44/6 224/49/6 223/44/6
f 179/43/1 39/43/1 225/48/1 232/43/1
f 214/35/4 138/35/4 227/47/4 234/33/4
f 235/35/3 236/43/3 300/43/3 299/35/3
f 273/32/2 275/44/2 260/44/2 263/32/2
f 281/25/20 283/43/20 261/43/20 269/25/20
f 274/1/21 273/32/21 263/32/21 264/1/21
f 282/4/5 281/25/5 269/25/5 255/4/5
f 271/26/5 272/2/5 259/2/5 262/26/5
f 168/25/5 162/26/5 249/26/5 248/25/5
f 219/26/5 159/2/5 242/2/5 245/26/5
f 161/43/22 168/25/22 248/25/22 251/43/22
f 165/1/21 164/32/21 246/32/21 247/1/21
f 150/35/3 147/43/3 236/43/3 235/35/3
f 156/20/6 157/19/6 240/19/6 239/20/6
f 162/26/23 167/35/23 250/35/23 249/26/23
f 229/35/6 150/35/6 235/35/6 254/35/6
f 147/43/2 225/48/2 237/48/2 236/43/2
f 195/25/20 193/43/20 244/43/20 252/25/20
f 221/35/24 219/26/24 245/26/24 253/35/24
f 157/19/25 158/21/25 241/21/25 240/19/25
f 167/35/3 161/43/3 251/43/3 250/35/3
f 164/32/2 160/44/2 243/44/2 246/32/2
f 256/20/1 257/19/1 258/21/1 255/4/1
f 261/43/1 256/20/1 255/4/1 269/25/1
f 263/32/1 260/44/1 259/2/1 264/1/1
f 267/35/1 268/43/1 265/25/1 266/26/1
f 260/44/1 270/35/1 262/26/1 259/2/1
f 285/20/6 284/19/6 257/19/6 256/20/6
f 261/43/6 283/43/6 293/43/6 287/43/6
f 272/2/6 274/1/6 264/1/6 259/2/6
f 284/19/25 286/21/25 258/21/25 257/19/25
f 276/35/24 271/26/24 262/26/24 270/35/24
f 278/25/5 277/26/5 266/26/5 265/25/5
f 286/21/2 282/4/2 255/4/2 258/21/2
f 277/26/23 279/35/23 267/35/23 266/26/23
f 285/20/2 256/20/2 288/20/2 298/20/2
f 279/35/4 280/43/4 297/43/4 296/35/4
f 280/43/22 278/25/22 265/25/22 268/43/22
f 253/35/24 245/26/24 271/26/24 276/35/24
f 242/2/6 247/1/6 274/1/6 272/2/6
f 243/44/3 253/35/3 276/35/3 275/44/3
f 245/26/5 242/2/5 272/2/5 271/26/5
f 247/1/21 246/32/21 273/32/21 274/1/21
f 246/32/2 243/44/2 275/44/2 273/32/2
f 251/43/22 248/25/22 278/25/22 280/43/22
f 250/35/3 251/43/3 280/43/3 279/35/3
f 249/26/23 250/35/23 279/35/23 277/26/23
f 248/25/5 249/26/5 277/26/5 278/25/5
f 244/43/3 239/20/3 285/20/3 283/43/3
f 241/21/2 238/4/2 282/4/2 286/21/2
f 240/19/25 241/21/25 286/21/25 284/19/25
f 239/20/6 240/19/6 284/19/6 285/20/6
f 238/4/5 252/25/5 281/25/5 282/4/5
f 252/25/20 244/43/20 283/43/20 281/25/20
f 294/44/3 295/35/3 292/35/3 291/44/3
f 296/35/3 297/43/3 290/43/3 289/35/3
f 293/43/3 298/20/3 288/20/3 287/43/3
f 256/20/1 261/43/1 287/43/1 288/20/1
f 268/43/1 267/35/1 289/35/1 290/43/1
f 276/35/2 270/35/2 292/35/2 295/35/2
f 270/35/1 260/44/1 291/44/1 292/35/1
f 275/44/4 276/35/4 295/35/4 294/44/4
f 260/44/6 275/44/6 294/44/6 291/44/6
f 267/35/6 279/35/6 296/35/6 289/35/6
f 283/43/4 285/20/4 298/20/4 293/43/4
f 280/43/2 268/43/2 290/43/2 297/43/2
f 301/48/1 302/35/1 299/35/1 300/43/1
f 254/35/6 235/35/6 299/35/6 302/35/6
f 236/43/2 237/48/2 301/48/2 300/43/2
f 237/48/5 254/35/5 302/35/5 301/48/5
