# Blender 4.1.1
# www.blender.org
mtllib room1.mtl
o Cube
v 2.513947 0.500000 -2.094956
v 3.000000 -0.500000 -2.500000
v 2.513947 0.500000 2.094956
v 3.000000 -0.500000 2.500000
v -2.513947 0.500000 -2.094956
v -3.000000 -0.500000 -2.500000
v -2.513947 0.500000 2.094956
v -3.000000 -0.500000 2.500000
v 3.000000 0.500000 2.500000
v -3.000000 0.500000 2.500000
v 3.000000 0.500000 -2.500000
v -3.000000 0.500000 -2.500000
v 3.000000 2.900000 2.500000
v -3.000000 2.900000 2.500000
v 3.000000 2.900000 -2.500000
v -3.000000 2.900000 -2.500000
v 2.513947 2.900000 2.094956
v -2.513947 2.900000 2.094956
v 2.513947 2.900000 -2.094956
v -2.513947 2.900000 -2.094956
vn -0.0000 1.0000 -0.0000
vn -0.0000 -0.0000 1.0000
vn -1.0000 -0.0000 -0.0000
vn -0.0000 -1.0000 -0.0000
vn 1.0000 -0.0000 -0.0000
vn -0.0000 -0.0000 -1.0000
vn 0.6402 -0.0000 -0.7682
vn -0.6402 -0.0000 -0.7682
vt 0.645252 0.520252
vt 0.854748 0.520252
vt 0.854748 0.729748
vt 0.645252 0.729748
vt 0.375000 0.750000
vt 0.625000 0.750000
vt 0.625000 1.000000
vt 0.375000 1.000000
vt 0.375000 0.000000
vt 0.625000 0.000000
vt 0.625000 0.250000
vt 0.375000 0.250000
vt 0.125000 0.500000
vt 0.375000 0.500000
vt 0.125000 0.750000
vt 0.625000 0.500000
vt 0.875000 0.500000
vt 0.875000 0.750000
s 0
usemtl Material
f 1/1/1 5/2/1 7/3/1 3/4/1
f 4/5/2 9/6/2 10/7/2 8/8/2
f 8/9/3 10/10/3 12/11/3 6/12/3
f 6/13/4 2/14/4 4/5/4 8/15/4
f 2/14/5 11/16/5 9/6/5 4/5/5
f 6/12/6 12/11/6 11/16/6 2/14/6
f 5/2/7 12/17/7 16/17/7 20/2/7
f 3/4/6 7/3/6 18/3/6 17/4/6
f 7/3/5 5/2/5 20/2/5 18/3/5
f 5/2/1 1/1/1 11/16/1 12/17/1
f 17/4/1 18/3/1 14/18/1 13/6/1
f 19/1/1 17/4/1 13/6/1 15/16/1
f 18/3/1 20/2/1 16/17/1 14/18/1
f 10/7/2 9/6/2 13/6/2 14/7/2
f 1/1/3 3/4/3 17/4/3 19/1/3
f 12/11/3 10/10/3 14/10/3 16/11/3
f 11/16/8 1/1/8 19/1/8 15/16/8
f 9/6/5 11/16/5 15/16/5 13/6/5
o Cube.001
v 3.000000 3.401834 -2.500000
v 3.000000 2.901834 -2.500000
v 3.000000 3.401834 2.500000
v 3.000000 2.901834 2.500000
v -3.000000 3.401834 -2.500000
v -3.000000 2.901834 -2.500000
v -3.000000 3.401834 2.500000
v -3.000000 2.901834 2.500000
vn -0.0000 1.0000 -0.0000
vn -0.0000 -0.0000 1.0000
vn -1.0000 -0.0000 -0.0000
vn -0.0000 -1.0000 -0.0000
vn 1.0000 -0.0000 -0.0000
vn -0.0000 -0.0000 -1.0000
vt 0.625000 0.500000
vt 0.875000 0.500000
vt 0.875000 0.750000
vt 0.625000 0.750000
vt 0.375000 0.750000
vt 0.625000 1.000000
vt 0.375000 1.000000
vt 0.375000 0.000000
vt 0.625000 0.000000
vt 0.625000 0.250000
vt 0.375000 0.250000
vt 0.125000 0.500000
vt 0.375000 0.500000
vt 0.125000 0.750000
s 0
usemtl Material.001
f 21/19/9 25/20/9 27/21/9 23/22/9
f 24/23/10 23/22/10 27/24/10 28/25/10
f 28/26/11 27/27/11 25/28/11 26/29/11
f 26/30/12 22/31/12 24/23/12 28/32/12
f 22/31/13 21/19/13 23/22/13 24/23/13
f 26/29/14 25/28/14 21/19/14 22/31/14
