# Blender 4.1.1
# www.blender.org
mtllib sand_box.mtl
o Cube
v 8.000000 0.999998 -11.000000
v 8.000000 -1.000002 -11.000000
v 8.000000 1.000002 11.000000
v 8.000000 -0.999998 11.000000
v -8.000000 0.999998 -11.000000
v -8.000000 -1.000002 -11.000000
v -8.000000 1.000002 11.000000
v -8.000000 -0.999998 11.000000
v -8.000000 -0.999997 20.000000
v -8.000000 1.000003 20.000000
v 8.000000 1.000003 20.000000
v 8.000000 -0.999997 20.000000
v -8.000000 -0.999996 22.000000
v -8.000000 1.000004 22.000000
v 8.000000 1.000004 22.000000
v 8.000000 -0.999996 22.000000
vn -0.0000 1.0000 -0.0000
vn -0.0000 -1.0000 -0.0000
vn -1.0000 -0.0000 -0.0000
vn 1.0000 -0.0000 -0.0000
vn -0.0000 -0.0000 -1.0000
vn -0.0000 -0.0000 1.0000
vt 0.498955 0.514580
vt 0.498722 0.514580
vt 0.498722 0.515379
vt 0.498955 0.515379
vt 0.499421 0.515379
vt 0.499188 0.515379
vt 0.499188 0.512982
vt 0.498955 0.512982
vt 0.498955 0.513781
vt 0.499188 0.513781
vt 0.499421 0.514580
vt 0.499188 0.514580
vt 0.498955 0.516177
vt 0.499188 0.516177
s 1
usemtl Material.001
f 1/1/1 5/2/1 7/3/1 3/4/1
f 8/5/2 4/6/2 12/6/2 9/5/2
f 8/7/3 7/8/3 5/9/3 6/10/3
f 6/11/2 2/12/2 4/6/2 8/5/2
f 2/12/4 1/1/4 3/4/4 4/6/4
f 6/10/5 5/9/5 1/1/5 2/12/5
f 11/4/1 10/3/1 14/3/1 15/4/1
f 3/4/1 7/3/1 10/3/1 11/4/1
f 4/6/4 3/4/4 11/4/4 12/6/4
f 7/8/3 8/7/3 9/7/3 10/8/3
f 16/6/6 15/4/6 14/13/6 13/14/6
f 10/8/3 9/7/3 13/7/3 14/8/3
f 9/5/2 12/6/2 16/6/2 13/5/2
f 12/6/4 11/4/4 15/4/4 16/6/4
o Cube.001
v 6.000000 1.000002 11.000000
v 6.000000 0.877604 11.000000
v 6.000000 0.999998 -11.000000
v 6.000000 0.999998 -11.000000
v 8.000000 1.000002 11.000000
v 8.000000 0.877604 11.000000
v 8.000000 0.999998 -11.000000
v 8.000000 0.999998 -11.000000
v 6.000000 0.999999 -9.000000
v 6.000000 0.999999 -9.000000
v 8.000000 0.999999 -9.000000
v 8.000000 0.999999 -9.000000
v 6.000000 1.000001 9.000000
v 8.000000 1.000001 9.000000
v 6.000000 1.000001 9.000000
v 8.000000 1.000001 9.000000
v -8.000002 1.000001 9.000000
v -8.000002 0.877604 11.000000
v -8.000002 1.000002 11.000000
v -8.000002 0.999999 -9.000000
v -8.000002 0.999998 -11.000000
v -8.000002 0.999998 -11.000000
v -8.000002 0.999999 -9.000000
v -8.000002 1.000001 9.000000
v -6.000000 0.999999 -9.000000
v -6.000000 0.999999 -9.000000
v -6.000000 0.999998 -11.000000
v -6.000000 0.999998 -11.000000
v -8.000002 1.000001 9.000000
v -8.000002 1.000001 9.000000
v -6.000000 1.000001 9.000000
v -6.000000 1.000001 9.000000
v -2.000000 1.000001 9.000000
v -2.000000 1.000001 9.000000
v -2.000000 1.000002 11.000000
v -2.000000 1.000002 11.000000
v 2.000000 1.000001 9.000000
v 2.000000 1.000002 11.000000
v 2.000000 1.000001 9.000000
v 2.000000 1.000002 11.000000
v 6.000000 11.000000 8.999998
v 6.000000 11.000000 10.999998
v 6.000000 10.999996 -9.000002
v 6.000000 10.999996 -11.000002
v 8.000000 10.999996 -11.000002
v 6.000000 10.999996 -11.000002
v 8.000000 10.999996 -9.000002
v 8.000000 11.000000 8.999998
v 8.000000 11.000000 10.999998
v 6.000000 11.000000 10.999998
v 6.000000 10.999996 -9.000002
v 6.000000 11.000000 8.999998
v 8.000000 10.999996 -9.000002
v -8.000002 11.000000 8.999998
v -8.000002 11.000000 10.999998
v -8.000002 10.999996 -9.000002
v -8.000002 10.999996 -11.000002
v -6.000000 10.999996 -9.000002
v -2.000000 11.000000 8.999998
v -6.000000 10.999996 -11.000002
v -2.000000 11.000000 10.999998
v -8.000002 10.999996 -9.000002
v -6.000000 10.999996 -9.000002
v -8.000002 11.000000 8.999998
v -6.000000 11.000000 8.999998
v 2.000000 11.000000 8.999998
v 2.000000 11.000000 10.999998
v -6.000000 1.000001 9.000000
v -6.000000 0.877604 11.000000
v -6.000000 1.000001 9.000000
v -6.000000 1.000002 11.000000
v -6.000000 11.000000 8.999998
v -6.000000 11.000000 10.999998
v 6.000000 5.877603 10.999999
v 8.000000 5.877603 10.999999
v 6.000000 6.000000 8.999999
v 8.000000 5.999998 -9.000001
v 8.000000 6.000000 8.999999
v -2.000000 6.000000 8.999999
v -8.000002 6.000000 8.999999
v -2.000000 6.000001 10.999999
v -8.000002 5.877603 10.999999
v -6.000000 5.877603 10.999999
v -6.000000 6.000000 8.999999
v 8.000000 0.933244 11.000000
v 6.000000 0.933244 11.000000
v 6.000000 5.933243 10.999999
v -6.000000 0.933244 11.000000
v -8.000002 0.933244 11.000000
v -8.000002 5.933243 10.999999
v 8.000000 5.933243 10.999999
v -6.000000 5.933243 10.999999
v 8.000000 0.933245 20.000000
v 6.000000 0.933245 20.000000
v 6.000000 5.933244 19.999998
v -6.000000 0.933245 20.000000
v -8.000002 0.933245 20.000000
v -8.000002 5.933244 19.999998
v 8.000000 5.933244 19.999998
v -6.000000 5.933244 19.999998
v -5.999999 0.933246 22.000000
v -8.000001 0.933246 22.000000
v -8.000001 5.933245 21.999998
v -5.999999 5.933245 21.999998
v 8.000000 0.933245 19.999994
v 8.000000 5.933244 19.999992
v 8.000000 0.933246 21.999994
v 8.000000 5.933245 21.999992
vn -0.0000 1.0000 -0.0000
vn -1.0000 -0.0000 -0.0000
vn -0.0000 -0.0000 -1.0000
vn -0.0000 -1.0000 -0.0000
vn 1.0000 -0.0000 -0.0000
vn -0.0000 -0.0000 1.0000
vn 0.0153 0.9994 0.0306
vn -0.0000 -0.0000 -0.0000
vt 0.321045 0.384769
vt 0.332653 0.328879
vt 0.344261 0.328879
vt 0.344261 0.357904
vt 0.332653 0.357904
vt 0.332653 0.384769
vt 0.344261 0.384769
vt 0.344261 0.386928
vt 0.332653 0.386928
vt 0.344261 0.415953
vt 0.332653 0.415953
vt 0.321045 0.386928
vt 0.332653 0.326959
vt 0.352359 0.307245
vt 0.352359 0.323784
vt 0.344261 0.359824
vt 0.332653 0.359824
vt 0.332653 0.302014
vt 0.344261 0.302014
vt 0.344261 0.326959
vt 0.321045 0.359824
vt 0.332653 0.299855
vt 0.344261 0.299855
vt 0.352359 0.389098
vt 0.352359 0.370500
vt 0.321045 0.357904
vt 0.329866 0.345695
vt 0.330170 0.341160
vt 0.330160 0.341175
vt 0.329668 0.342229
vt 0.330732 0.343021
vt 0.330176 0.340995
vt -1819743.750000 0.000000
vt 0.330150 0.308900
vt 0.330371 0.307303
vt 0.330656 0.310621
vt 0.330560 0.311177
vt 0.328663 0.357945
vt 0.328642 0.357949
vt 0.328642 0.352914
vt 0.328643 0.352914
vt 0.330830 0.310969
vt 0.330688 0.313087
vt 0.332050 0.318835
vt 0.332078 0.314309
vt 0.331654 0.316019
vt 0.331690 0.317438
vt 0.328641 0.325468
vt 0.328641 0.327597
vt 0.330514 0.330279
vt 0.330817 0.329076
vt 0.330968 0.331518
vt 0.330637 0.332633
vt 0.330163 0.340854
vt 0.330142 0.340889
vt 0.330142 0.341111
vt 0.329768 0.322218
vt 0.329907 0.321340
vt 0.331412 0.313243
vt 0.331412 0.331887
vt 0.331693 0.331887
vt 0.331693 0.313243
vt 0.330525 0.352793
vt 0.329742 0.352637
vt 0.329671 0.353796
vt 0.330371 0.357573
vt 0.325625 0.352035
vt 0.325248 0.361999
vt 0.325284 0.361916
vt 0.326262 0.358207
vt 0.329943 0.336733
vt 0.330361 0.336623
vt 0.322659 0.305717
vt 0.323107 0.299911
vt 0.324842 0.316334
vt 0.324601 0.318387
vt 0.316921 0.374615
vt 0.319349 0.374615
vt 0.319349 0.331064
vt 0.316921 0.331064
vt 0.331640 0.338412
vt 0.328762 0.357579
vt 0.328975 0.345743
vt 0.327616 0.305974
vt 0.327580 0.299911
vt 0.330404 0.299911
vt 0.329672 0.303906
vt 0.328892 0.332656
vt 0.328642 0.316794
vt 0.331651 0.321555
vt 0.331577 0.319420
vt 0.328413 0.327646
vt 0.328413 0.346290
vt 0.328902 0.314309
vt 0.331492 0.314309
vt 0.328694 0.350598
vt 0.331514 0.316904
vt 0.330672 0.306690
vt 0.328620 0.319895
vt 0.330005 0.310967
vt 0.328959 0.335126
vt 0.330730 0.339266
vt 0.330211 0.301644
vt 0.330523 0.301311
vt 0.328573 0.314309
vt 0.328642 0.342092
vt 0.328773 0.335174
vt 0.328642 0.345695
vt 0.329786 0.303889
vt 0.329658 0.313730
vt 0.329545 0.314685
vt 0.329668 0.304322
vt 0.331493 0.323676
vt 0.331493 0.321604
vt 0.331708 0.321604
vt 0.331708 0.323676
vt 0.329709 0.299888
vt 0.329554 0.313130
vt 0.329924 0.313571
vt 0.329833 0.302391
vt 0.331493 0.328855
vt 0.331708 0.328855
vt 0.329035 0.315121
vt 0.329645 0.316024
vt 0.329607 0.314827
vt 0.329337 0.314388
vt 0.329036 0.332120
vt 0.329401 0.346856
vt 0.329035 0.347381
vt 0.330001 0.346274
s 1
usemtl Material.002
f 86/15/7 84/15/7 33/15/7 40/15/7
f 19/16/7 20/17/7 24/18/7 23/19/7
f 32/20/8 30/21/8 22/22/8 21/23/8
f 21/23/9 22/22/9 18/24/9 17/25/9
f 29/15/10 32/20/10 21/23/10 17/26/10
f 48/27/9 46/27/9 80/27/9 81/27/9
f 24/18/7 20/28/7 26/29/7 28/30/7
f 29/15/8 17/26/8 58/26/8 57/15/8
f 23/19/7 24/18/7 28/30/7 27/31/7
f 29/32/7 31/33/7 26/34/7 25/27/7
f 36/34/7 39/27/7 46/27/7 45/34/7
f 43/17/9 37/17/9 73/17/9 76/17/9
f 25/35/10 27/31/10 32/20/10 29/15/10
f 27/31/7 28/30/7 30/21/7 32/20/7
f 39/27/7 36/34/7 37/17/7 38/16/7
f 34/36/8 35/37/8 40/33/8 33/32/8
f 26/34/8 31/33/8 92/33/8 68/33/8 59/34/8
f 87/38/7 86/39/7 40/39/7 35/38/7
f 25/35/11 19/40/11 62/40/11 67/35/11
f 43/17/7 44/16/7 38/16/7 37/17/7
f 44/40/10 42/35/10 39/35/10 38/40/10
f 85/38/12 87/38/12 35/38/12 34/38/12
f 19/40/10 25/35/10 42/35/10 44/40/10
f 20/17/10 19/16/10 44/16/10 43/17/10
f 95/41/11 75/42/11 77/43/11 97/44/11
f 25/27/10 26/34/10 41/34/10 42/27/10
f 48/27/7 47/34/7 45/34/7 46/27/7
f 42/27/10 41/34/10 47/34/10 48/27/10
f 41/29/7 36/29/7 45/29/7 47/29/7
f 100/45/9 88/46/9 75/42/9 95/41/9
f 56/38/7 54/38/7 51/38/7 52/38/7
f 53/15/7 55/15/7 49/15/7 50/15/7
f 31/32/7 29/32/7 55/47/7 53/47/7
f 18/38/13 31/39/13 53/39/13 54/38/13
f 90/48/12 91/49/12 65/50/12 66/51/12
f 17/52/9 18/53/9 54/54/9 56/55/9
f 64/56/7 68/57/7 66/51/7 65/50/7
f 62/58/7 67/59/7 63/60/7 61/61/7
f 69/62/7 59/63/7 68/57/7 64/56/7
f 74/64/7 76/65/7 73/66/7 72/67/7
f 88/46/7 70/68/7 71/69/7 89/70/7
f 59/71/7 60/72/7 76/65/7 74/64/7
f 78/73/7 80/74/7 81/75/7 79/76/7
f 57/77/7 82/78/7 83/79/7 58/80/7
f 98/81/8 71/82/8 70/83/8 96/84/8
f 99/85/12 89/70/12 71/69/12 98/86/12
f 26/87/11 20/88/11 60/89/11 59/90/11
f 46/91/8 80/92/8 78/93/8 39/94/8
f 28/30/9 26/29/9 59/29/9 69/30/9 93/30/9
f 55/95/9 82/96/9 57/77/9 29/97/9
f 37/17/8 36/34/8 72/34/8 73/17/8
f 27/98/9 25/99/9 67/100/9 63/101/9
f 41/102/12 26/103/12 59/71/12 74/64/12
f 17/52/12 58/80/12 83/79/12 56/55/12
f 19/104/9 62/58/9 61/61/9 23/105/9
f 39/35/12 42/35/12 79/35/12 78/35/12
f 42/106/11 79/76/11 81/75/11 48/107/11
f 20/108/9 43/109/9 76/65/9 60/72/9
f 56/55/8 83/79/8 82/78/8 55/110/8
f 23/105/11 61/61/11 63/60/11 27/111/11
f 94/112/11 93/113/11 69/62/11 64/56/11
f 91/49/11 94/112/11 64/56/11 65/50/11
f 92/114/8 90/48/8 66/51/8 68/57/8
f 36/115/12 41/102/12 74/64/12 72/67/12
f 97/44/12 77/43/12 89/70/12 99/85/12
f 75/42/7 88/46/7 89/70/7 77/43/7
f 96/116/12 100/45/12 88/46/12 70/68/12
f 52/38/12 51/38/12 87/38/12 85/38/12
f 51/38/7 50/39/7 86/39/7 87/38/7
f 50/15/7 49/15/7 84/15/7 86/15/7
f 31/39/8 18/38/8 90/38/8 92/39/8
f 22/117/11 30/118/11 94/112/11 91/49/11
f 30/118/11 28/119/11 93/113/11 94/112/11
f 98/38/12 99/38/12 108/38/12 106/38/12
f 33/15/12 84/15/12 100/15/12 96/15/12
f 52/120/12 97/44/12 99/85/12 85/121/12
f 91/22/9 90/24/9 103/24/9 107/22/9
f 34/36/8 98/36/8 96/32/8 33/32/8
f 84/15/9 100/15/9 95/15/9 49/15/9
f 49/122/11 95/41/11 97/44/11 52/120/11
f 106/123/7 114/124/7 116/125/7 108/126/7
f 102/24/10 101/22/10 109/22/10 110/24/10
f 99/38/14 85/38/14 104/38/14 108/38/14
f 18/24/12 22/22/12 101/22/12 102/24/12
f 85/38/9 34/38/9 105/38/9 104/38/9
f 34/36/9 98/36/9 106/36/9 105/36/9
f 90/38/9 18/38/9 102/38/9 103/38/9
f 22/22/12 91/22/12 107/22/12 101/22/12
f 110/24/12 109/22/12 115/22/12 111/24/12
f 113/36/8 118/36/8 119/36/8 114/36/8
f 107/127/7 103/128/7 111/129/7 115/130/7
f 105/131/8 113/132/8 114/124/8 106/123/8
f 103/38/8 102/38/8 110/38/8 111/38/8
f 108/126/11 116/125/11 112/133/11 104/134/11
f 101/135/11 107/127/11 115/130/11 109/136/11
f 104/134/7 105/131/7 113/132/7 112/133/7
f 117/137/12 120/138/12 119/139/12 118/140/12
f 120/138/7 124/141/7 122/142/7 116/125/7
f 112/133/7 113/132/7 118/140/7 117/137/7
f 114/124/7 119/139/7 120/138/7 116/125/7
f 122/142/11 124/141/11 123/143/11 121/144/11
f 116/125/9 122/142/9 121/144/9 112/133/9
f 112/38/7 117/38/7 123/38/7 121/38/7
f 117/137/12 123/143/12 124/141/12 120/138/12
o Cube.002
v -6.000000 3.999999 -5.000000
v -6.000000 5.999999 -5.000001
v -6.000000 3.999999 -9.000001
v -6.000000 5.999999 -9.000001
v 6.000000 3.999999 -5.000000
v 6.000000 5.999999 -5.000001
v 6.000000 3.999999 -9.000001
v 6.000000 5.999999 -9.000001
v 4.000000 3.999999 -9.000001
v 4.000000 5.999999 -9.000001
v 4.000000 3.999999 -5.000000
v 4.000000 5.999999 -5.000001
v 6.000000 6.000001 4.445405
v 6.000000 4.000001 4.445405
v 4.000000 4.000001 4.445405
v 4.000000 6.000001 4.445405
vn -1.0000 -0.0000 -0.0000
vn -0.0000 -0.0000 -1.0000
vn 1.0000 -0.0000 -0.0000
vn -0.0000 -0.0000 1.0000
vn -0.0000 -1.0000 -0.0000
vn -0.0000 1.0000 -0.0000
vt 0.212762 0.339344
vt 0.220873 0.339344
vt 0.220873 0.365161
vt 0.212762 0.365161
vt 0.212762 0.387555
vt 0.220873 0.387555
vt 0.220873 0.390977
vt 0.212762 0.390977
vt 0.220873 0.416794
vt 0.212762 0.416794
vt 0.212762 0.420217
vt 0.220873 0.420217
vt 0.220873 0.442611
vt 0.212762 0.442611
vt 0.211687 0.390977
vt 0.211687 0.416794
vt 0.221949 0.390977
vt 0.228985 0.390977
vt 0.228985 0.416794
vt 0.221949 0.416794
vt 0.204651 0.390977
vt 0.204651 0.416794
s 1
usemtl Material.003
f 125/145/15 126/146/15 128/147/15 127/148/15
f 133/149/16 134/150/16 132/151/16 131/152/16
f 131/152/17 132/151/17 130/153/17 129/154/17
f 135/155/18 136/156/18 126/157/18 125/158/18
f 133/159/19 131/152/19 129/154/19 135/160/19
f 134/161/20 128/162/20 126/163/20 136/164/20
f 132/151/20 134/161/20 136/164/20 130/153/20
f 127/165/19 133/159/19 135/160/19 125/166/19
f 135/160/19 129/154/19 138/154/19 139/160/19
f 127/148/16 128/147/16 134/150/16 133/149/16
f 138/154/18 137/153/18 140/156/18 139/155/18
f 130/153/20 136/164/20 140/164/20 137/153/20
f 129/154/17 130/153/17 137/153/17 138/154/17
f 136/156/15 135/155/15 139/155/15 140/156/15
o Cube.003
v -6.000000 1.000000 -0.000000
v -6.000000 0.999999 -5.000000
v -6.000000 5.999999 -5.000001
v -4.000000 1.000000 -0.000000
v -4.000000 0.999999 -5.000000
v -4.000000 5.999999 -5.000001
v -3.000000 5.999999 -5.000001
v -3.000000 0.999999 -5.000000
v -3.000000 1.000000 -0.000000
v -6.000000 1.380664 -0.000000
v -6.000000 5.999999 -4.619337
v -6.000000 1.380664 -0.307956
v -6.000000 1.688620 -0.307956
v -6.000000 1.688620 -0.615912
v -6.000000 1.996576 -0.615912
v -6.000000 1.996576 -0.923867
v -6.000000 2.304531 -0.923867
v -6.000000 2.304531 -1.231823
v -6.000000 2.612487 -1.231823
v -6.000000 2.612487 -1.539779
v -6.000000 2.920443 -1.539779
v -6.000000 2.920443 -1.847735
v -6.000000 3.228399 -1.847735
v -6.000000 3.228399 -2.155691
v -6.000000 3.536354 -2.155691
v -6.000000 3.536354 -2.463646
v -6.000000 3.844310 -2.463646
v -6.000000 3.844310 -2.771602
v -6.000000 4.152265 -2.771602
v -6.000000 4.152265 -3.079558
v -6.000000 4.460221 -3.079558
v -6.000000 4.460221 -3.387514
v -6.000000 4.768177 -3.387514
v -6.000000 4.768177 -3.695469
v -6.000000 5.076132 -3.695469
v -6.000000 5.076132 -4.003425
v -6.000000 5.384088 -4.003425
v -6.000000 5.384088 -4.311381
v -6.000000 5.692044 -4.311381
v -6.000000 5.692043 -4.619337
v -4.000000 1.380664 -0.000000
v -4.000000 5.999999 -4.619337
v -4.000000 1.380664 -0.307956
v -4.000000 1.688620 -0.307956
v -4.000000 1.688620 -0.615912
v -4.000000 1.996576 -0.615912
v -4.000000 1.996576 -0.923867
v -4.000000 2.304531 -0.923867
v -4.000000 2.304531 -1.231823
v -4.000000 2.612487 -1.231823
v -4.000000 2.612487 -1.539779
v -4.000000 2.920443 -1.539779
v -4.000000 2.920443 -1.847735
v -4.000000 3.228399 -1.847735
v -4.000000 3.228399 -2.155691
v -4.000000 3.536354 -2.155691
v -4.000000 3.536354 -2.463646
v -4.000000 3.844310 -2.463646
v -4.000000 3.844310 -2.771602
v -4.000000 4.152265 -2.771602
v -4.000000 4.152265 -3.079558
v -4.000000 4.460221 -3.079558
v -4.000000 4.460221 -3.387514
v -4.000000 4.768177 -3.387514
v -4.000000 4.768177 -3.695469
v -4.000000 5.076132 -3.695469
v -4.000000 5.076132 -4.003425
v -4.000000 5.384088 -4.003425
v -4.000000 5.384088 -4.311381
v -4.000000 5.692044 -4.311381
v -4.000000 5.692043 -4.619337
v -3.000000 5.999999 -4.619337
v -3.000000 1.380664 -0.000000
v -3.000000 5.692043 -4.619337
v -3.000000 5.692044 -4.311381
v -3.000000 5.384088 -4.311381
v -3.000000 5.384088 -4.003425
v -3.000000 5.076132 -4.003425
v -3.000000 5.076132 -3.695469
v -3.000000 4.768177 -3.695469
v -3.000000 4.768177 -3.387514
v -3.000000 4.460221 -3.387514
v -3.000000 4.460221 -3.079558
v -3.000000 4.152265 -3.079558
v -3.000000 4.152265 -2.771602
v -3.000000 3.844310 -2.771602
v -3.000000 3.844310 -2.463646
v -3.000000 3.536354 -2.463646
v -3.000000 3.536354 -2.155691
v -3.000000 3.228399 -2.155691
v -3.000000 3.228399 -1.847735
v -3.000000 2.920443 -1.847735
v -3.000000 2.920443 -1.539779
v -3.000000 2.612487 -1.539779
v -3.000000 2.612487 -1.231823
v -3.000000 2.304531 -1.231823
v -3.000000 2.304531 -0.923867
v -3.000000 1.996576 -0.923867
v -3.000000 1.996576 -0.615912
v -3.000000 1.688620 -0.615912
v -3.000000 1.688620 -0.307956
v -3.000000 1.380664 -0.307956
vn -0.0000 1.0000 -0.0000
vn -0.0000 -0.0000 -1.0000
vn -0.0000 -0.0000 1.0000
vn -1.0000 -0.0000 -0.0000
vn -0.0000 -1.0000 -0.0000
vn 1.0000 -0.0000 -0.0000
vt 0.345041 0.360272
vt 0.357234 0.360272
vt 0.357234 0.363433
vt 0.345041 0.363433
vt 0.332847 0.318748
vt 0.345041 0.318748
vt 0.332847 0.360272
vt 0.333776 0.401796
vt 0.332847 0.401796
vt 0.332847 0.277224
vt 0.333776 0.277224
vt 0.333776 0.279782
vt 0.334527 0.279782
vt 0.334527 0.282339
vt 0.335278 0.282339
vt 0.335278 0.284897
vt 0.336029 0.284897
vt 0.336029 0.287454
vt 0.336780 0.287454
vt 0.336780 0.290012
vt 0.337531 0.290012
vt 0.337531 0.292569
vt 0.338282 0.292569
vt 0.338282 0.295127
vt 0.339033 0.295127
vt 0.339033 0.297684
vt 0.339784 0.297684
vt 0.339784 0.300242
vt 0.340535 0.300242
vt 0.340535 0.302799
vt 0.341286 0.302799
vt 0.341286 0.305357
vt 0.342037 0.305357
vt 0.342037 0.307914
vt 0.342788 0.307914
vt 0.342788 0.310472
vt 0.343539 0.310472
vt 0.343539 0.313029
vt 0.344290 0.313029
vt 0.344290 0.315587
vt 0.345041 0.315587
vt 0.320654 0.360272
vt 0.320654 0.401796
vt 0.344790 0.363433
vt 0.344790 0.365991
vt 0.344540 0.365991
vt 0.344540 0.368548
vt 0.344290 0.368548
vt 0.344290 0.371106
vt 0.344039 0.371106
vt 0.344039 0.373663
vt 0.343789 0.373663
vt 0.343789 0.376221
vt 0.343539 0.376221
vt 0.343539 0.378778
vt 0.343288 0.378778
vt 0.343288 0.381336
vt 0.343038 0.394976
vt 0.339033 0.395828
vt 0.338282 0.395828
vt 0.338282 0.396681
vt 0.337531 0.396681
vt 0.337531 0.397533
vt 0.336780 0.397533
vt 0.336780 0.398386
vt 0.336029 0.398386
vt 0.336029 0.399238
vt 0.335278 0.399238
vt 0.335278 0.400091
vt 0.334527 0.400091
vt 0.334527 0.400943
vt 0.333776 0.400943
vt 0.357234 0.365991
vt 0.345041 0.365991
vt 0.357234 0.368548
vt 0.345041 0.368548
vt 0.357234 0.371106
vt 0.345041 0.371106
vt 0.357234 0.373663
vt 0.345041 0.373663
vt 0.357234 0.376221
vt 0.345041 0.376221
vt 0.357234 0.378778
vt 0.345041 0.378778
vt 0.357234 0.381336
vt 0.345041 0.381336
vt 0.357234 0.401796
vt 0.345041 0.401796
vt 0.345041 0.443320
vt 0.339033 0.443320
vt 0.339033 0.401796
vt 0.338282 0.443320
vt 0.338282 0.401796
vt 0.337531 0.443320
vt 0.337531 0.401796
vt 0.336780 0.443320
vt 0.336780 0.401796
vt 0.336029 0.443320
vt 0.336029 0.401796
vt 0.335278 0.443320
vt 0.335278 0.401796
vt 0.334527 0.443320
vt 0.334527 0.401796
vt 0.333776 0.443320
vt 0.332847 0.443320
s 1
usemtl Material.004
f 146/167/21 143/168/21 151/169/21 182/170/21
f 142/171/22 143/172/22 146/167/22 145/173/22
f 181/174/23 144/175/23 149/175/23 213/174/23
f 141/176/24 150/177/24 152/178/24 153/179/24 154/180/24 155/181/24 156/182/24 157/183/24 158/184/24 159/185/24 160/186/24 161/187/24 162/188/24 163/189/24 164/190/24 165/191/24 166/192/24 167/193/24 168/194/24 169/195/24 170/196/24 171/197/24 172/198/24 173/199/24 174/200/24 175/201/24 176/202/24 177/203/24 178/204/24 179/205/24 180/206/24 151/207/24 143/172/24 142/171/24
f 142/208/25 145/173/25 144/175/25 141/209/25
f 146/167/21 182/170/21 212/170/21 147/167/21
f 145/173/22 146/167/22 147/167/22 148/173/22
f 148/173/26 147/167/26 212/170/26 214/210/26 215/211/26 216/212/26 217/213/26 218/214/26 219/215/26 220/216/26 221/217/26 222/218/26 223/219/26 224/220/26 225/221/26 226/222/26 227/223/26 228/224/26 229/225/26 230/226/26 231/227/26 232/228/26 233/229/26 234/230/26 235/231/26 236/232/26 237/233/26 238/234/26 239/235/26 240/236/26 241/237/26 242/238/26 213/174/26 149/175/26
f 144/175/25 145/173/25 148/173/25 149/175/25
f 182/170/23 151/169/23 180/169/23 211/170/23
f 211/170/21 180/169/21 179/239/21 210/240/21
f 210/240/23 179/239/23 178/239/23 209/240/23
f 209/240/21 178/239/21 177/241/21 208/242/21
f 208/242/23 177/241/23 176/241/23 207/242/23
f 207/242/21 176/241/21 175/243/21 206/244/21
f 206/244/23 175/243/23 174/243/23 205/244/23
f 205/244/21 174/243/21 173/245/21 204/246/21
f 204/246/23 173/245/23 172/245/23 203/246/23
f 203/246/21 172/245/21 171/247/21 202/248/21
f 202/248/23 171/247/23 170/247/23 201/248/23
f 201/248/21 170/247/21 169/249/21 200/250/21
f 200/250/23 169/249/23 168/249/23 199/250/23
f 199/250/21 168/249/21 167/251/21 198/252/21
f 198/252/23 167/251/23 166/253/23 197/254/23
f 197/254/21 166/255/21 165/256/21 196/257/21
f 196/257/23 165/256/23 164/258/23 195/259/23
f 195/259/21 164/258/21 163/258/21 194/259/21
f 194/259/23 163/258/23 162/260/23 193/261/23
f 193/261/21 162/260/21 161/260/21 192/261/21
f 192/261/23 161/260/23 160/262/23 191/263/23
f 191/263/21 160/262/21 159/262/21 190/263/21
f 190/263/23 159/262/23 158/264/23 189/265/23
f 189/265/21 158/264/21 157/264/21 188/265/21
f 188/265/23 157/264/23 156/266/23 187/267/23
f 187/267/21 156/266/21 155/266/21 186/267/21
f 186/267/23 155/266/23 154/268/23 185/269/23
f 185/269/21 154/268/21 153/268/21 184/269/21
f 184/269/23 153/268/23 152/270/23 183/174/23
f 183/174/21 152/270/21 150/270/21 181/174/21
f 181/174/21 213/174/21 242/238/21 183/174/21
f 183/174/23 242/238/23 241/237/23 184/269/23
f 184/269/21 241/237/21 240/236/21 185/269/21
f 185/269/23 240/236/23 239/235/23 186/267/23
f 186/267/21 239/235/21 238/234/21 187/267/21
f 187/267/23 238/234/23 237/233/23 188/265/23
f 188/265/21 237/233/21 236/232/21 189/265/21
f 189/265/23 236/232/23 235/231/23 190/263/23
f 190/263/21 235/231/21 234/230/21 191/263/21
f 191/263/23 234/230/23 233/229/23 192/261/23
f 192/261/21 233/229/21 232/228/21 193/261/21
f 193/261/23 232/228/23 231/227/23 194/259/23
f 194/259/21 231/227/21 230/226/21 195/259/21
f 195/259/23 230/226/23 229/225/23 196/257/23
f 196/257/21 229/225/21 228/224/21 197/254/21
f 197/254/23 228/224/23 227/223/23 198/252/23
f 198/252/21 227/223/21 226/222/21 199/250/21
f 199/250/23 226/222/23 225/221/23 200/250/23
f 200/250/21 225/221/21 224/220/21 201/248/21
f 201/248/23 224/220/23 223/219/23 202/248/23
f 202/248/21 223/219/21 222/218/21 203/246/21
f 203/246/23 222/218/23 221/217/23 204/246/23
f 204/246/21 221/217/21 220/216/21 205/244/21
f 205/244/23 220/216/23 219/215/23 206/244/23
f 206/244/21 219/215/21 218/214/21 207/242/21
f 207/242/23 218/214/23 217/213/23 208/242/23
f 208/242/21 217/213/21 216/212/21 209/240/21
f 209/240/23 216/212/23 215/211/23 210/240/23
f 210/240/21 215/211/21 214/210/21 211/170/21
f 211/170/23 214/210/23 212/170/23 182/170/23
f 144/175/23 181/174/23 150/270/23 141/271/23
o Cube.005
v -8.000000 11.000000 1.299998
v -8.000000 11.000000 -0.700002
v -8.000000 13.000000 1.299998
v 8.000000 11.000000 1.299998
v 8.000000 11.000000 -0.700002
v 8.000000 13.000000 1.299998
v 8.000000 13.000000 -0.700002
v -8.000000 13.000000 -0.700002
vn -0.0000 -1.0000 -0.0000
vn -1.0000 -0.0000 -0.0000
vn -0.0000 -0.0000 1.0000
vn 1.0000 -0.0000 -0.0000
vn -0.0000 1.0000 -0.0000
vn -0.0000 -0.0000 -1.0000
vt 0.226035 0.356111
vt 0.229746 0.356111
vt 0.229746 0.371654
vt 0.226035 0.371654
vt 0.229746 0.325026
vt 0.233456 0.325026
vt 0.233456 0.340569
vt 0.229746 0.340569
vt 0.233456 0.371654
vt 0.233456 0.387197
vt 0.229746 0.387197
vt 0.233456 0.356111
vt 0.237167 0.356111
vt 0.237167 0.371654
s 1
usemtl Material.005
f 244/272/27 247/273/27 246/274/27 243/275/27
f 243/276/28 245/277/28 250/278/28 244/279/28
f 246/274/29 248/280/29 245/281/29 243/282/29
f 247/273/30 249/283/30 248/280/30 246/274/30
f 249/283/31 250/284/31 245/285/31 248/280/31
f 244/279/32 250/278/32 249/283/32 247/273/32
o Cube.006
v -8.000000 10.999999 -3.800002
v -8.000000 10.999999 -5.800002
v -8.000000 12.999999 -3.800002
v 8.000000 10.999999 -3.800002
v 8.000000 10.999999 -5.800002
v 8.000000 12.999999 -3.800002
v 8.000000 12.999999 -5.800002
v -8.000000 12.999999 -5.800002
vn -0.0000 -1.0000 -0.0000
vn -1.0000 -0.0000 -0.0000
vn -0.0000 -0.0000 1.0000
vn 1.0000 -0.0000 -0.0000
vn -0.0000 1.0000 -0.0000
vn -0.0000 -0.0000 -1.0000
vt 0.214893 0.418325
vt 0.218604 0.418325
vt 0.218604 0.433868
vt 0.214893 0.433868
vt 0.218604 0.387240
vt 0.222314 0.387240
vt 0.222314 0.402782
vt 0.218604 0.402782
vt 0.222314 0.433868
vt 0.222314 0.449410
vt 0.218604 0.449410
vt 0.222314 0.418325
vt 0.226025 0.418325
vt 0.226025 0.433868
s 1
usemtl Material.005
f 252/286/33 255/287/33 254/288/33 251/289/33
f 251/290/34 253/291/34 258/292/34 252/293/34
f 254/288/35 256/294/35 253/295/35 251/296/35
f 255/287/36 257/297/36 256/294/36 254/288/36
f 257/297/37 258/298/37 253/299/37 256/294/37
f 252/293/38 258/292/38 257/297/38 255/287/38
o Cube.007
v -8.000000 11.000001 5.999998
v -8.000000 11.000001 3.999998
v -8.000000 13.000001 5.999998
v 8.000000 11.000001 5.999998
v 8.000000 11.000001 3.999998
v 8.000000 13.000001 5.999998
v 8.000000 13.000001 3.999998
v -8.000000 13.000001 3.999998
vn -0.0000 -1.0000 -0.0000
vn -1.0000 -0.0000 -0.0000
vn -0.0000 -0.0000 1.0000
vn 1.0000 -0.0000 -0.0000
vn -0.0000 1.0000 -0.0000
vn -0.0000 -0.0000 -1.0000
vt 0.226035 0.418325
vt 0.229746 0.418325
vt 0.229746 0.433868
vt 0.226035 0.433868
vt 0.229746 0.387240
vt 0.233456 0.387240
vt 0.233456 0.402782
vt 0.229746 0.402782
vt 0.233456 0.433868
vt 0.233456 0.449410
vt 0.229746 0.449410
vt 0.233456 0.418325
vt 0.237167 0.418325
vt 0.237167 0.433868
s 1
usemtl Material.005
f 260/300/39 263/301/39 262/302/39 259/303/39
f 259/304/40 261/305/40 266/306/40 260/307/40
f 262/302/41 264/308/41 261/309/41 259/310/41
f 263/301/42 265/311/42 264/308/42 262/302/42
f 265/311/43 266/312/43 261/313/43 264/308/43
f 260/307/44 266/306/44 265/311/44 263/301/44
