# Blender 4.1.1
# www.blender.org
mtllib pool_water.mtl
o Plane.001
v 0.000000 2.421226 -1.062970
v 0.000000 2.421225 -4.866939
v 0.000000 2.421226 0.839014
v 0.000000 2.421225 -2.964955
v -2.407982 2.421226 -1.062970
v 2.407982 2.421226 -1.062970
v -2.407982 2.421225 -4.866939
v 2.407982 2.421225 -4.866939
v 2.407982 2.421225 -2.964955
v -2.407982 2.421225 -2.964955
v 2.407982 2.421226 0.839014
v -2.407982 2.421226 0.839014
vn -0.0000 1.0000 -0.0000
vt 0.468750 0.468750
vt 0.500000 0.468750
vt 0.500000 0.500000
vt 0.468750 0.500000
vt 0.468750 0.531250
vt 0.500000 0.531250
vt 0.500000 0.562500
vt 0.468750 0.562500
vt 0.531250 0.531250
vt 0.531250 0.562500
vt 0.531250 0.500000
vt 0.531250 0.468750
s 0
f 12/1/1 3/2/1 1/3/1 5/4/1
f 10/5/1 4/6/1 2/7/1 7/8/1
f 4/6/1 9/9/1 8/10/1 2/7/1
f 1/3/1 6/11/1 9/9/1 4/6/1
f 5/4/1 1/3/1 4/6/1 10/5/1
f 3/2/1 11/12/1 6/11/1 1/3/1
