# Blender 4.1.1
# www.blender.org
mtllib pool.mtl
o Cube
v 2.316820 0.000000 -4.816820
v 2.500000 -1.000000 -5.000000
v 2.316820 0.000000 0.816820
v 2.500000 -1.000000 1.000000
v -2.316820 0.000000 -4.816820
v -2.500000 -1.000000 -5.000000
v -2.316820 0.000000 0.816820
v -2.500000 -1.000000 1.000000
v 2.500000 0.000000 1.000000
v -2.500000 0.000000 1.000000
v 2.500000 0.000000 -5.000000
v -2.500000 0.000000 -5.000000
v 2.500000 2.555871 1.000000
v -2.500000 2.555871 1.000000
v 2.500000 2.555871 -5.000000
v -2.500000 2.555871 -5.000000
v 2.316820 2.555871 0.816820
v -2.316820 2.555871 0.816820
v 2.316820 2.555871 -4.816820
v -2.316820 2.555871 -4.816820
vn -0.0000 1.0000 -0.0000
vn -0.0000 -0.0000 1.0000
vn -1.0000 -0.0000 -0.0000
vn -0.0000 -1.0000 -0.0000
vn 1.0000 -0.0000 -0.0000
vn -0.0000 -0.0000 -1.0000
vt 0.634159 0.507633
vt 0.865841 0.507633
vt 0.865841 0.742368
vt 0.634159 0.742368
vt 0.375000 0.750000
vt 0.625000 0.750000
vt 0.625000 1.000000
vt 0.375000 1.000000
vt 0.375000 0.000000
vt 0.625000 0.000000
vt 0.625000 0.250000
vt 0.375000 0.250000
vt 0.125000 0.500000
vt 0.375000 0.500000
vt 0.125000 0.750000
vt 0.625000 0.500000
vt 0.875000 0.750000
vt 0.875000 0.500000
s 0
usemtl Material
f 1/1/1 5/2/1 7/3/1 3/4/1
f 4/5/2 9/6/2 10/7/2 8/8/2
f 8/9/3 10/10/3 12/11/3 6/12/3
f 6/13/4 2/14/4 4/5/4 8/15/4
f 2/14/5 11/16/5 9/6/5 4/5/5
f 6/12/6 12/11/6 11/16/6 2/14/6
f 5/2/2 1/1/2 19/1/2 20/2/2
f 10/7/2 9/6/2 13/6/2 14/7/2
f 11/16/6 12/11/6 16/11/6 15/16/6
f 3/4/6 7/3/6 18/3/6 17/4/6
f 17/4/1 18/3/1 14/17/1 13/6/1
f 19/1/1 17/4/1 13/6/1 15/16/1
f 18/3/1 20/2/1 16/18/1 14/17/1
f 20/2/1 19/1/1 15/16/1 16/18/1
f 1/1/3 3/4/3 17/4/3 19/1/3
f 12/11/3 10/10/3 14/10/3 16/11/3
f 9/6/5 11/16/5 15/16/5 13/6/5
f 7/3/5 5/2/5 20/2/5 18/3/5
