# Blender 4.1.1
# www.blender.org
mtllib couch_convex.mtl
o Cube
v 0.493479 -0.220596 -0.323078
v 0.493479 0.195718 -0.323078
v 0.493479 -0.220596 0.266726
v 0.493479 0.195718 0.266726
v -0.493479 -0.220596 -0.323078
v -0.493479 0.175971 -0.323078
v -0.493479 -0.220596 0.266726
v -0.493479 0.175971 0.266726
v 0.426463 -0.220596 0.266726
v 0.426463 0.195718 0.266726
v 0.426463 -0.220596 -0.323078
v 0.426463 0.195718 -0.323078
v -0.429488 0.322280 0.266726
v -0.436491 -0.220596 -0.323078
v -0.436491 -0.220596 0.266726
v -0.440905 0.034704 -0.323078
v 0.426463 -0.220596 0.266726
v 0.430876 0.042819 -0.323078
v 0.442127 0.342642 0.266726
v 0.426463 -0.220596 -0.323078
v 0.493479 -0.220596 0.100584
v 0.493479 0.195718 0.100584
v -0.493479 -0.220596 0.100584
v -0.493479 0.175971 0.100584
v 0.426463 0.195718 0.100584
v 0.426463 -0.220596 0.100584
v -0.449481 0.054706 0.100584
v -0.436491 -0.220596 0.100584
v 0.426463 -0.220596 0.100584
v 0.416786 0.075105 0.100584
vn 1.0000 -0.0000 -0.0000
vn -0.0000 -0.0000 1.0000
vn -1.0000 -0.0000 -0.0000
vn -0.0000 -0.0000 -1.0000
vn -0.0000 -1.0000 -0.0000
vn -0.0000 1.0000 -0.0000
vn -0.9991 -0.0288 -0.0310
vn 0.9400 0.3411 -0.0000
vn -0.0235 0.9986 -0.0476
vn -0.0124 0.5281 -0.8491
vn -0.9965 0.0800 0.0232
vn -0.9968 0.0800 -0.0000
vn 0.9372 0.3488 0.0025
vn -0.0093 0.9970 -0.0763
vn -0.0123 0.5284 -0.8489
vn -0.8078 0.3533 -0.4718
vn 0.9944 -0.1060 -0.0000
vt 0.625000 0.179577
vt 0.375000 0.250000
vt 0.375000 0.179577
vt 0.375000 0.485565
vt 0.625000 0.500000
vt 0.375000 0.500000
vt 0.625000 0.570423
vt 0.375000 0.750000
vt 0.375000 0.570423
vt 0.625000 0.983025
vt 0.375000 1.000000
vt 0.375000 0.983025
vt 0.360565 0.750000
vt 0.360565 0.570423
vt 0.875000 0.570423
vt 0.858025 0.750000
vt 0.858025 0.570423
vt 0.858025 0.570423
vt 0.141975 0.570423
vt 0.125000 0.750000
vt 0.125000 0.570423
vt 0.625000 0.250000
vt 0.375000 0.266975
vt 0.625000 0.764435
vt 0.375000 0.764435
vt 0.639435 0.570423
vt 0.625000 0.750000
vt 0.141975 0.750000
vt 0.625000 0.485565
vt 0.625000 0.266975
vt 0.639435 0.750000
vt 0.639435 0.500000
vt 0.141975 0.500000
vt 0.360565 0.500000
vt 0.125000 0.500000
vt 0.858025 0.500000
vt 0.875000 0.500000
vt 0.625000 0.000000
vt 0.375000 0.000000
vt 0.625000 1.000000
vt 0.875000 0.750000
s 0
f 22/1/1 3/2/1 21/3/1
f 15/4/2 8/5/2 7/6/2
f 24/7/3 5/8/3 23/9/3
f 12/10/4 1/11/4 11/12/4
f 23/9/5 14/13/5 28/14/5
f 22/15/6 12/16/6 25/17/6
f 30/18/7 12/16/7 18/16/7
f 26/19/5 1/20/5 21/21/5
f 20/12/6 12/10/6 11/12/6
f 4/22/2 9/23/2 3/2/2
f 5/8/4 16/24/4 14/25/4
f 27/26/8 6/27/8 24/7/8
f 28/14/5 20/28/5 29/19/5
f 17/23/2 13/29/2 15/4/2
f 9/23/6 19/30/6 17/23/6
f 26/19/6 20/28/6 11/28/6
f 16/24/4 20/12/4 14/25/4
f 30/18/9 16/31/9 27/26/9
f 13/32/10 30/18/10 27/26/10
f 9/33/6 29/19/6 26/19/6
f 15/34/5 29/19/5 17/33/5
f 8/5/8 27/26/8 24/7/8
f 9/33/5 21/21/5 3/35/5
f 19/36/11 25/17/11 30/18/11
f 4/37/6 25/17/6 10/36/6
f 7/6/5 28/14/5 15/34/5
f 8/5/3 23/9/3 7/6/3
f 2/38/1 21/3/1 1/39/1
f 22/1/1 4/22/1 3/2/1
f 15/4/2 13/29/2 8/5/2
f 24/7/3 6/27/3 5/8/3
f 12/10/4 2/40/4 1/11/4
f 23/9/5 5/8/5 14/13/5
f 22/15/6 2/41/6 12/16/6
f 30/18/12 25/17/12 12/16/12
f 26/19/5 11/28/5 1/20/5
f 20/12/2 18/10/2 12/10/2
f 4/22/2 10/30/2 9/23/2
f 5/8/4 6/27/4 16/24/4
f 27/26/13 16/31/13 6/27/13
f 28/14/5 14/13/5 20/28/5
f 17/23/2 19/30/2 13/29/2
f 9/23/4 10/30/4 19/30/4
f 26/19/6 29/19/6 20/28/6
f 16/24/4 18/10/4 20/12/4
f 30/18/14 18/16/14 16/31/14
f 13/32/15 19/36/15 30/18/15
f 9/33/6 17/33/6 29/19/6
f 15/34/5 28/14/5 29/19/5
f 8/5/16 13/32/16 27/26/16
f 9/33/5 26/19/5 21/21/5
f 19/36/17 10/36/17 25/17/17
f 4/37/6 22/15/6 25/17/6
f 7/6/5 23/9/5 28/14/5
f 8/5/3 24/7/3 23/9/3
f 2/38/1 22/1/1 21/3/1
