# Blender 4.1.1
# www.blender.org
mtllib db_convex.mtl
o Cube
v -0.064555 0.128848 1.217234
v -0.064555 0.215405 1.217234
v -0.055307 -0.191294 -1.217234
v -0.055307 0.040496 -1.217234
v 0.060749 0.128848 1.217234
v 0.060749 0.215405 1.217234
v 0.062024 -0.191294 -1.217234
v 0.062024 0.040496 -1.217234
v -0.067549 0.128848 0.318922
v -0.067549 0.215405 0.318922
v 0.075298 0.128848 0.318922
v 0.075298 0.215405 0.318922
v -0.044440 0.215405 -0.375078
v 0.042242 0.016509 -0.563520
v -0.044440 0.016509 -0.563520
v 0.042242 0.215405 -0.375078
vn -0.9998 -0.0072 0.0164
vn -0.0000 -0.0000 -1.0000
vn 0.9999 -0.0000 0.0162
vn -0.0000 -0.0000 1.0000
vn -0.0000 -1.0000 -0.0000
vn -0.0000 1.0000 -0.0000
vn -0.0000 -0.9920 0.1263
vn 0.9983 0.0403 -0.0425
vn -1.0000 -0.0000 0.0033
vn 0.9995 -0.0000 0.0302
vn -0.0000 -0.9530 0.3029
vn -0.0000 0.9791 -0.2034
vn -0.9993 0.0203 -0.0307
vn 0.9989 -0.0000 -0.0476
vn 0.9992 -0.0277 0.0292
vt 0.375000 0.163517
vt 0.625000 0.163517
vt 0.625000 0.250000
vt 0.375000 0.250000
vt 0.625000 0.500000
vt 0.375000 0.500000
vt 0.625000 0.657751
vt 0.375000 0.750000
vt 0.375000 0.657751
vt 0.625000 0.750000
vt 0.625000 1.000000
vt 0.375000 1.000000
vt 0.125000 0.657751
vt 0.125000 0.750000
vt 0.875000 0.657751
vt 0.625000 0.586483
vt 0.125000 0.586483
vt 0.375000 0.586483
vt 0.375000 0.000000
vt 0.625000 0.000000
vt 0.625000 0.092249
vt 0.375000 0.092249
vt 0.125000 0.500000
vt 0.875000 0.500000
vt 0.875000 0.750000
vt 0.875000 0.586483
s 0
f 15/1/1 13/2/1 4/3/1 3/4/1
f 3/4/2 4/3/2 8/5/2 7/6/2
f 12/7/3 5/8/3 11/9/3
f 5/8/4 6/10/4 2/11/4 1/12/4
f 9/13/5 11/9/5 5/8/5 1/14/5
f 10/15/6 6/10/6 12/7/6
f 16/16/6 10/15/6 12/7/6
f 15/17/7 14/18/7 11/9/7 9/13/7
f 16/16/8 11/9/8 14/18/8
f 1/19/9 2/20/9 10/21/9 9/22/9
f 8/5/10 14/18/10 7/6/10
f 3/23/11 7/6/11 14/18/11 15/17/11
f 4/24/12 16/16/12 8/5/12
f 9/22/13 10/21/13 13/2/13 15/1/13
f 12/7/3 6/10/3 5/8/3
f 10/15/6 2/25/6 6/10/6
f 16/16/6 13/26/6 10/15/6
f 16/16/14 12/7/14 11/9/14
f 8/5/15 16/16/15 14/18/15
f 4/24/12 13/26/12 16/16/12
