# Blender 4.1.1
# www.blender.org
mtllib fence3.mtl
o concrete_fence_Cube.021
v -0.198287 -1.409223 4.408849
v -0.048293 -1.409223 4.410141
v -0.198287 1.590778 4.408848
v -0.048293 1.590778 4.410141
v -0.219816 -1.409221 6.908754
v -0.069821 -1.409221 6.910046
v -0.219816 1.590779 6.908755
v -0.069822 1.590779 6.910045
v -0.111718 -1.409223 -5.643719
v 0.038276 -1.409223 -5.642427
v -0.111718 1.590777 -5.643720
v 0.038276 1.590777 -5.642426
v -0.133247 -1.409223 -3.143814
v 0.016747 -1.409223 -3.142522
v -0.133247 1.590777 -3.143813
v 0.016747 1.590777 -3.142523
v -0.133264 -1.409223 -3.141801
v 0.016730 -1.409223 -3.140510
v -0.133264 1.590777 -3.141802
v 0.016730 1.590777 -3.140508
v -0.154792 -1.409223 -0.641896
v -0.004797 -1.409223 -0.640604
v -0.154792 1.590777 -0.641895
v -0.004798 1.590777 -0.640605
v -0.090001 -1.409227 -8.165522
v 0.059994 -1.409227 -8.164230
v -0.090001 1.590773 -8.165523
v 0.059994 1.590773 -8.164228
v -0.111529 -1.409223 -5.665617
v 0.038465 -1.409223 -5.664325
v -0.111530 1.590777 -5.665616
v 0.038465 1.590777 -5.664326
v -0.155024 -1.409223 -0.614871
v -0.005030 -1.409223 -0.613579
v -0.155024 1.590777 -0.614872
v -0.005030 1.590777 -0.613578
v -0.176553 -1.409223 1.885034
v -0.026558 -1.409223 1.886326
v -0.176553 1.590777 1.885035
v -0.026559 1.590777 1.886325
v -0.176742 -1.409223 1.906932
v -0.026747 -1.409223 1.908223
v -0.176742 1.590777 1.906931
v -0.026747 1.590777 1.908224
v -0.198269 -1.409223 4.406837
v -0.048275 -1.409223 4.408129
v -0.198270 1.590778 4.406838
v -0.048275 1.590778 4.408128
vn -0.5823 -0.5773 0.5724
vn 0.5724 0.5773 0.5823
vn -0.5823 0.5773 0.5723
vn -0.5724 -0.5773 -0.5823
vn 0.5724 -0.5774 0.5823
vn 0.5823 -0.5773 -0.5724
vn 0.5823 0.5774 -0.5724
vn -0.5724 0.5773 -0.5823
vn 0.5823 0.5774 -0.5723
vn -0.5723 0.5773 -0.5823
vt 0.022662 0.205253
vt 0.049696 0.745919
vt 0.022663 0.745919
vt 0.500250 0.178220
vt 0.049696 0.205253
vt 0.049696 0.178220
vt 0.500250 0.205253
vt 0.049696 0.772952
vt 0.500250 0.745919
vt 0.500251 0.772952
vt 0.527284 0.745919
vt 0.527284 0.205253
vt 0.977838 0.745919
vt 0.977838 0.205253
s 1
usemtl Material.005
f 5/1/1 8/2/2 7/3/3
f 1/4/4 6/5/5 5/6/1
f 2/7/6 8/2/2 6/5/5
f 7/8/3 4/9/7 3/10/8
f 2/7/6 3/11/8 4/9/7
f 1/12/4 7/13/3 3/11/8
f 5/1/1 6/5/5 8/2/2
f 1/4/4 2/7/6 6/5/5
f 2/7/6 4/9/7 8/2/2
f 7/8/3 8/2/2 4/9/7
f 2/7/6 1/12/4 3/11/8
f 1/12/4 5/14/1 7/13/3
usemtl Material.001
f 13/1/1 16/2/2 15/3/3
f 9/4/4 14/5/5 13/6/1
f 10/7/6 16/2/2 14/5/5
f 15/8/3 12/9/9 11/10/8
f 10/7/6 11/11/8 12/9/9
f 9/12/4 15/13/3 11/11/8
f 13/1/1 14/5/5 16/2/2
f 9/4/4 10/7/6 14/5/5
f 10/7/6 12/9/9 16/2/2
f 15/8/3 16/2/2 12/9/9
f 10/7/6 9/12/4 11/11/8
f 9/12/4 13/14/1 15/13/3
usemtl Material.002
f 21/1/1 24/2/2 23/3/3
f 17/4/4 22/5/5 21/6/1
f 18/7/6 24/2/2 22/5/5
f 23/8/3 20/9/9 19/10/8
f 18/7/6 19/11/8 20/9/9
f 17/12/4 23/13/3 19/11/8
f 21/1/1 22/5/5 24/2/2
f 17/4/4 18/7/6 22/5/5
f 18/7/6 20/9/9 24/2/2
f 23/8/3 24/2/2 20/9/9
f 18/7/6 17/12/4 19/11/8
f 17/12/4 21/14/1 23/13/3
usemtl Material.003
f 29/1/1 32/2/2 31/3/3
f 25/4/4 30/5/5 29/6/1
f 26/7/6 32/2/2 30/5/5
f 31/8/3 28/9/9 27/10/10
f 26/7/6 27/11/10 28/9/9
f 25/12/4 31/13/3 27/11/10
f 29/1/1 30/5/5 32/2/2
f 25/4/4 26/7/6 30/5/5
f 26/7/6 28/9/9 32/2/2
f 31/8/3 32/2/2 28/9/9
f 26/7/6 25/12/4 27/11/10
f 25/12/4 29/14/1 31/13/3
usemtl Material.004
f 37/1/1 40/2/2 39/3/3
f 33/4/4 38/5/5 37/6/1
f 34/7/6 40/2/2 38/5/5
f 39/8/3 36/9/9 35/10/10
f 34/7/6 35/11/10 36/9/9
f 33/12/4 39/13/3 35/11/10
f 37/1/1 38/5/5 40/2/2
f 33/4/4 34/7/6 38/5/5
f 34/7/6 36/9/9 40/2/2
f 39/8/3 40/2/2 36/9/9
f 34/7/6 33/12/4 35/11/10
f 33/12/4 37/14/1 39/13/3
usemtl Material.006
f 45/1/1 48/2/2 47/3/3
f 41/4/4 46/5/5 45/6/1
f 42/7/6 48/2/2 46/5/5
f 47/8/3 44/9/7 43/10/8
f 42/7/6 43/11/8 44/9/7
f 41/12/4 47/13/3 43/11/8
f 45/1/1 46/5/5 48/2/2
f 41/4/4 42/7/6 46/5/5
f 42/7/6 44/9/7 48/2/2
f 47/8/3 48/2/2 44/9/7
f 42/7/6 41/12/4 43/11/8
f 41/12/4 45/14/1 47/13/3
