# Blender 4.1.1
# www.blender.org
mtllib fence2.mtl
o concrete_fence_Cube.016
v 4.788939 -1.502433 -0.001530
v 4.787953 -1.502433 -0.151527
v 4.788939 1.497566 -0.001530
v 4.787955 1.497566 -0.151527
v 7.288884 -1.502433 -0.017961
v 7.287898 -1.502433 -0.167958
v 7.288884 1.497566 -0.017960
v 7.287896 1.497566 -0.167957
v -10.253175 -1.502433 0.097331
v -10.254160 -1.502433 -0.052665
v -10.253176 1.497566 0.097331
v -10.254159 1.497566 -0.052665
v -7.753231 -1.502433 0.080900
v -7.754216 -1.502433 -0.069096
v -7.753230 1.497566 0.080901
v -7.754217 1.497566 -0.069096
v -7.731333 -1.502433 0.080757
v -7.732318 -1.502433 -0.069239
v -7.731334 1.497566 0.080757
v -7.732317 1.497566 -0.069239
v -5.231389 -1.502433 0.064327
v -5.232374 -1.502433 -0.085670
v -5.231388 1.497566 0.064327
v -5.232375 1.497566 -0.085670
v -2.761827 -1.502433 0.048096
v -2.762813 -1.502433 -0.101901
v -2.761828 1.497566 0.048096
v -2.762812 1.497566 -0.101901
v -0.261883 -1.502433 0.031665
v -0.262869 -1.502433 -0.118332
v -0.261882 1.497566 0.031666
v -0.262870 1.497566 -0.118331
v -0.259871 -1.502433 0.031653
v -0.260858 -1.502433 -0.118344
v -0.259872 1.497566 0.031653
v -0.260856 1.497566 -0.118344
v 2.240073 -1.502433 0.015222
v 2.239087 -1.502433 -0.134775
v 2.240074 1.497566 0.015222
v 2.239086 1.497566 -0.134774
v -5.283670 -1.502433 0.064670
v -5.284656 -1.502433 -0.085326
v -5.283671 1.497566 0.064670
v -5.284655 1.497566 -0.085326
v -2.783726 -1.502433 0.048239
v -2.784711 -1.502433 -0.101757
v -2.783725 1.497566 0.048240
v -2.784713 1.497566 -0.101757
v 2.267097 -1.502433 0.015044
v 2.266111 -1.502433 -0.134952
v 2.267097 1.497566 0.015044
v 2.266112 1.497566 -0.134952
v 4.767042 -1.502433 -0.001386
v 4.766056 -1.502433 -0.151383
v 4.767043 1.497566 -0.001386
v 4.766055 1.497566 -0.151383
v 7.290896 -1.502433 -0.017974
v 7.289910 -1.502433 -0.167971
v 7.290896 1.497566 -0.017974
v 7.289912 1.497566 -0.167971
v 9.790841 -1.502433 -0.034405
v 9.789855 -1.502433 -0.184402
v 9.790841 1.497566 -0.034405
v 9.789853 1.497566 -0.184401
vn 0.5811 -0.5773 0.5735
vn 0.5735 0.5773 -0.5812
vn 0.5811 0.5773 0.5736
vn -0.5735 -0.5773 0.5811
vn 0.5735 -0.5774 -0.5811
vn -0.5811 -0.5773 -0.5736
vn -0.5811 0.5774 -0.5735
vn -0.5736 0.5773 0.5811
vn 0.5735 0.5773 -0.5811
vt 0.022662 0.205253
vt 0.049696 0.745919
vt 0.022663 0.745919
vt 0.500250 0.178220
vt 0.049696 0.205253
vt 0.049696 0.178220
vt 0.500250 0.205253
vt 0.049696 0.772952
vt 0.500250 0.745919
vt 0.500251 0.772952
vt 0.527284 0.745919
vt 0.527284 0.205253
vt 0.977838 0.745919
vt 0.977838 0.205253
s 1
usemtl Material.023
f 5/1/1 8/2/2 7/3/3
f 1/4/4 6/5/5 5/6/1
f 2/7/6 8/2/2 6/5/5
f 7/8/3 4/9/7 3/10/8
f 2/7/6 3/11/8 4/9/7
f 1/12/4 7/13/3 3/11/8
f 5/1/1 6/5/5 8/2/2
f 1/4/4 2/7/6 6/5/5
f 2/7/6 4/9/7 8/2/2
f 7/8/3 8/2/2 4/9/7
f 2/7/6 1/12/4 3/11/8
f 1/12/4 5/14/1 7/13/3
usemtl Material.016
f 13/1/1 16/2/9 15/3/3
f 9/4/4 14/5/5 13/6/1
f 10/7/6 16/2/9 14/5/5
f 15/8/3 12/9/7 11/10/8
f 10/7/6 11/11/8 12/9/7
f 9/12/4 15/13/3 11/11/8
f 13/1/1 14/5/5 16/2/9
f 9/4/4 10/7/6 14/5/5
f 10/7/6 12/9/7 16/2/9
f 15/8/3 16/2/9 12/9/7
f 10/7/6 9/12/4 11/11/8
f 9/12/4 13/14/1 15/13/3
usemtl Material.017
f 21/1/1 24/2/9 23/3/3
f 17/4/4 22/5/5 21/6/1
f 18/7/6 24/2/9 22/5/5
f 23/8/3 20/9/7 19/10/8
f 18/7/6 19/11/8 20/9/7
f 17/12/4 23/13/3 19/11/8
f 21/1/1 22/5/5 24/2/9
f 17/4/4 18/7/6 22/5/5
f 18/7/6 20/9/7 24/2/9
f 23/8/3 24/2/9 20/9/7
f 18/7/6 17/12/4 19/11/8
f 17/12/4 21/14/1 23/13/3
usemtl Material.018
f 29/1/1 32/2/2 31/3/3
f 25/4/4 30/5/5 29/6/1
f 26/7/6 32/2/2 30/5/5
f 31/8/3 28/9/7 27/10/8
f 26/7/6 27/11/8 28/9/7
f 25/12/4 31/13/3 27/11/8
f 29/1/1 30/5/5 32/2/2
f 25/4/4 26/7/6 30/5/5
f 26/7/6 28/9/7 32/2/2
f 31/8/3 32/2/2 28/9/7
f 26/7/6 25/12/4 27/11/8
f 25/12/4 29/14/1 31/13/3
usemtl Material.019
f 37/1/1 40/2/2 39/3/3
f 33/4/4 38/5/5 37/6/1
f 34/7/6 40/2/2 38/5/5
f 39/8/3 36/9/7 35/10/8
f 34/7/6 35/11/8 36/9/7
f 33/12/4 39/13/3 35/11/8
f 37/1/1 38/5/5 40/2/2
f 33/4/4 34/7/6 38/5/5
f 34/7/6 36/9/7 40/2/2
f 39/8/3 40/2/2 36/9/7
f 34/7/6 33/12/4 35/11/8
f 33/12/4 37/14/1 39/13/3
usemtl Material.020
f 45/1/1 48/2/2 47/3/3
f 41/4/4 46/5/5 45/6/1
f 42/7/6 48/2/2 46/5/5
f 47/8/3 44/9/7 43/10/8
f 42/7/6 43/11/8 44/9/7
f 41/12/4 47/13/3 43/11/8
f 45/1/1 46/5/5 48/2/2
f 41/4/4 42/7/6 46/5/5
f 42/7/6 44/9/7 48/2/2
f 47/8/3 48/2/2 44/9/7
f 42/7/6 41/12/4 43/11/8
f 41/12/4 45/14/1 47/13/3
usemtl Material.021
f 53/1/1 56/2/2 55/3/3
f 49/4/4 54/5/5 53/6/1
f 50/7/6 56/2/2 54/5/5
f 55/8/3 52/9/7 51/10/8
f 50/7/6 51/11/8 52/9/7
f 49/12/4 55/13/3 51/11/8
f 53/1/1 54/5/5 56/2/2
f 49/4/4 50/7/6 54/5/5
f 50/7/6 52/9/7 56/2/2
f 55/8/3 56/2/2 52/9/7
f 50/7/6 49/12/4 51/11/8
f 49/12/4 53/14/1 55/13/3
usemtl Material.022
f 61/1/1 64/2/2 63/3/3
f 57/4/4 62/5/5 61/6/1
f 58/7/6 64/2/2 62/5/5
f 63/8/3 60/9/7 59/10/8
f 58/7/6 59/11/8 60/9/7
f 57/12/4 63/13/3 59/11/8
f 61/1/1 62/5/5 64/2/2
f 57/4/4 58/7/6 62/5/5
f 58/7/6 60/9/7 64/2/2
f 63/8/3 64/2/2 60/9/7
f 58/7/6 57/12/4 59/11/8
f 57/12/4 61/14/1 63/13/3
