# Blender 4.1.1
# www.blender.org
mtllib glock17_convex.mtl
o Cube
v -0.024068 0.072168 0.284710
v -0.030110 0.192785 0.279585
v -0.036486 -0.192785 -0.260371
v -0.025134 0.192785 -0.210754
v 0.034684 0.072168 0.284710
v 0.025965 0.192785 0.279585
v 0.042633 -0.192785 -0.259032
v 0.021146 0.192785 -0.211768
v -0.022846 -0.192785 -0.117540
v -0.018690 0.192785 -0.059946
v 0.025112 -0.192785 -0.112853
v 0.012329 0.192785 -0.059946
v -0.040395 0.132477 0.282148
v -0.044970 0.000000 -0.258801
v 0.050680 0.000000 -0.258801
v 0.044115 0.132477 0.282148
v 0.044115 0.000000 -0.059946
v -0.034685 0.000000 -0.059946
vn -0.9951 0.0865 0.0476
vn -0.0069 0.2393 -0.9709
vn 0.9796 0.1927 -0.0570
vn -0.0000 0.0424 0.9991
vn -0.0243 -0.8333 0.5523
vn -0.0000 1.0000 -0.0000
vn -0.0000 -1.0000 -0.0000
vn 0.9875 0.1518 0.0433
vn -0.9937 0.1027 -0.0449
vn -0.9909 -0.1225 0.0562
vn 0.9944 -0.0793 0.0694
vn 0.9912 -0.1218 0.0526
vn 0.0077 0.0047 -1.0000
vn -0.9956 -0.0632 0.0697
vt 0.500000 0.151801
vt 0.625000 0.151801
vt 0.625000 0.250000
vt 0.500000 0.250000
vt 0.625000 0.500000
vt 0.500000 0.500000
vt 0.500000 0.598199
vt 0.625000 0.598199
vt 0.625000 0.750000
vt 0.500000 0.750000
vt 0.625000 1.000000
vt 0.500000 1.000000
vt 0.125000 0.598199
vt 0.375000 0.598199
vt 0.375000 0.750000
vt 0.125000 0.750000
vt 0.875000 0.598199
vt 0.875000 0.750000
vt 0.875000 0.500000
vt 0.125000 0.500000
vt 0.375000 0.500000
vt 0.500000 0.000000
vt 0.625000 0.000000
vt 0.375000 0.000000
vt 0.375000 0.151801
vt 0.375000 1.000000
vt 0.375000 0.250000
s 0
f 18/1/1 10/2/1 4/3/1 14/4/1
f 14/4/2 4/3/2 8/5/2 15/6/2
f 17/7/3 12/8/3 6/9/3 16/10/3
f 16/10/4 6/9/4 2/11/4 13/12/4
f 9/13/5 11/14/5 5/15/5 1/16/5
f 12/8/6 10/17/6 2/18/6 6/9/6
f 8/5/6 4/19/6 10/17/6 12/8/6
f 3/20/7 7/21/7 11/14/7 9/13/7
f 15/6/8 8/5/8 12/8/8 17/7/8
f 13/22/9 2/23/9 10/2/9 18/1/9
f 1/24/10 13/22/10 18/1/10 9/25/10
f 7/21/11 15/6/11 17/7/11 11/14/11
f 5/15/4 16/10/4 13/12/4 1/26/4
f 11/14/12 17/7/12 16/10/12 5/15/12
f 3/27/13 14/4/13 15/6/13 7/21/13
f 9/25/14 18/1/14 14/4/14 3/27/14
